STARTFONT 2.1
COMMENT
COMMENT Converted from OpenType font "arialbi.ttf" by "otf2bdf 3.0".
COMMENT
FONT -FreeType-Arial-Bold-I-Normal--17-120-100-100-P-98-ISO10646-1
SIZE 12 100 100
FONTBOUNDINGBOX 33 25 -9 -8
STARTPROPERTIES 19
FOUNDRY "FreeType"
FAMILY_NAME "Arial"
WEIGHT_NAME "Bold"
SLANT "I"
SETWIDTH_NAME "Normal"
ADD_STYLE_NAME ""
PIXEL_SIZE 17
POINT_SIZE 120
RESOLUTION_X 100
RESOLUTION_Y 100
SPACING "P"
AVERAGE_WIDTH 98
CHARSET_REGISTRY "ISO10646"
CHARSET_ENCODING "1"
FONT_ASCENT 15
FONT_DESCENT 3
COPYRIGHT "© 2017 The Monotype Corporation. All Rights Reserved.     Hebrew OpenType Layout logic copyright © 2003 & 2007, Ralph Hancock & John Hudson. This layout logic for Biblical Hebrew is open source software under the MIT License; see embedded license description for details."
_OTF_FONTFILE "arialbi.ttf"
_OTF_PSNAME "Arial-BoldItalicMT"
ENDPROPERTIES
CHARS 2667
STARTCHAR 0020
ENCODING 32
SWIDTH 300 0
DWIDTH 5 0
BBX 0 0 0 0
BITMAP
ENDCHAR
STARTCHAR 0021
ENCODING 33
SWIDTH 300 0
DWIDTH 5 0
BBX 4 12 1 0
BITMAP
30
30
30
60
60
60
60
40
40
00
C0
C0
ENDCHAR
STARTCHAR 0022
ENCODING 34
SWIDTH 420 0
DWIDTH 7 0
BBX 5 4 2 8
BITMAP
D8
D8
D8
90
ENDCHAR
STARTCHAR 0023
ENCODING 35
SWIDTH 540 0
DWIDTH 9 0
BBX 9 12 1 0
BITMAP
1980
1980
3300
FF80
FF80
3300
6600
FF80
FF80
6600
CC00
CC00
ENDCHAR
STARTCHAR 0024
ENCODING 36
SWIDTH 540 0
DWIDTH 9 0
BBX 9 14 1 -1
BITMAP
0400
1E00
3F00
6B80
6980
7800
3C00
1E00
1300
D300
D700
7E00
3C00
2000
ENDCHAR
STARTCHAR 0025
ENCODING 37
SWIDTH 900 0
DWIDTH 15 0
BBX 13 12 2 0
BITMAP
3830
6C60
CCC0
CD80
DB00
7600
0670
0CD8
1998
3198
61B0
C0E0
ENDCHAR
STARTCHAR 0026
ENCODING 38
SWIDTH 720 0
DWIDTH 12 0
BBX 11 12 1 0
BITMAP
0700
0F80
1980
1980
1F00
1E00
7E00
C740
C3C0
C380
7FE0
3CC0
ENDCHAR
STARTCHAR 0027
ENCODING 39
SWIDTH 180 0
DWIDTH 3 0
BBX 2 4 2 8
BITMAP
C0
C0
C0
80
ENDCHAR
STARTCHAR 0028
ENCODING 40
SWIDTH 360 0
DWIDTH 6 0
BBX 6 15 1 -3
BITMAP
04
08
18
30
60
60
E0
C0
C0
C0
C0
C0
C0
40
60
ENDCHAR
STARTCHAR 0029
ENCODING 41
SWIDTH 360 0
DWIDTH 6 0
BBX 6 15 -1 -3
BITMAP
18
08
0C
0C
0C
0C
0C
0C
1C
18
18
30
60
40
C0
ENDCHAR
STARTCHAR 002A
ENCODING 42
SWIDTH 420 0
DWIDTH 7 0
BBX 6 6 2 6
BITMAP
30
B4
78
30
FC
48
ENDCHAR
STARTCHAR 002B
ENCODING 43
SWIDTH 600 0
DWIDTH 10 0
BBX 8 8 1 2
BITMAP
18
18
18
FF
FF
18
18
18
ENDCHAR
STARTCHAR 002C
ENCODING 44
SWIDTH 240 0
DWIDTH 4 0
BBX 3 5 0 -3
BITMAP
60
60
20
20
C0
ENDCHAR
STARTCHAR 002D
ENCODING 45
SWIDTH 360 0
DWIDTH 6 0
BBX 5 2 1 3
BITMAP
F8
F8
ENDCHAR
STARTCHAR 002E
ENCODING 46
SWIDTH 300 0
DWIDTH 5 0
BBX 2 2 1 0
BITMAP
C0
C0
ENDCHAR
STARTCHAR 002F
ENCODING 47
SWIDTH 300 0
DWIDTH 5 0
BBX 7 12 0 0
BITMAP
06
06
0C
0C
18
18
30
30
60
60
C0
C0
ENDCHAR
STARTCHAR 0030
ENCODING 48
SWIDTH 540 0
DWIDTH 9 0
BBX 8 12 1 0
BITMAP
1E
3E
73
63
63
C3
C3
C6
C6
CE
7C
78
ENDCHAR
STARTCHAR 0031
ENCODING 49
SWIDTH 540 0
DWIDTH 9 0
BBX 6 12 2 0
BITMAP
0C
1C
7C
F8
D8
18
18
18
18
30
30
30
ENDCHAR
STARTCHAR 0032
ENCODING 50
SWIDTH 540 0
DWIDTH 9 0
BBX 8 12 1 0
BITMAP
1E
3F
73
63
03
06
0E
1C
38
70
FE
FE
ENDCHAR
STARTCHAR 0033
ENCODING 51
SWIDTH 540 0
DWIDTH 9 0
BBX 8 12 1 0
BITMAP
1E
3F
63
03
06
1C
1E
06
06
C6
FC
78
ENDCHAR
STARTCHAR 0034
ENCODING 52
SWIDTH 540 0
DWIDTH 9 0
BBX 9 12 0 0
BITMAP
0080
0180
0380
0780
0F00
1B00
3300
6300
FF80
FF80
0600
0600
ENDCHAR
STARTCHAR 0035
ENCODING 53
SWIDTH 540 0
DWIDTH 9 0
BBX 8 12 1 0
BITMAP
1F
1F
30
30
3E
7F
63
03
C3
C6
7E
38
ENDCHAR
STARTCHAR 0036
ENCODING 54
SWIDTH 540 0
DWIDTH 9 0
BBX 8 12 1 0
BITMAP
1E
3F
73
60
DC
FE
E6
C6
C6
CE
7C
38
ENDCHAR
STARTCHAR 0037
ENCODING 55
SWIDTH 540 0
DWIDTH 9 0
BBX 8 12 2 0
BITMAP
FF
FF
06
0C
18
18
30
30
60
60
C0
C0
ENDCHAR
STARTCHAR 0038
ENCODING 56
SWIDTH 540 0
DWIDTH 9 0
BBX 8 12 1 0
BITMAP
1E
3F
73
63
67
3E
7C
E6
C6
CE
FC
78
ENDCHAR
STARTCHAR 0039
ENCODING 57
SWIDTH 540 0
DWIDTH 9 0
BBX 8 12 1 0
BITMAP
1E
3E
73
63
63
67
7F
3B
06
CE
FC
78
ENDCHAR
STARTCHAR 003A
ENCODING 58
SWIDTH 300 0
DWIDTH 5 0
BBX 3 9 1 0
BITMAP
60
60
00
00
00
00
00
C0
C0
ENDCHAR
STARTCHAR 003B
ENCODING 59
SWIDTH 360 0
DWIDTH 6 0
BBX 4 12 1 -3
BITMAP
30
30
00
00
00
00
00
60
60
20
60
C0
ENDCHAR
STARTCHAR 003C
ENCODING 60
SWIDTH 600 0
DWIDTH 10 0
BBX 8 9 1 1
BITMAP
01
07
3E
F8
C0
F8
3E
07
01
ENDCHAR
STARTCHAR 003D
ENCODING 61
SWIDTH 600 0
DWIDTH 10 0
BBX 9 6 1 3
BITMAP
FF80
FF80
0000
0000
FF80
FF80
ENDCHAR
STARTCHAR 003E
ENCODING 62
SWIDTH 600 0
DWIDTH 10 0
BBX 8 9 1 1
BITMAP
80
E0
7C
1F
03
1F
7C
E0
80
ENDCHAR
STARTCHAR 003F
ENCODING 63
SWIDTH 600 0
DWIDTH 10 0
BBX 8 12 2 0
BITMAP
3E
7F
C3
C3
06
0C
18
30
60
00
60
60
ENDCHAR
STARTCHAR 0040
ENCODING 64
SWIDTH 1020 0
DWIDTH 17 0
BBX 16 16 1 -4
BITMAP
07F0
1FFC
3C1E
73B6
6FF3
EC73
D823
D863
D867
D8EE
CFFC
6778
7003
380E
1FFC
07F0
ENDCHAR
STARTCHAR 0041
ENCODING 65
SWIDTH 720 0
DWIDTH 12 0
BBX 11 12 0 0
BITMAP
0180
0380
0380
06C0
0EC0
0CC0
18C0
1FC0
3FC0
7060
6060
C060
ENDCHAR
STARTCHAR 0042
ENCODING 66
SWIDTH 720 0
DWIDTH 12 0
BBX 10 12 1 0
BITMAP
3F80
3FC0
30C0
60C0
61C0
7F80
7F80
60C0
60C0
C1C0
FF80
FF00
ENDCHAR
STARTCHAR 0043
ENCODING 67
SWIDTH 720 0
DWIDTH 12 0
BBX 11 12 1 0
BITMAP
0F80
3FC0
70E0
6060
E000
C000
C000
C000
C0C0
E180
7F80
3E00
ENDCHAR
STARTCHAR 0044
ENCODING 68
SWIDTH 720 0
DWIDTH 12 0
BBX 11 12 1 0
BITMAP
3F80
3FC0
30E0
6060
6060
6060
6060
6060
60C0
C1C0
FF80
FE00
ENDCHAR
STARTCHAR 0045
ENCODING 69
SWIDTH 660 0
DWIDTH 11 0
BBX 11 12 1 0
BITMAP
3FE0
3FE0
3000
6000
6000
7F80
7F80
6000
6000
C000
FF80
FF80
ENDCHAR
STARTCHAR 0046
ENCODING 70
SWIDTH 600 0
DWIDTH 10 0
BBX 10 12 1 0
BITMAP
3FC0
3FC0
3000
6000
6000
7F80
7F80
6000
6000
C000
C000
C000
ENDCHAR
STARTCHAR 0047
ENCODING 71
SWIDTH 780 0
DWIDTH 13 0
BBX 12 12 1 0
BITMAP
0FC0
1FE0
3870
6030
E000
C000
C1F0
C1F0
C030
E060
7FE0
1F80
ENDCHAR
STARTCHAR 0048
ENCODING 72
SWIDTH 720 0
DWIDTH 12 0
BBX 11 12 1 0
BITMAP
3060
3060
3060
60C0
60C0
7FC0
7FC0
60C0
60C0
C180
C180
C180
ENDCHAR
STARTCHAR 0049
ENCODING 73
SWIDTH 300 0
DWIDTH 5 0
BBX 4 12 1 0
BITMAP
30
30
30
60
60
60
60
60
60
C0
C0
C0
ENDCHAR
STARTCHAR 004A
ENCODING 74
SWIDTH 540 0
DWIDTH 9 0
BBX 10 12 0 0
BITMAP
00C0
00C0
00C0
0180
0180
0180
0180
0180
C300
C300
FF00
7C00
ENDCHAR
STARTCHAR 004B
ENCODING 75
SWIDTH 720 0
DWIDTH 12 0
BBX 12 12 1 0
BITMAP
3070
30E0
31C0
6380
6700
6F00
7B80
7180
6180
C1C0
C0C0
C0E0
ENDCHAR
STARTCHAR 004C
ENCODING 76
SWIDTH 600 0
DWIDTH 10 0
BBX 8 12 1 0
BITMAP
30
30
30
60
60
60
60
60
60
C0
FF
FF
ENDCHAR
STARTCHAR 004D
ENCODING 77
SWIDTH 900 0
DWIDTH 15 0
BBX 14 12 1 0
BITMAP
1E1C
3E1C
363C
362C
366C
7658
66D8
6698
6798
6718
C730
C630
ENDCHAR
STARTCHAR 004E
ENCODING 78
SWIDTH 720 0
DWIDTH 12 0
BBX 11 12 1 0
BITMAP
3060
3860
3860
7CC0
6CC0
6CC0
66C0
66C0
67C0
C380
C380
C180
ENDCHAR
STARTCHAR 004F
ENCODING 79
SWIDTH 780 0
DWIDTH 13 0
BBX 12 12 1 0
BITMAP
0F80
1FE0
3860
6030
6030
C030
C030
C070
C060
61C0
7F80
1F00
ENDCHAR
STARTCHAR 0050
ENCODING 80
SWIDTH 660 0
DWIDTH 11 0
BBX 11 12 1 0
BITMAP
3FC0
3FE0
3060
6060
60E0
7FC0
7F80
6000
6000
C000
C000
C000
ENDCHAR
STARTCHAR 0051
ENCODING 81
SWIDTH 780 0
DWIDTH 13 0
BBX 12 13 1 -1
BITMAP
0F80
1FE0
3870
6030
6030
C030
C030
C260
C7E0
63C0
7FC0
1EE0
0040
ENDCHAR
STARTCHAR 0052
ENCODING 82
SWIDTH 720 0
DWIDTH 12 0
BBX 11 12 1 0
BITMAP
3FC0
3FE0
3060
6060
60E0
7FC0
7F00
6300
6300
C180
C180
C1C0
ENDCHAR
STARTCHAR 0053
ENCODING 83
SWIDTH 660 0
DWIDTH 11 0
BBX 10 12 1 0
BITMAP
1F00
3F80
61C0
60C0
7000
3E00
0F00
0380
C180
E180
7F00
3E00
ENDCHAR
STARTCHAR 0054
ENCODING 84
SWIDTH 600 0
DWIDTH 10 0
BBX 9 12 2 0
BITMAP
FF80
FF80
1800
1800
3800
3000
3000
3000
7000
6000
6000
6000
ENDCHAR
STARTCHAR 0055
ENCODING 85
SWIDTH 720 0
DWIDTH 12 0
BBX 10 12 2 0
BITMAP
60C0
60C0
60C0
6180
C180
C180
C180
C180
C300
C300
FE00
7C00
ENDCHAR
STARTCHAR 0056
ENCODING 86
SWIDTH 660 0
DWIDTH 11 0
BBX 10 12 2 0
BITMAP
C0C0
C180
C180
6300
6300
6600
6600
6C00
6C00
3800
3800
3000
ENDCHAR
STARTCHAR 0057
ENCODING 87
SWIDTH 960 0
DWIDTH 16 0
BBX 15 12 2 0
BITMAP
C386
C38C
C78C
C798
CD98
CDB0
D9B0
D9E0
F1E0
F1C0
E1C0
E180
ENDCHAR
STARTCHAR 0058
ENCODING 88
SWIDTH 660 0
DWIDTH 11 0
BBX 13 12 0 0
BITMAP
3838
1870
1CE0
0DC0
0F80
0700
0600
0F00
1F80
3980
71C0
E0C0
ENDCHAR
STARTCHAR 0059
ENCODING 89
SWIDTH 660 0
DWIDTH 11 0
BBX 11 12 2 0
BITMAP
C0E0
61C0
6380
7700
3600
3C00
1C00
1800
1800
3000
3000
3000
ENDCHAR
STARTCHAR 005A
ENCODING 90
SWIDTH 600 0
DWIDTH 10 0
BBX 11 12 0 0
BITMAP
3FE0
3FE0
00C0
0180
0300
0600
0C00
1800
3000
6000
FFC0
FFC0
ENDCHAR
STARTCHAR 005B
ENCODING 91
SWIDTH 360 0
DWIDTH 6 0
BBX 7 15 -1 -3
BITMAP
1E
1E
30
30
30
30
30
60
60
60
60
60
C0
F0
F0
ENDCHAR
STARTCHAR 005C
ENCODING 92
SWIDTH 300 0
DWIDTH 5 0
BBX 4 12 1 0
BITMAP
C0
C0
C0
60
60
60
60
60
60
30
30
30
ENDCHAR
STARTCHAR 005D
ENCODING 93
SWIDTH 360 0
DWIDTH 6 0
BBX 7 15 -1 -3
BITMAP
1E
1E
06
0C
0C
0C
0C
0C
18
18
18
18
18
F0
F0
ENDCHAR
STARTCHAR 005E
ENCODING 94
SWIDTH 540 0
DWIDTH 9 0
BBX 7 7 2 5
BITMAP
10
38
28
6C
6C
44
C6
ENDCHAR
STARTCHAR 005F
ENCODING 95
SWIDTH 540 0
DWIDTH 9 0
BBX 9 2 0 -3
BITMAP
FF80
FF80
ENDCHAR
STARTCHAR 0060
ENCODING 96
SWIDTH 360 0
DWIDTH 6 0
BBX 4 2 2 10
BITMAP
E0
70
ENDCHAR
STARTCHAR 0061
ENCODING 97
SWIDTH 540 0
DWIDTH 9 0
BBX 8 9 1 0
BITMAP
1E
3F
63
03
7F
C6
C6
FE
76
ENDCHAR
STARTCHAR 0062
ENCODING 98
SWIDTH 600 0
DWIDTH 10 0
BBX 9 12 1 0
BITMAP
3000
3000
3000
6F00
7F80
7180
6180
6180
6180
E300
FF00
DE00
ENDCHAR
STARTCHAR 0063
ENCODING 99
SWIDTH 540 0
DWIDTH 9 0
BBX 8 9 1 0
BITMAP
1E
7F
63
C0
C0
C0
C3
7E
3C
ENDCHAR
STARTCHAR 0064
ENCODING 100
SWIDTH 540 0
DWIDTH 9 0
BBX 9 12 1 0
BITMAP
0180
0180
0180
3B00
7F00
6700
C300
C300
C700
C600
FE00
7600
ENDCHAR
STARTCHAR 0065
ENCODING 101
SWIDTH 540 0
DWIDTH 9 0
BBX 8 9 1 0
BITMAP
3E
7F
C3
FF
FF
C0
E3
7E
3C
ENDCHAR
STARTCHAR 0066
ENCODING 102
SWIDTH 300 0
DWIDTH 5 0
BBX 6 12 1 0
BITMAP
1C
3C
30
F8
F8
60
60
60
60
C0
C0
C0
ENDCHAR
STARTCHAR 0067
ENCODING 103
SWIDTH 540 0
DWIDTH 9 0
BBX 9 12 0 -3
BITMAP
1D80
3F80
3380
6180
6180
6180
6300
7F00
3B00
C300
FE00
7C00
ENDCHAR
STARTCHAR 0068
ENCODING 104
SWIDTH 600 0
DWIDTH 10 0
BBX 9 12 1 0
BITMAP
3000
3000
3000
6F00
7F80
7180
6180
6180
6180
C300
C300
C300
ENDCHAR
STARTCHAR 0069
ENCODING 105
SWIDTH 240 0
DWIDTH 4 0
BBX 4 12 1 0
BITMAP
30
30
00
60
60
60
60
60
60
C0
C0
C0
ENDCHAR
STARTCHAR 006A
ENCODING 106
SWIDTH 240 0
DWIDTH 4 0
BBX 7 15 -2 -3
BITMAP
06
06
00
0C
0C
0C
0C
0C
0C
18
18
18
18
F0
F0
ENDCHAR
STARTCHAR 006B
ENCODING 107
SWIDTH 480 0
DWIDTH 8 0
BBX 8 12 1 0
BITMAP
30
30
30
63
66
6C
78
7C
6C
CC
C6
C6
ENDCHAR
STARTCHAR 006C
ENCODING 108
SWIDTH 240 0
DWIDTH 4 0
BBX 4 12 1 0
BITMAP
30
30
30
60
60
60
60
60
60
C0
C0
C0
ENDCHAR
STARTCHAR 006D
ENCODING 109
SWIDTH 840 0
DWIDTH 14 0
BBX 13 9 1 0
BITMAP
6E70
7FF8
7398
6318
6318
6318
C630
C630
C630
ENDCHAR
STARTCHAR 006E
ENCODING 110
SWIDTH 600 0
DWIDTH 10 0
BBX 9 9 1 0
BITMAP
6700
7F80
7180
6180
6180
6180
C300
C300
C300
ENDCHAR
STARTCHAR 006F
ENCODING 111
SWIDTH 600 0
DWIDTH 10 0
BBX 9 9 1 0
BITMAP
1E00
7F00
6380
C180
C180
C180
E300
7F00
3C00
ENDCHAR
STARTCHAR 0070
ENCODING 112
SWIDTH 540 0
DWIDTH 9 0
BBX 9 12 0 -3
BITMAP
3700
3F80
3180
6180
6180
6180
6300
7F00
DE00
C000
C000
C000
ENDCHAR
STARTCHAR 0071
ENCODING 113
SWIDTH 540 0
DWIDTH 9 0
BBX 9 12 1 -3
BITMAP
3D80
7F80
6380
C300
C300
C300
E700
7F00
3B00
0600
0600
0600
ENDCHAR
STARTCHAR 0072
ENCODING 114
SWIDTH 420 0
DWIDTH 7 0
BBX 7 9 1 0
BITMAP
6E
7C
70
60
60
60
C0
C0
C0
ENDCHAR
STARTCHAR 0073
ENCODING 115
SWIDTH 540 0
DWIDTH 9 0
BBX 8 9 1 0
BITMAP
3E
7F
63
78
3C
0E
C6
FE
7C
ENDCHAR
STARTCHAR 0074
ENCODING 116
SWIDTH 300 0
DWIDTH 5 0
BBX 5 12 1 0
BITMAP
10
30
30
F8
F8
60
60
60
C0
C0
F0
70
ENDCHAR
STARTCHAR 0075
ENCODING 117
SWIDTH 600 0
DWIDTH 10 0
BBX 9 9 1 0
BITMAP
6180
6180
6180
6180
6180
C300
C700
FF00
7B00
ENDCHAR
STARTCHAR 0076
ENCODING 118
SWIDTH 540 0
DWIDTH 9 0
BBX 8 9 2 0
BITMAP
C3
C6
C6
CC
DC
58
70
70
60
ENDCHAR
STARTCHAR 0077
ENCODING 119
SWIDTH 780 0
DWIDTH 13 0
BBX 13 9 1 0
BITMAP
C318
C730
C730
CF60
6B60
7BC0
7380
7380
6300
ENDCHAR
STARTCHAR 0078
ENCODING 120
SWIDTH 540 0
DWIDTH 9 0
BBX 10 9 0 0
BITMAP
38C0
1980
1F00
0E00
0C00
1E00
3600
6700
C300
ENDCHAR
STARTCHAR 0079
ENCODING 121
SWIDTH 540 0
DWIDTH 9 0
BBX 10 12 0 -3
BITMAP
30C0
3180
3180
3300
3300
3600
3600
1C00
1C00
1800
F800
F000
ENDCHAR
STARTCHAR 007A
ENCODING 122
SWIDTH 540 0
DWIDTH 9 0
BBX 8 9 1 0
BITMAP
7F
7F
06
0C
18
30
60
FE
FE
ENDCHAR
STARTCHAR 007B
ENCODING 123
SWIDTH 420 0
DWIDTH 7 0
BBX 7 15 1 -3
BITMAP
06
0E
18
18
18
30
E0
C0
60
60
60
C0
C0
F0
70
ENDCHAR
STARTCHAR 007C
ENCODING 124
SWIDTH 240 0
DWIDTH 4 0
BBX 2 16 1 -4
BITMAP
C0
C0
C0
C0
C0
C0
C0
C0
C0
C0
C0
C0
C0
C0
C0
C0
ENDCHAR
STARTCHAR 007D
ENCODING 125
SWIDTH 420 0
DWIDTH 7 0
BBX 7 15 -1 -3
BITMAP
1C
1E
06
06
0C
0C
06
0E
18
18
30
30
30
E0
C0
ENDCHAR
STARTCHAR 007E
ENCODING 126
SWIDTH 600 0
DWIDTH 10 0
BBX 9 3 1 5
BITMAP
7880
FF80
8F00
ENDCHAR
STARTCHAR 00A0
ENCODING 160
SWIDTH 300 0
DWIDTH 5 0
BBX 0 0 0 0
BITMAP
ENDCHAR
STARTCHAR 00A1
ENCODING 161
SWIDTH 360 0
DWIDTH 6 0
BBX 4 12 1 -3
BITMAP
30
30
00
20
20
60
60
60
60
C0
C0
C0
ENDCHAR
STARTCHAR 00A2
ENCODING 162
SWIDTH 540 0
DWIDTH 9 0
BBX 8 15 1 -3
BITMAP
01
02
02
1E
7F
65
C8
C8
D0
D3
7E
3C
20
40
40
ENDCHAR
STARTCHAR 00A3
ENCODING 163
SWIDTH 540 0
DWIDTH 9 0
BBX 10 12 0 0
BITMAP
0F00
1FC0
38C0
3000
3000
7C00
7C00
3000
3000
7800
FF00
C780
ENDCHAR
STARTCHAR 00A4
ENCODING 164
SWIDTH 540 0
DWIDTH 9 0
BBX 9 9 1 2
BITMAP
4200
FF80
FF80
6300
6300
6300
FF80
FF80
4200
ENDCHAR
STARTCHAR 00A5
ENCODING 165
SWIDTH 540 0
DWIDTH 9 0
BBX 10 12 0 0
BITMAP
30C0
19C0
1980
1B80
1B00
1B00
7F80
7F80
0C00
7F80
FF80
1800
ENDCHAR
STARTCHAR 00A6
ENCODING 166
SWIDTH 240 0
DWIDTH 4 0
BBX 2 16 1 -4
BITMAP
C0
C0
C0
C0
C0
C0
C0
00
00
C0
C0
C0
C0
C0
C0
C0
ENDCHAR
STARTCHAR 00A7
ENCODING 167
SWIDTH 540 0
DWIDTH 9 0
BBX 9 16 0 -4
BITMAP
1F00
3F80
3180
3000
3800
7E00
6700
6380
7180
3980
1F00
0600
C300
E300
7F00
3E00
ENDCHAR
STARTCHAR 00A8
ENCODING 168
SWIDTH 360 0
DWIDTH 6 0
BBX 6 2 1 10
BITMAP
CC
CC
ENDCHAR
STARTCHAR 00A9
ENCODING 169
SWIDTH 780 0
DWIDTH 13 0
BBX 12 12 1 0
BITMAP
0F00
30C0
4020
4F20
9890
9010
9010
9890
4F20
4020
30C0
0F00
ENDCHAR
STARTCHAR 00AA
ENCODING 170
SWIDTH 360 0
DWIDTH 6 0
BBX 6 6 1 6
BITMAP
78
0C
7C
DC
D8
F8
ENDCHAR
STARTCHAR 00AB
ENCODING 171
SWIDTH 540 0
DWIDTH 9 0
BBX 8 7 1 1
BITMAP
1B
36
6C
D8
D8
6C
6C
ENDCHAR
STARTCHAR 00AC
ENCODING 172
SWIDTH 600 0
DWIDTH 10 0
BBX 9 6 1 3
BITMAP
FF80
FF80
0180
0180
0180
0180
ENDCHAR
STARTCHAR 00AD
ENCODING 173
SWIDTH 360 0
DWIDTH 6 0
BBX 5 2 1 3
BITMAP
F8
F8
ENDCHAR
STARTCHAR 00AE
ENCODING 174
SWIDTH 780 0
DWIDTH 13 0
BBX 12 12 1 0
BITMAP
0F00
30C0
4020
5F20
9990
9990
9F10
9B10
59A0
4020
30C0
0F00
ENDCHAR
STARTCHAR 00AF
ENCODING 175
SWIDTH 540 0
DWIDTH 9 0
BBX 10 2 1 13
BITMAP
FFC0
FFC0
ENDCHAR
STARTCHAR 00B0
ENCODING 176
SWIDTH 360 0
DWIDTH 6 0
BBX 5 5 1 7
BITMAP
70
88
88
88
70
ENDCHAR
STARTCHAR 00B1
ENCODING 177
SWIDTH 600 0
DWIDTH 10 0
BBX 8 11 1 0
BITMAP
18
18
18
FF
FF
18
18
18
00
FF
FF
ENDCHAR
STARTCHAR 00B2
ENCODING 178
SWIDTH 360 0
DWIDTH 6 0
BBX 5 6 1 6
BITMAP
70
D8
18
30
60
F8
ENDCHAR
STARTCHAR 00B3
ENCODING 179
SWIDTH 360 0
DWIDTH 6 0
BBX 6 6 1 6
BITMAP
3C
4C
18
0C
CC
78
ENDCHAR
STARTCHAR 00B4
ENCODING 180
SWIDTH 360 0
DWIDTH 6 0
BBX 4 2 3 10
BITMAP
70
E0
ENDCHAR
STARTCHAR 00B5
ENCODING 181
SWIDTH 540 0
DWIDTH 9 0
BBX 9 12 0 -3
BITMAP
6180
6180
6180
6180
6180
6300
E300
FF00
DB00
C000
C000
C000
ENDCHAR
STARTCHAR 00B6
ENCODING 182
SWIDTH 540 0
DWIDTH 9 0
BBX 9 16 1 -4
BITMAP
3F80
7F80
FB00
FB00
FB00
FB00
7B00
1B00
1B00
1B00
1B00
1B00
1B00
1B00
1B00
1B00
ENDCHAR
STARTCHAR 00B7
ENCODING 183
SWIDTH 360 0
DWIDTH 6 0
BBX 2 2 2 5
BITMAP
C0
C0
ENDCHAR
STARTCHAR 00B8
ENCODING 184
SWIDTH 360 0
DWIDTH 6 0
BBX 5 3 0 -3
BITMAP
78
18
F0
ENDCHAR
STARTCHAR 00B9
ENCODING 185
SWIDTH 360 0
DWIDTH 6 0
BBX 4 6 2 6
BITMAP
30
F0
30
30
60
60
ENDCHAR
STARTCHAR 00BA
ENCODING 186
SWIDTH 360 0
DWIDTH 6 0
BBX 6 6 1 6
BITMAP
38
6C
CC
CC
D8
70
ENDCHAR
STARTCHAR 00BB
ENCODING 187
SWIDTH 480 0
DWIDTH 8 0
BBX 8 7 0 1
BITMAP
36
36
1B
1B
36
6C
D8
ENDCHAR
STARTCHAR 00BC
ENCODING 188
SWIDTH 840 0
DWIDTH 14 0
BBX 12 12 2 0
BITMAP
3010
F020
3040
3080
6100
6200
0230
0470
08B0
1130
23F0
4060
ENDCHAR
STARTCHAR 00BD
ENCODING 189
SWIDTH 840 0
DWIDTH 14 0
BBX 12 12 2 0
BITMAP
1020
F040
3080
3100
6200
6400
04E0
09B0
1030
2060
40C0
81F0
ENDCHAR
STARTCHAR 00BE
ENCODING 190
SWIDTH 840 0
DWIDTH 14 0
BBX 14 12 0 0
BITMAP
3C04
4C08
1810
0C20
CC40
7880
008C
011C
022C
044C
08FC
1018
ENDCHAR
STARTCHAR 00BF
ENCODING 191
SWIDTH 600 0
DWIDTH 10 0
BBX 8 12 1 -3
BITMAP
06
06
00
06
0C
18
30
60
C3
C3
FE
7C
ENDCHAR
STARTCHAR 00C0
ENCODING 192
SWIDTH 720 0
DWIDTH 12 0
BBX 11 15 0 0
BITMAP
0380
01C0
0000
0180
0380
0380
06C0
0EC0
0CC0
18C0
1FC0
3FC0
7060
6060
C060
ENDCHAR
STARTCHAR 00C1
ENCODING 193
SWIDTH 720 0
DWIDTH 12 0
BBX 11 15 0 0
BITMAP
00E0
01C0
0000
0180
0380
0380
06C0
0EC0
0CC0
18C0
1FC0
3FC0
7060
6060
C060
ENDCHAR
STARTCHAR 00C2
ENCODING 194
SWIDTH 720 0
DWIDTH 12 0
BBX 11 15 0 0
BITMAP
0180
02C0
0000
0180
0380
0380
06C0
0EC0
0CC0
18C0
1FC0
3FC0
7060
6060
C060
ENDCHAR
STARTCHAR 00C3
ENCODING 195
SWIDTH 720 0
DWIDTH 12 0
BBX 11 15 0 0
BITMAP
03A0
05C0
0000
0180
0380
0380
06C0
0EC0
0CC0
18C0
1FC0
3FC0
7060
6060
C060
ENDCHAR
STARTCHAR 00C4
ENCODING 196
SWIDTH 720 0
DWIDTH 12 0
BBX 11 15 0 0
BITMAP
0660
0660
0000
0180
0380
0380
06C0
0EC0
0CC0
18C0
1FC0
3FC0
7060
6060
C060
ENDCHAR
STARTCHAR 00C5
ENCODING 197
SWIDTH 720 0
DWIDTH 12 0
BBX 11 14 0 0
BITMAP
0380
0280
0380
0380
0380
06C0
0EC0
0CC0
18C0
1FC0
3FC0
7060
6060
C060
ENDCHAR
STARTCHAR 00C6
ENCODING 198
SWIDTH 1020 0
DWIDTH 17 0
BBX 17 12 0 0
BITMAP
01FF80
03FF80
036000
06C000
0CC000
0CFF00
18FF00
1FC000
3FC000
618000
61FF00
C1FF00
ENDCHAR
STARTCHAR 00C7
ENCODING 199
SWIDTH 720 0
DWIDTH 12 0
BBX 11 15 1 -3
BITMAP
0F80
3FC0
70E0
6060
E000
C000
C000
C000
C0C0
E180
7F80
3E00
3C00
0C00
7800
ENDCHAR
STARTCHAR 00C8
ENCODING 200
SWIDTH 660 0
DWIDTH 11 0
BBX 11 15 1 0
BITMAP
0700
0380
0000
3FE0
3FE0
3000
6000
6000
7F80
7F80
6000
6000
C000
FF80
FF80
ENDCHAR
STARTCHAR 00C9
ENCODING 201
SWIDTH 660 0
DWIDTH 11 0
BBX 11 15 1 0
BITMAP
0380
0700
0000
3FE0
3FE0
3000
6000
6000
7F80
7F80
6000
6000
C000
FF80
FF80
ENDCHAR
STARTCHAR 00CA
ENCODING 202
SWIDTH 660 0
DWIDTH 11 0
BBX 11 15 1 0
BITMAP
0300
0580
0000
3FE0
3FE0
3000
6000
6000
7F80
7F80
6000
6000
C000
FF80
FF80
ENDCHAR
STARTCHAR 00CB
ENCODING 203
SWIDTH 660 0
DWIDTH 11 0
BBX 11 15 1 0
BITMAP
0CC0
0CC0
0000
3FE0
3FE0
3000
6000
6000
7F80
7F80
6000
6000
C000
FF80
FF80
ENDCHAR
STARTCHAR 00CC
ENCODING 204
SWIDTH 300 0
DWIDTH 5 0
BBX 5 15 1 0
BITMAP
70
38
00
30
30
30
60
60
60
60
60
60
C0
C0
C0
ENDCHAR
STARTCHAR 00CD
ENCODING 205
SWIDTH 300 0
DWIDTH 5 0
BBX 6 15 1 0
BITMAP
1C
38
00
30
30
30
60
60
60
60
60
60
C0
C0
C0
ENDCHAR
STARTCHAR 00CE
ENCODING 206
SWIDTH 300 0
DWIDTH 5 0
BBX 5 15 1 0
BITMAP
30
58
00
30
30
30
60
60
60
60
60
60
C0
C0
C0
ENDCHAR
STARTCHAR 00CF
ENCODING 207
SWIDTH 300 0
DWIDTH 5 0
BBX 6 15 1 0
BITMAP
CC
CC
00
30
30
30
60
60
60
60
60
60
C0
C0
C0
ENDCHAR
STARTCHAR 00D0
ENCODING 208
SWIDTH 720 0
DWIDTH 12 0
BBX 11 12 1 0
BITMAP
3F80
3FC0
30E0
6060
6060
FC60
6060
60E0
60C0
C1C0
FF80
FE00
ENDCHAR
STARTCHAR 00D1
ENCODING 209
SWIDTH 720 0
DWIDTH 12 0
BBX 11 15 1 0
BITMAP
0740
0B80
0000
3060
3860
3860
7CC0
6CC0
6CC0
66C0
66C0
67C0
C380
C380
C180
ENDCHAR
STARTCHAR 00D2
ENCODING 210
SWIDTH 780 0
DWIDTH 13 0
BBX 12 15 1 0
BITMAP
0700
0380
0000
0F80
1FE0
3860
6030
6030
C030
C030
C070
C060
61C0
7F80
1F00
ENDCHAR
STARTCHAR 00D3
ENCODING 211
SWIDTH 780 0
DWIDTH 13 0
BBX 12 15 1 0
BITMAP
01C0
0380
0000
0F80
1FE0
3860
6030
6030
C030
C030
C070
C060
61C0
7F80
1F00
ENDCHAR
STARTCHAR 00D4
ENCODING 212
SWIDTH 780 0
DWIDTH 13 0
BBX 12 15 1 0
BITMAP
0300
0580
0000
0F80
1FE0
3860
6030
6030
C030
C030
C070
C060
61C0
7F80
1F00
ENDCHAR
STARTCHAR 00D5
ENCODING 213
SWIDTH 780 0
DWIDTH 13 0
BBX 12 15 1 0
BITMAP
0740
0B80
0000
0F80
1FE0
3860
6030
6030
C030
C030
C070
C060
61C0
7F80
1F00
ENDCHAR
STARTCHAR 00D6
ENCODING 214
SWIDTH 780 0
DWIDTH 13 0
BBX 12 15 1 0
BITMAP
0CC0
0CC0
0000
0F80
1FE0
3860
6030
6030
C030
C030
C070
C060
61C0
7F80
1F00
ENDCHAR
STARTCHAR 00D7
ENCODING 215
SWIDTH 600 0
DWIDTH 10 0
BBX 6 7 2 2
BITMAP
84
CC
78
30
78
CC
84
ENDCHAR
STARTCHAR 00D8
ENCODING 216
SWIDTH 780 0
DWIDTH 13 0
BBX 13 13 1 0
BITMAP
0010
0FF8
1FF0
38F0
61B0
E330
C630
CC30
D860
F060
71C0
FF80
DF00
ENDCHAR
STARTCHAR 00D9
ENCODING 217
SWIDTH 720 0
DWIDTH 12 0
BBX 10 15 2 0
BITMAP
1C00
0E00
0000
60C0
60C0
60C0
6180
C180
C180
C180
C180
C300
C300
FE00
7C00
ENDCHAR
STARTCHAR 00DA
ENCODING 218
SWIDTH 720 0
DWIDTH 12 0
BBX 10 15 2 0
BITMAP
0700
0E00
0000
60C0
60C0
60C0
6180
C180
C180
C180
C180
C300
C300
FE00
7C00
ENDCHAR
STARTCHAR 00DB
ENCODING 219
SWIDTH 720 0
DWIDTH 12 0
BBX 10 15 2 0
BITMAP
0600
0B00
0000
60C0
60C0
60C0
6180
C180
C180
C180
C180
C300
C300
FE00
7C00
ENDCHAR
STARTCHAR 00DC
ENCODING 220
SWIDTH 720 0
DWIDTH 12 0
BBX 10 15 2 0
BITMAP
1980
1980
0000
60C0
60C0
60C0
6180
C180
C180
C180
C180
C300
C300
FE00
7C00
ENDCHAR
STARTCHAR 00DD
ENCODING 221
SWIDTH 660 0
DWIDTH 11 0
BBX 11 15 2 0
BITMAP
0700
0E00
0000
C0E0
61C0
6380
7700
3600
3C00
1C00
1800
1800
3000
3000
3000
ENDCHAR
STARTCHAR 00DE
ENCODING 222
SWIDTH 660 0
DWIDTH 11 0
BBX 10 12 1 0
BITMAP
3000
3000
3F80
3FC0
60C0
60C0
60C0
61C0
7F80
FF00
C000
C000
ENDCHAR
STARTCHAR 00DF
ENCODING 223
SWIDTH 600 0
DWIDTH 10 0
BBX 9 12 1 0
BITMAP
0F00
3F80
3180
3180
6300
6600
6700
6300
6180
C980
DF80
CF00
ENDCHAR
STARTCHAR 00E0
ENCODING 224
SWIDTH 540 0
DWIDTH 9 0
BBX 8 12 1 0
BITMAP
1C
0E
00
1E
3F
63
03
7F
C6
C6
FE
76
ENDCHAR
STARTCHAR 00E1
ENCODING 225
SWIDTH 540 0
DWIDTH 9 0
BBX 8 12 1 0
BITMAP
07
0E
00
1E
3F
63
03
7F
C6
C6
FE
76
ENDCHAR
STARTCHAR 00E2
ENCODING 226
SWIDTH 540 0
DWIDTH 9 0
BBX 8 12 1 0
BITMAP
06
0B
00
1E
3F
63
03
7F
C6
C6
FE
76
ENDCHAR
STARTCHAR 00E3
ENCODING 227
SWIDTH 540 0
DWIDTH 9 0
BBX 9 12 1 0
BITMAP
0E80
1700
0000
1E00
3F00
6300
0300
7F00
C600
C600
FE00
7600
ENDCHAR
STARTCHAR 00E4
ENCODING 228
SWIDTH 540 0
DWIDTH 9 0
BBX 8 12 1 0
BITMAP
33
33
00
1E
3F
63
03
7F
C6
C6
FE
76
ENDCHAR
STARTCHAR 00E5
ENCODING 229
SWIDTH 540 0
DWIDTH 9 0
BBX 8 13 1 0
BITMAP
0E
0A
0E
00
1E
3F
63
03
7F
C6
C6
FE
76
ENDCHAR
STARTCHAR 00E6
ENCODING 230
SWIDTH 900 0
DWIDTH 15 0
BBX 14 9 1 0
BITMAP
1EF0
3FF8
630C
1FFC
7FFC
E300
C78C
FDF8
78F0
ENDCHAR
STARTCHAR 00E7
ENCODING 231
SWIDTH 540 0
DWIDTH 9 0
BBX 8 12 1 -3
BITMAP
1E
7F
63
C0
C0
C0
C3
7E
3C
78
18
F0
ENDCHAR
STARTCHAR 00E8
ENCODING 232
SWIDTH 540 0
DWIDTH 9 0
BBX 8 12 1 0
BITMAP
1C
0E
00
3E
7F
C3
FF
FF
C0
E3
7E
3C
ENDCHAR
STARTCHAR 00E9
ENCODING 233
SWIDTH 540 0
DWIDTH 9 0
BBX 8 12 1 0
BITMAP
0E
1C
00
3E
7F
C3
FF
FF
C0
E3
7E
3C
ENDCHAR
STARTCHAR 00EA
ENCODING 234
SWIDTH 540 0
DWIDTH 9 0
BBX 8 12 1 0
BITMAP
0C
16
00
3E
7F
C3
FF
FF
C0
E3
7E
3C
ENDCHAR
STARTCHAR 00EB
ENCODING 235
SWIDTH 540 0
DWIDTH 9 0
BBX 8 12 1 0
BITMAP
33
33
00
3E
7F
C3
FF
FF
C0
E3
7E
3C
ENDCHAR
STARTCHAR 00EC
ENCODING 236
SWIDTH 240 0
DWIDTH 4 0
BBX 4 12 1 0
BITMAP
E0
70
00
60
60
60
60
60
60
C0
C0
C0
ENDCHAR
STARTCHAR 00ED
ENCODING 237
SWIDTH 240 0
DWIDTH 4 0
BBX 5 12 1 0
BITMAP
38
70
00
60
60
60
60
60
60
C0
C0
C0
ENDCHAR
STARTCHAR 00EE
ENCODING 238
SWIDTH 240 0
DWIDTH 4 0
BBX 5 12 1 0
BITMAP
30
58
00
60
60
60
60
60
60
C0
C0
C0
ENDCHAR
STARTCHAR 00EF
ENCODING 239
SWIDTH 240 0
DWIDTH 4 0
BBX 6 12 1 0
BITMAP
CC
CC
00
60
60
60
60
60
60
C0
C0
C0
ENDCHAR
STARTCHAR 00F0
ENCODING 240
SWIDTH 600 0
DWIDTH 10 0
BBX 9 12 1 0
BITMAP
0780
0F00
0100
1D80
7F80
6380
E180
C180
C380
E300
7F00
3C00
ENDCHAR
STARTCHAR 00F1
ENCODING 241
SWIDTH 600 0
DWIDTH 10 0
BBX 9 12 1 0
BITMAP
0E80
1700
0000
6700
7F80
7180
6180
6180
6180
C300
C300
C300
ENDCHAR
STARTCHAR 00F2
ENCODING 242
SWIDTH 600 0
DWIDTH 10 0
BBX 9 12 1 0
BITMAP
1C00
0E00
0000
1E00
7F00
6380
C180
C180
C180
E300
7F00
3C00
ENDCHAR
STARTCHAR 00F3
ENCODING 243
SWIDTH 600 0
DWIDTH 10 0
BBX 9 12 1 0
BITMAP
0E00
1C00
0000
1E00
7F00
6380
C180
C180
C180
E300
7F00
3C00
ENDCHAR
STARTCHAR 00F4
ENCODING 244
SWIDTH 600 0
DWIDTH 10 0
BBX 9 12 1 0
BITMAP
0C00
1600
0000
1E00
7F00
6380
C180
C180
C180
E300
7F00
3C00
ENDCHAR
STARTCHAR 00F5
ENCODING 245
SWIDTH 600 0
DWIDTH 10 0
BBX 9 12 1 0
BITMAP
0E80
1700
0000
1E00
7F00
6380
C180
C180
C180
E300
7F00
3C00
ENDCHAR
STARTCHAR 00F6
ENCODING 246
SWIDTH 600 0
DWIDTH 10 0
BBX 9 12 1 0
BITMAP
3300
3300
0000
1E00
7F00
6380
C180
C180
C180
E300
7F00
3C00
ENDCHAR
STARTCHAR 00F7
ENCODING 247
SWIDTH 540 0
DWIDTH 9 0
BBX 8 8 1 2
BITMAP
18
18
00
FF
FF
00
18
18
ENDCHAR
STARTCHAR 00F8
ENCODING 248
SWIDTH 600 0
DWIDTH 10 0
BBX 10 10 1 0
BITMAP
0080
1FC0
7F80
6780
ED80
D980
F180
E300
FF00
FC00
ENDCHAR
STARTCHAR 00F9
ENCODING 249
SWIDTH 600 0
DWIDTH 10 0
BBX 9 12 1 0
BITMAP
1C00
0E00
0000
6180
6180
6180
6180
6180
C300
C700
FF00
7B00
ENDCHAR
STARTCHAR 00FA
ENCODING 250
SWIDTH 600 0
DWIDTH 10 0
BBX 9 12 1 0
BITMAP
0700
0E00
0000
6180
6180
6180
6180
6180
C300
C700
FF00
7B00
ENDCHAR
STARTCHAR 00FB
ENCODING 251
SWIDTH 600 0
DWIDTH 10 0
BBX 9 12 1 0
BITMAP
0600
0B00
0000
6180
6180
6180
6180
6180
C300
C700
FF00
7B00
ENDCHAR
STARTCHAR 00FC
ENCODING 252
SWIDTH 600 0
DWIDTH 10 0
BBX 9 12 1 0
BITMAP
3300
3300
0000
6180
6180
6180
6180
6180
C300
C700
FF00
7B00
ENDCHAR
STARTCHAR 00FD
ENCODING 253
SWIDTH 540 0
DWIDTH 9 0
BBX 10 15 0 -3
BITMAP
0380
0700
0000
30C0
3180
3180
3300
3300
3600
3600
1C00
1C00
1800
F800
F000
ENDCHAR
STARTCHAR 00FE
ENCODING 254
SWIDTH 600 0
DWIDTH 10 0
BBX 9 15 1 -3
BITMAP
3000
3000
3000
6F00
7F80
7180
6180
6180
6180
6300
FF00
DE00
C000
C000
C000
ENDCHAR
STARTCHAR 00FF
ENCODING 255
SWIDTH 540 0
DWIDTH 9 0
BBX 10 15 0 -3
BITMAP
1980
1980
0000
30C0
3180
3180
3300
3300
3600
3600
1C00
1C00
1800
F800
F000
ENDCHAR
STARTCHAR 0100
ENCODING 256
SWIDTH 720 0
DWIDTH 12 0
BBX 11 15 0 0
BITMAP
07C0
07C0
0000
0180
0380
0380
06C0
0EC0
0CC0
18C0
1FC0
3FC0
7060
6060
C060
ENDCHAR
STARTCHAR 0101
ENCODING 257
SWIDTH 540 0
DWIDTH 9 0
BBX 8 12 1 0
BITMAP
1F
1F
00
1E
3F
63
03
7F
C6
C6
FE
76
ENDCHAR
STARTCHAR 0102
ENCODING 258
SWIDTH 720 0
DWIDTH 12 0
BBX 11 15 0 0
BITMAP
0220
01C0
0000
0180
0380
0380
06C0
0EC0
0CC0
18C0
1FC0
3FC0
7060
6060
C060
ENDCHAR
STARTCHAR 0103
ENCODING 259
SWIDTH 540 0
DWIDTH 9 0
BBX 8 12 1 0
BITMAP
11
0E
00
1E
3F
63
03
7F
C6
C6
FE
76
ENDCHAR
STARTCHAR 0104
ENCODING 260
SWIDTH 720 0
DWIDTH 12 0
BBX 11 15 0 -3
BITMAP
0180
0380
0380
06C0
0EC0
0CC0
18C0
1FC0
3FC0
7060
6060
C060
0040
00C0
00E0
ENDCHAR
STARTCHAR 0105
ENCODING 261
SWIDTH 540 0
DWIDTH 9 0
BBX 8 12 1 -3
BITMAP
1E
3F
63
03
7F
C6
C6
FE
76
04
0C
0E
ENDCHAR
STARTCHAR 0106
ENCODING 262
SWIDTH 720 0
DWIDTH 12 0
BBX 11 15 1 0
BITMAP
0380
0700
0000
0F80
3FC0
70E0
6060
E000
C000
C000
C000
C0C0
E180
7F80
3E00
ENDCHAR
STARTCHAR 0107
ENCODING 263
SWIDTH 540 0
DWIDTH 9 0
BBX 8 12 1 0
BITMAP
0E
1C
00
1E
7F
63
C0
C0
C0
C3
7E
3C
ENDCHAR
STARTCHAR 0108
ENCODING 264
SWIDTH 720 0
DWIDTH 12 0
BBX 11 15 1 0
BITMAP
0300
0580
0000
0F80
3FC0
70E0
6060
E000
C000
C000
C000
C0C0
E180
7F80
3E00
ENDCHAR
STARTCHAR 0109
ENCODING 265
SWIDTH 540 0
DWIDTH 9 0
BBX 8 12 1 0
BITMAP
06
0B
00
1E
7F
63
C0
C0
C0
C3
7E
3C
ENDCHAR
STARTCHAR 010A
ENCODING 266
SWIDTH 720 0
DWIDTH 12 0
BBX 11 15 1 0
BITMAP
0300
0300
0000
0F80
3FC0
70E0
6060
E000
C000
C000
C000
C0C0
E180
7F80
3E00
ENDCHAR
STARTCHAR 010B
ENCODING 267
SWIDTH 540 0
DWIDTH 9 0
BBX 8 12 1 0
BITMAP
0C
0C
00
1E
7F
63
C0
C0
C0
C3
7E
3C
ENDCHAR
STARTCHAR 010C
ENCODING 268
SWIDTH 720 0
DWIDTH 12 0
BBX 11 15 1 0
BITMAP
0680
0300
0000
0F80
3FC0
70E0
6060
E000
C000
C000
C000
C0C0
E180
7F80
3E00
ENDCHAR
STARTCHAR 010D
ENCODING 269
SWIDTH 540 0
DWIDTH 9 0
BBX 8 12 1 0
BITMAP
1A
0C
00
1E
7F
63
C0
C0
C0
C3
7E
3C
ENDCHAR
STARTCHAR 010E
ENCODING 270
SWIDTH 720 0
DWIDTH 12 0
BBX 11 15 1 0
BITMAP
0D00
0600
0000
3F80
3FC0
30E0
6060
6060
6060
6060
6060
60C0
C1C0
FF80
FE00
ENDCHAR
STARTCHAR 010F
ENCODING 271
SWIDTH 780 0
DWIDTH 13 0
BBX 13 12 1 0
BITMAP
00D8
00D8
00C8
1D88
7F90
6380
C180
C180
C380
E700
FF00
7B00
ENDCHAR
STARTCHAR 0110
ENCODING 272
SWIDTH 720 0
DWIDTH 12 0
BBX 11 12 1 0
BITMAP
3F80
3FC0
30E0
6060
6060
FC60
6060
60E0
60C0
C1C0
FF80
FE00
ENDCHAR
STARTCHAR 0111
ENCODING 273
SWIDTH 600 0
DWIDTH 10 0
BBX 11 12 1 0
BITMAP
0180
07E0
0180
3F00
7F00
6700
C300
C300
C300
C600
FE00
7600
ENDCHAR
STARTCHAR 0112
ENCODING 274
SWIDTH 660 0
DWIDTH 11 0
BBX 11 15 1 0
BITMAP
0F80
0F80
0000
3FE0
3FE0
3000
6000
6000
7F80
7F80
6000
6000
C000
FF80
FF80
ENDCHAR
STARTCHAR 0113
ENCODING 275
SWIDTH 540 0
DWIDTH 9 0
BBX 8 12 1 0
BITMAP
1F
1F
00
3E
7F
C3
FF
FF
C0
E3
7E
3C
ENDCHAR
STARTCHAR 0114
ENCODING 276
SWIDTH 660 0
DWIDTH 11 0
BBX 11 15 1 0
BITMAP
0880
0700
0000
3FE0
3FE0
3000
6000
6000
7F80
7F80
6000
6000
C000
FF80
FF80
ENDCHAR
STARTCHAR 0115
ENCODING 277
SWIDTH 540 0
DWIDTH 9 0
BBX 8 12 1 0
BITMAP
22
1C
00
3E
7F
C3
FF
FF
C0
E3
7E
3C
ENDCHAR
STARTCHAR 0116
ENCODING 278
SWIDTH 660 0
DWIDTH 11 0
BBX 11 15 1 0
BITMAP
0300
0300
0000
3FE0
3FE0
3000
6000
6000
7F80
7F80
6000
6000
C000
FF80
FF80
ENDCHAR
STARTCHAR 0117
ENCODING 279
SWIDTH 540 0
DWIDTH 9 0
BBX 8 12 1 0
BITMAP
0C
0C
00
3E
7F
C3
FF
FF
C0
E3
7E
3C
ENDCHAR
STARTCHAR 0118
ENCODING 280
SWIDTH 660 0
DWIDTH 11 0
BBX 11 15 1 -3
BITMAP
3FE0
3FE0
3000
6000
6000
7F80
7F80
6000
6000
C000
FF80
FF80
0200
0600
0700
ENDCHAR
STARTCHAR 0119
ENCODING 281
SWIDTH 540 0
DWIDTH 9 0
BBX 8 12 1 -3
BITMAP
3E
7F
C3
FF
FF
C0
E3
7E
3C
10
30
38
ENDCHAR
STARTCHAR 011A
ENCODING 282
SWIDTH 660 0
DWIDTH 11 0
BBX 11 15 1 0
BITMAP
0680
0300
0000
3FE0
3FE0
3000
6000
6000
7F80
7F80
6000
6000
C000
FF80
FF80
ENDCHAR
STARTCHAR 011B
ENCODING 283
SWIDTH 540 0
DWIDTH 9 0
BBX 8 12 1 0
BITMAP
1A
0C
00
3E
7F
C3
FF
FF
C0
E3
7E
3C
ENDCHAR
STARTCHAR 011C
ENCODING 284
SWIDTH 780 0
DWIDTH 13 0
BBX 12 15 1 0
BITMAP
0180
02C0
0000
0FC0
1FE0
3870
6030
E000
C000
C1F0
C1F0
C030
E060
7FE0
1F80
ENDCHAR
STARTCHAR 011D
ENCODING 285
SWIDTH 540 0
DWIDTH 9 0
BBX 9 15 0 -3
BITMAP
0600
0B00
0000
1D80
3F80
3380
6180
6180
6180
6300
7F00
3B00
C300
FE00
7C00
ENDCHAR
STARTCHAR 011E
ENCODING 286
SWIDTH 780 0
DWIDTH 13 0
BBX 12 15 1 0
BITMAP
0440
0380
0000
0FC0
1FE0
3870
6030
E000
C000
C1F0
C1F0
C030
E060
7FE0
1F80
ENDCHAR
STARTCHAR 011F
ENCODING 287
SWIDTH 540 0
DWIDTH 9 0
BBX 9 15 0 -3
BITMAP
0880
0700
0000
1D80
3F80
3380
6180
6180
6180
6300
7F00
3B00
C300
FE00
7C00
ENDCHAR
STARTCHAR 0120
ENCODING 288
SWIDTH 780 0
DWIDTH 13 0
BBX 12 15 1 0
BITMAP
0300
0300
0000
0FC0
1FE0
3870
6030
E000
C000
C1F0
C1F0
C030
E060
7FE0
1F80
ENDCHAR
STARTCHAR 0121
ENCODING 289
SWIDTH 540 0
DWIDTH 9 0
BBX 9 15 0 -3
BITMAP
0600
0600
0000
1D80
3F80
3380
6180
6180
6180
6300
7F00
3B00
C300
FE00
7C00
ENDCHAR
STARTCHAR 0122
ENCODING 290
SWIDTH 780 0
DWIDTH 13 0
BBX 12 17 1 -5
BITMAP
0FC0
1FE0
3870
6030
E000
C000
C1F0
C1F0
C030
E060
7FE0
1F80
0000
0E00
0E00
0600
0C00
ENDCHAR
STARTCHAR 0123
ENCODING 291
SWIDTH 540 0
DWIDTH 9 0
BBX 9 17 0 -3
BITMAP
0300
0200
0700
0700
0000
1D80
3F80
3380
6180
6180
6380
6300
7F00
3B00
C300
FE00
7C00
ENDCHAR
STARTCHAR 0124
ENCODING 292
SWIDTH 720 0
DWIDTH 12 0
BBX 11 15 1 0
BITMAP
0300
0580
0000
3060
3060
3060
60C0
60C0
7FC0
7FC0
60C0
60C0
C180
C180
C180
ENDCHAR
STARTCHAR 0125
ENCODING 293
SWIDTH 600 0
DWIDTH 10 0
BBX 9 15 1 0
BITMAP
0600
0B00
0000
3000
3000
3000
6F00
7F80
7180
6180
6180
6180
C300
C300
C300
ENDCHAR
STARTCHAR 0126
ENCODING 294
SWIDTH 720 0
DWIDTH 12 0
BBX 12 12 1 0
BITMAP
3060
3060
FFF0
60C0
60C0
7FC0
7FC0
60C0
60C0
C180
C180
C180
ENDCHAR
STARTCHAR 0127
ENCODING 295
SWIDTH 600 0
DWIDTH 10 0
BBX 9 12 1 0
BITMAP
3000
7E00
3000
6700
7F80
7180
6180
6180
6180
C300
C300
C300
ENDCHAR
STARTCHAR 0128
ENCODING 296
SWIDTH 300 0
DWIDTH 5 0
BBX 6 15 1 0
BITMAP
74
B8
00
30
30
30
60
60
60
60
60
60
C0
C0
C0
ENDCHAR
STARTCHAR 0129
ENCODING 297
SWIDTH 240 0
DWIDTH 4 0
BBX 6 12 1 0
BITMAP
74
B8
00
60
60
60
60
60
60
C0
C0
C0
ENDCHAR
STARTCHAR 012A
ENCODING 298
SWIDTH 300 0
DWIDTH 5 0
BBX 6 15 1 0
BITMAP
7C
7C
00
30
30
30
60
60
60
60
60
60
C0
C0
C0
ENDCHAR
STARTCHAR 012B
ENCODING 299
SWIDTH 240 0
DWIDTH 4 0
BBX 5 12 1 0
BITMAP
F8
F8
00
60
60
60
60
60
60
C0
C0
C0
ENDCHAR
STARTCHAR 012C
ENCODING 300
SWIDTH 300 0
DWIDTH 5 0
BBX 6 15 1 0
BITMAP
44
38
00
30
30
30
60
60
60
60
60
60
C0
C0
C0
ENDCHAR
STARTCHAR 012D
ENCODING 301
SWIDTH 240 0
DWIDTH 4 0
BBX 5 12 1 0
BITMAP
88
70
00
60
60
60
60
60
60
C0
C0
C0
ENDCHAR
STARTCHAR 012E
ENCODING 302
SWIDTH 300 0
DWIDTH 5 0
BBX 5 15 0 -3
BITMAP
18
18
18
30
30
30
30
30
30
60
60
60
40
C0
E0
ENDCHAR
STARTCHAR 012F
ENCODING 303
SWIDTH 240 0
DWIDTH 4 0
BBX 5 15 0 -3
BITMAP
18
18
00
30
30
30
30
30
30
60
60
60
40
C0
E0
ENDCHAR
STARTCHAR 0130
ENCODING 304
SWIDTH 300 0
DWIDTH 5 0
BBX 5 15 1 0
BITMAP
18
18
00
30
30
30
60
60
60
60
60
60
C0
C0
C0
ENDCHAR
STARTCHAR 0131
ENCODING 305
SWIDTH 240 0
DWIDTH 4 0
BBX 3 9 1 0
BITMAP
60
60
60
60
60
60
C0
C0
C0
ENDCHAR
STARTCHAR 0132
ENCODING 306
SWIDTH 780 0
DWIDTH 13 0
BBX 13 12 1 0
BITMAP
3018
3018
3018
6030
6030
6030
6030
6030
7860
D860
DFE0
CF80
ENDCHAR
STARTCHAR 0133
ENCODING 307
SWIDTH 540 0
DWIDTH 9 0
BBX 9 15 1 -3
BITMAP
3180
3180
0000
6300
6300
6300
6300
6300
6300
C600
C600
C600
0600
3C00
3C00
ENDCHAR
STARTCHAR 0134
ENCODING 308
SWIDTH 540 0
DWIDTH 9 0
BBX 11 15 0 0
BITMAP
00C0
0160
0000
00C0
00C0
00C0
0180
0180
0180
0180
0180
C300
C300
FF00
7C00
ENDCHAR
STARTCHAR 0135
ENCODING 309
SWIDTH 240 0
DWIDTH 4 0
BBX 8 15 -2 -3
BITMAP
06
0B
00
0C
0C
0C
0C
0C
0C
18
18
18
18
F0
F0
ENDCHAR
STARTCHAR 0136
ENCODING 310
SWIDTH 720 0
DWIDTH 12 0
BBX 12 17 1 -5
BITMAP
3070
30E0
31C0
6380
6700
6F00
7B80
7180
6180
C1C0
C0C0
C0E0
0000
0E00
0E00
0600
0C00
ENDCHAR
STARTCHAR 0137
ENCODING 311
SWIDTH 480 0
DWIDTH 8 0
BBX 8 17 1 -5
BITMAP
30
30
30
63
66
6C
78
7C
6C
CC
C6
C6
00
38
38
18
30
ENDCHAR
STARTCHAR 0138
ENCODING 312
SWIDTH 540 0
DWIDTH 9 0
BBX 8 9 1 0
BITMAP
63
66
6C
78
7C
6C
CC
C6
C6
ENDCHAR
STARTCHAR 0139
ENCODING 313
SWIDTH 600 0
DWIDTH 10 0
BBX 8 15 1 0
BITMAP
0E
1C
00
30
30
30
60
60
60
60
60
60
C0
FF
FF
ENDCHAR
STARTCHAR 013A
ENCODING 314
SWIDTH 240 0
DWIDTH 4 0
BBX 6 15 1 0
BITMAP
1C
38
00
30
30
30
60
60
60
60
60
60
C0
C0
C0
ENDCHAR
STARTCHAR 013B
ENCODING 315
SWIDTH 600 0
DWIDTH 10 0
BBX 8 17 1 -5
BITMAP
30
30
30
60
60
60
60
60
60
C0
FF
FF
00
38
38
18
30
ENDCHAR
STARTCHAR 013C
ENCODING 316
SWIDTH 240 0
DWIDTH 4 0
BBX 5 17 0 -5
BITMAP
18
18
18
30
30
30
30
30
30
60
60
60
00
E0
E0
60
C0
ENDCHAR
STARTCHAR 013D
ENCODING 317
SWIDTH 600 0
DWIDTH 10 0
BBX 9 12 1 0
BITMAP
3180
3180
3080
6080
6100
6000
6000
6000
6000
C000
FF00
FF00
ENDCHAR
STARTCHAR 013E
ENCODING 318
SWIDTH 420 0
DWIDTH 7 0
BBX 7 12 1 0
BITMAP
36
36
32
64
60
60
60
60
60
C0
C0
C0
ENDCHAR
STARTCHAR 013F
ENCODING 319
SWIDTH 600 0
DWIDTH 10 0
BBX 8 12 1 0
BITMAP
30
30
30
60
60
66
66
60
60
C0
FF
FF
ENDCHAR
STARTCHAR 0140
ENCODING 320
SWIDTH 480 0
DWIDTH 8 0
BBX 7 12 1 0
BITMAP
30
30
30
60
60
66
66
60
60
C0
C0
C0
ENDCHAR
STARTCHAR 0141
ENCODING 321
SWIDTH 600 0
DWIDTH 10 0
BBX 9 12 0 0
BITMAP
1800
1800
1900
3700
3E00
7800
F000
B000
3000
6000
7F80
7F80
ENDCHAR
STARTCHAR 0142
ENCODING 322
SWIDTH 300 0
DWIDTH 5 0
BBX 6 12 0 0
BITMAP
18
18
18
30
34
3C
F0
B0
30
60
60
60
ENDCHAR
STARTCHAR 0143
ENCODING 323
SWIDTH 720 0
DWIDTH 12 0
BBX 11 15 1 0
BITMAP
01C0
0380
0000
3060
3860
3860
7CC0
6CC0
6CC0
66C0
66C0
67C0
C380
C380
C180
ENDCHAR
STARTCHAR 0144
ENCODING 324
SWIDTH 600 0
DWIDTH 10 0
BBX 9 12 1 0
BITMAP
0700
0E00
0000
6700
7F80
7180
6180
6180
6180
C300
C300
C300
ENDCHAR
STARTCHAR 0145
ENCODING 325
SWIDTH 720 0
DWIDTH 12 0
BBX 11 17 1 -5
BITMAP
3060
3860
3860
7CC0
6CC0
6CC0
66C0
66C0
67C0
C380
C380
C180
0000
1C00
1C00
0C00
1800
ENDCHAR
STARTCHAR 0146
ENCODING 326
SWIDTH 600 0
DWIDTH 10 0
BBX 9 14 1 -5
BITMAP
6700
7F80
7180
6180
6180
6180
C300
C300
C300
0000
3800
3800
1800
3000
ENDCHAR
STARTCHAR 0147
ENCODING 327
SWIDTH 720 0
DWIDTH 12 0
BBX 11 15 1 0
BITMAP
0680
0300
0000
3060
3860
3860
7CC0
6CC0
6CC0
66C0
66C0
67C0
C380
C380
C180
ENDCHAR
STARTCHAR 0148
ENCODING 328
SWIDTH 600 0
DWIDTH 10 0
BBX 9 12 1 0
BITMAP
1A00
0C00
0000
6700
7F80
7180
6180
6180
6180
C300
C300
C300
ENDCHAR
STARTCHAR 0149
ENCODING 329
SWIDTH 720 0
DWIDTH 12 0
BBX 11 12 1 0
BITMAP
C000
C000
4000
59C0
9FE0
1C60
1860
1860
1860
30C0
30C0
30C0
ENDCHAR
STARTCHAR 014A
ENCODING 330
SWIDTH 720 0
DWIDTH 12 0
BBX 11 12 1 0
BITMAP
33C0
3FE0
3860
7060
6060
6060
6060
60E0
60C0
C1C0
CF80
CF00
ENDCHAR
STARTCHAR 014B
ENCODING 331
SWIDTH 600 0
DWIDTH 10 0
BBX 9 12 1 -3
BITMAP
6700
6F80
7180
6180
6180
6180
C300
C300
C300
0300
0F00
1E00
ENDCHAR
STARTCHAR 014C
ENCODING 332
SWIDTH 780 0
DWIDTH 13 0
BBX 12 15 1 0
BITMAP
07C0
07C0
0000
0F80
1FE0
3860
6030
6030
C030
C030
C070
C060
61C0
7F80
1F00
ENDCHAR
STARTCHAR 014D
ENCODING 333
SWIDTH 600 0
DWIDTH 10 0
BBX 9 12 1 0
BITMAP
1F00
1F00
0000
1E00
7F00
6380
C180
C180
C180
E300
7F00
3C00
ENDCHAR
STARTCHAR 014E
ENCODING 334
SWIDTH 780 0
DWIDTH 13 0
BBX 12 15 1 0
BITMAP
0440
0380
0000
0F80
1FE0
3860
6030
6030
C030
C030
C070
C060
61C0
7F80
1F00
ENDCHAR
STARTCHAR 014F
ENCODING 335
SWIDTH 600 0
DWIDTH 10 0
BBX 9 12 1 0
BITMAP
1100
0E00
0000
1E00
7F00
6380
C180
C180
C180
E300
7F00
3C00
ENDCHAR
STARTCHAR 0150
ENCODING 336
SWIDTH 780 0
DWIDTH 13 0
BBX 12 15 1 0
BITMAP
0EE0
1DC0
0000
0F80
1FE0
3860
6030
6030
C030
C030
C070
C060
61C0
7F80
1F00
ENDCHAR
STARTCHAR 0151
ENCODING 337
SWIDTH 600 0
DWIDTH 10 0
BBX 10 12 1 0
BITMAP
1DC0
3B80
0000
1E00
7F00
6380
C180
C180
C180
E300
7F00
3C00
ENDCHAR
STARTCHAR 0152
ENCODING 338
SWIDTH 1020 0
DWIDTH 17 0
BBX 17 12 1 0
BITMAP
1EFF80
3FFF80
71C000
618000
E18000
C1FE00
C1FE00
C18000
C38000
E30000
7FFE00
3FFE00
ENDCHAR
STARTCHAR 0153
ENCODING 339
SWIDTH 960 0
DWIDTH 16 0
BBX 15 9 1 0
BITMAP
1E3C
7FFE
63C6
C1FE
C1FE
C180
E3C6
7FFC
3C78
ENDCHAR
STARTCHAR 0154
ENCODING 340
SWIDTH 720 0
DWIDTH 12 0
BBX 11 15 1 0
BITMAP
0380
0700
0000
3FC0
3FE0
3060
6060
60E0
7FC0
7F00
6300
6300
C180
C180
C1C0
ENDCHAR
STARTCHAR 0155
ENCODING 341
SWIDTH 420 0
DWIDTH 7 0
BBX 7 12 1 0
BITMAP
0E
1C
00
6E
7C
70
60
60
60
C0
C0
C0
ENDCHAR
STARTCHAR 0156
ENCODING 342
SWIDTH 720 0
DWIDTH 12 0
BBX 11 17 1 -5
BITMAP
3FC0
3FE0
3060
6060
60E0
7FC0
7F00
6300
6300
C180
C180
C1C0
0000
1C00
1C00
0C00
1800
ENDCHAR
STARTCHAR 0157
ENCODING 343
SWIDTH 420 0
DWIDTH 7 0
BBX 8 14 0 -5
BITMAP
37
3E
38
30
30
30
60
60
60
00
E0
E0
60
C0
ENDCHAR
STARTCHAR 0158
ENCODING 344
SWIDTH 720 0
DWIDTH 12 0
BBX 11 15 1 0
BITMAP
0D00
0600
0000
3FC0
3FE0
3060
6060
60E0
7FC0
7F00
6300
6300
C180
C180
C1C0
ENDCHAR
STARTCHAR 0159
ENCODING 345
SWIDTH 420 0
DWIDTH 7 0
BBX 7 12 1 0
BITMAP
34
18
00
6E
7C
70
60
60
60
C0
C0
C0
ENDCHAR
STARTCHAR 015A
ENCODING 346
SWIDTH 660 0
DWIDTH 11 0
BBX 10 15 1 0
BITMAP
0700
0E00
0000
1F00
3F80
61C0
60C0
7000
3E00
0F00
0380
C180
E180
7F00
3E00
ENDCHAR
STARTCHAR 015B
ENCODING 347
SWIDTH 540 0
DWIDTH 9 0
BBX 8 12 1 0
BITMAP
0E
1C
00
3E
7F
63
78
3C
0E
C6
FE
7C
ENDCHAR
STARTCHAR 015C
ENCODING 348
SWIDTH 660 0
DWIDTH 11 0
BBX 10 15 1 0
BITMAP
0300
0580
0000
1F00
3F80
61C0
60C0
7000
3E00
0F00
0380
C180
E180
7F00
3E00
ENDCHAR
STARTCHAR 015D
ENCODING 349
SWIDTH 540 0
DWIDTH 9 0
BBX 8 12 1 0
BITMAP
0C
16
00
3E
7F
63
78
3C
0E
C6
FE
7C
ENDCHAR
STARTCHAR 015E
ENCODING 350
SWIDTH 660 0
DWIDTH 11 0
BBX 10 15 1 -3
BITMAP
1F00
3F80
61C0
60C0
7000
3E00
0F00
0380
C180
E180
7F00
3E00
3C00
0C00
7800
ENDCHAR
STARTCHAR 015F
ENCODING 351
SWIDTH 540 0
DWIDTH 9 0
BBX 8 12 1 -3
BITMAP
3E
7F
63
78
3C
0E
C6
FE
7C
78
18
F0
ENDCHAR
STARTCHAR 0160
ENCODING 352
SWIDTH 660 0
DWIDTH 11 0
BBX 10 15 1 0
BITMAP
0D00
0600
0000
1F00
3F80
61C0
60C0
7000
3E00
0F00
0380
C180
E180
7F00
3E00
ENDCHAR
STARTCHAR 0161
ENCODING 353
SWIDTH 540 0
DWIDTH 9 0
BBX 8 12 1 0
BITMAP
1A
0C
00
3E
7F
63
78
3C
0E
C6
FE
7C
ENDCHAR
STARTCHAR 0162
ENCODING 354
SWIDTH 600 0
DWIDTH 10 0
BBX 9 15 2 -3
BITMAP
FF80
FF80
1800
1800
3800
3000
3000
3000
7000
6000
6000
6000
7800
1800
F000
ENDCHAR
STARTCHAR 0163
ENCODING 355
SWIDTH 300 0
DWIDTH 5 0
BBX 6 15 0 -3
BITMAP
08
18
18
7C
7C
30
30
30
60
60
78
38
78
18
F0
ENDCHAR
STARTCHAR 0164
ENCODING 356
SWIDTH 600 0
DWIDTH 10 0
BBX 9 15 2 0
BITMAP
1A00
0C00
0000
FF80
FF80
1800
1800
3800
3000
3000
3000
7000
6000
6000
6000
ENDCHAR
STARTCHAR 0165
ENCODING 357
SWIDTH 480 0
DWIDTH 8 0
BBX 7 12 2 0
BITMAP
06
26
62
F2
F4
60
60
C0
C0
C0
E0
E0
ENDCHAR
STARTCHAR 0166
ENCODING 358
SWIDTH 600 0
DWIDTH 10 0
BBX 9 12 2 0
BITMAP
FF80
FF80
1800
1800
3800
3000
FE00
3000
7000
6000
6000
6000
ENDCHAR
STARTCHAR 0167
ENCODING 359
SWIDTH 360 0
DWIDTH 6 0
BBX 7 12 0 0
BITMAP
08
18
18
7E
7E
30
30
F8
60
60
7C
3C
ENDCHAR
STARTCHAR 0168
ENCODING 360
SWIDTH 720 0
DWIDTH 12 0
BBX 10 15 2 0
BITMAP
0E80
1700
0000
60C0
60C0
60C0
6180
C180
C180
C180
C180
C300
C300
FE00
7C00
ENDCHAR
STARTCHAR 0169
ENCODING 361
SWIDTH 600 0
DWIDTH 10 0
BBX 9 12 1 0
BITMAP
0E80
1700
0000
6180
6180
6180
6180
6180
C300
C700
FF00
7B00
ENDCHAR
STARTCHAR 016A
ENCODING 362
SWIDTH 720 0
DWIDTH 12 0
BBX 10 15 2 0
BITMAP
1F00
1F00
0000
60C0
60C0
60C0
6180
C180
C180
C180
C180
C300
C300
FE00
7C00
ENDCHAR
STARTCHAR 016B
ENCODING 363
SWIDTH 600 0
DWIDTH 10 0
BBX 9 12 1 0
BITMAP
1F00
1F00
0000
6180
6180
6180
6180
6180
C300
C700
FF00
7B00
ENDCHAR
STARTCHAR 016C
ENCODING 364
SWIDTH 720 0
DWIDTH 12 0
BBX 10 15 2 0
BITMAP
1100
0E00
0000
60C0
60C0
60C0
6180
C180
C180
C180
C180
C300
C300
FE00
7C00
ENDCHAR
STARTCHAR 016D
ENCODING 365
SWIDTH 600 0
DWIDTH 10 0
BBX 9 12 1 0
BITMAP
1100
0E00
0000
6180
6180
6180
6180
6180
C300
C700
FF00
7B00
ENDCHAR
STARTCHAR 016E
ENCODING 366
SWIDTH 720 0
DWIDTH 12 0
BBX 10 15 2 0
BITMAP
0E00
0A00
0E00
60C0
60C0
60C0
6180
C180
C180
C180
C180
C300
C300
FE00
7C00
ENDCHAR
STARTCHAR 016F
ENCODING 367
SWIDTH 600 0
DWIDTH 10 0
BBX 9 13 1 0
BITMAP
0E00
0A00
0E00
0000
6180
6180
6180
6180
6180
C300
C700
FF00
7B00
ENDCHAR
STARTCHAR 0170
ENCODING 368
SWIDTH 720 0
DWIDTH 12 0
BBX 11 15 2 0
BITMAP
0EE0
1DC0
0000
60C0
60C0
60C0
6180
C180
C180
C180
C180
C300
C300
FE00
7C00
ENDCHAR
STARTCHAR 0171
ENCODING 369
SWIDTH 600 0
DWIDTH 10 0
BBX 10 12 1 0
BITMAP
1DC0
3B80
0000
6180
6180
6180
6180
6180
C300
C700
FF00
7B00
ENDCHAR
STARTCHAR 0172
ENCODING 370
SWIDTH 720 0
DWIDTH 12 0
BBX 10 15 2 -3
BITMAP
60C0
60C0
60C0
6180
C180
C180
C180
C180
C300
C300
FE00
7C00
0800
1800
1C00
ENDCHAR
STARTCHAR 0173
ENCODING 371
SWIDTH 600 0
DWIDTH 10 0
BBX 9 12 1 -3
BITMAP
6180
6180
6180
6180
6180
C300
C700
FF00
7B00
0200
0600
0700
ENDCHAR
STARTCHAR 0174
ENCODING 372
SWIDTH 960 0
DWIDTH 16 0
BBX 15 15 2 0
BITMAP
0180
02C0
0000
C386
C38C
C78C
C798
CD98
CDB0
D9B0
D9E0
F1E0
F1C0
E1C0
E180
ENDCHAR
STARTCHAR 0175
ENCODING 373
SWIDTH 780 0
DWIDTH 13 0
BBX 13 12 1 0
BITMAP
0180
02C0
0000
C318
C730
C730
CF60
6B60
7BC0
7380
7380
6300
ENDCHAR
STARTCHAR 0176
ENCODING 374
SWIDTH 660 0
DWIDTH 11 0
BBX 11 15 2 0
BITMAP
0600
0B00
0000
C0E0
61C0
6380
7700
3600
3C00
1C00
1800
1800
3000
3000
3000
ENDCHAR
STARTCHAR 0177
ENCODING 375
SWIDTH 540 0
DWIDTH 9 0
BBX 10 15 0 -3
BITMAP
0300
0580
0000
30C0
3180
3180
3300
3300
3600
3600
1C00
1C00
1800
F800
F000
ENDCHAR
STARTCHAR 0178
ENCODING 376
SWIDTH 660 0
DWIDTH 11 0
BBX 11 15 2 0
BITMAP
1980
1980
0000
C0E0
61C0
6380
7700
3600
3C00
1C00
1800
1800
3000
3000
3000
ENDCHAR
STARTCHAR 0179
ENCODING 377
SWIDTH 600 0
DWIDTH 10 0
BBX 11 15 0 0
BITMAP
0380
0700
0000
3FE0
3FE0
00C0
0180
0300
0600
0C00
1800
3000
6000
FFC0
FFC0
ENDCHAR
STARTCHAR 017A
ENCODING 378
SWIDTH 540 0
DWIDTH 9 0
BBX 8 12 1 0
BITMAP
0E
1C
00
7F
7F
06
0C
18
30
60
FE
FE
ENDCHAR
STARTCHAR 017B
ENCODING 379
SWIDTH 600 0
DWIDTH 10 0
BBX 11 15 0 0
BITMAP
0300
0300
0000
3FE0
3FE0
00C0
0180
0300
0600
0C00
1800
3000
6000
FFC0
FFC0
ENDCHAR
STARTCHAR 017C
ENCODING 380
SWIDTH 540 0
DWIDTH 9 0
BBX 8 12 1 0
BITMAP
0C
0C
00
7F
7F
06
0C
18
30
60
FE
FE
ENDCHAR
STARTCHAR 017D
ENCODING 381
SWIDTH 600 0
DWIDTH 10 0
BBX 11 15 0 0
BITMAP
0680
0300
0000
3FE0
3FE0
00C0
0180
0300
0600
0C00
1800
3000
6000
FFC0
FFC0
ENDCHAR
STARTCHAR 017E
ENCODING 382
SWIDTH 540 0
DWIDTH 9 0
BBX 8 12 1 0
BITMAP
1A
0C
00
7F
7F
06
0C
18
30
60
FE
FE
ENDCHAR
STARTCHAR 017F
ENCODING 383
SWIDTH 300 0
DWIDTH 5 0
BBX 7 12 1 0
BITMAP
1E
3E
30
60
60
60
60
60
60
C0
C0
C0
ENDCHAR
STARTCHAR 0180
ENCODING 384
SWIDTH 600 0
DWIDTH 10 0
BBX 9 12 1 0
BITMAP
3000
7E00
3000
3F00
3F80
7180
6180
6180
6180
6300
FF00
DE00
ENDCHAR
STARTCHAR 0181
ENCODING 385
SWIDTH 840 0
DWIDTH 14 0
BBX 12 12 1 0
BITMAP
7FE0
FFF0
D830
D830
1870
3FE0
3FE0
3030
3030
3070
7FE0
7FC0
ENDCHAR
STARTCHAR 0182
ENCODING 386
SWIDTH 720 0
DWIDTH 12 0
BBX 11 12 1 0
BITMAP
1FE0
3FE0
3000
3000
3000
7F80
7FE0
6060
6060
60E0
FFC0
FF80
ENDCHAR
STARTCHAR 0183
ENCODING 387
SWIDTH 600 0
DWIDTH 10 0
BBX 9 12 1 0
BITMAP
3F00
3F00
3000
3F00
3F80
7180
6180
6180
6180
6300
FF00
DE00
ENDCHAR
STARTCHAR 0184
ENCODING 388
SWIDTH 720 0
DWIDTH 12 0
BBX 11 12 1 0
BITMAP
0800
3000
7000
3000
3000
7F80
7FE0
6060
6060
60E0
FFC0
FF80
ENDCHAR
STARTCHAR 0185
ENCODING 389
SWIDTH 600 0
DWIDTH 10 0
BBX 9 12 1 0
BITMAP
1800
7000
3000
3F00
3F80
7180
6180
6180
6180
6300
FF00
DE00
ENDCHAR
STARTCHAR 0186
ENCODING 390
SWIDTH 720 0
DWIDTH 12 0
BBX 11 12 1 0
BITMAP
0F80
1FC0
38E0
7060
6060
0060
0060
00E0
C0C0
E1C0
7F80
3E00
ENDCHAR
STARTCHAR 0187
ENCODING 391
SWIDTH 720 0
DWIDTH 12 0
BBX 15 14 2 0
BITMAP
001E
003C
0FB0
3FE0
70E0
6060
E000
C000
C000
C0C0
C1C0
E380
7F00
3E00
ENDCHAR
STARTCHAR 0188
ENCODING 392
SWIDTH 540 0
DWIDTH 9 0
BBX 13 11 1 0
BITMAP
0078
00F0
1FC0
3F80
6180
E000
C000
C300
C700
7E00
3C00
ENDCHAR
STARTCHAR 0189
ENCODING 393
SWIDTH 720 0
DWIDTH 12 0
BBX 11 12 1 0
BITMAP
3F80
3FC0
30E0
6060
6060
FC60
6060
60E0
60C0
C1C0
FF80
FE00
ENDCHAR
STARTCHAR 018A
ENCODING 394
SWIDTH 780 0
DWIDTH 13 0
BBX 12 12 1 0
BITMAP
7FC0
FFE0
D870
D830
1830
3030
3030
3070
3060
30E0
7FC0
7F00
ENDCHAR
STARTCHAR 018B
ENCODING 395
SWIDTH 660 0
DWIDTH 11 0
BBX 10 12 1 0
BITMAP
1FC0
1FC0
00C0
0180
0180
3F80
7F80
E180
C300
C300
FF00
7F00
ENDCHAR
STARTCHAR 018C
ENCODING 396
SWIDTH 600 0
DWIDTH 10 0
BBX 9 12 1 0
BITMAP
1F80
1F80
0180
3D80
7F80
6700
C300
C300
C300
C700
FE00
7600
ENDCHAR
STARTCHAR 018D
ENCODING 397
SWIDTH 600 0
DWIDTH 10 0
BBX 10 12 0 -3
BITMAP
0F00
3F80
31C0
70C0
60C0
60C0
7180
3F80
1E00
0C00
FE00
FE00
ENDCHAR
STARTCHAR 018E
ENCODING 398
SWIDTH 660 0
DWIDTH 11 0
BBX 10 12 1 0
BITMAP
3FC0
3FC0
00C0
0180
0180
7F80
7F80
0180
0300
0300
FF00
FF00
ENDCHAR
STARTCHAR 018F
ENCODING 399
SWIDTH 780 0
DWIDTH 13 0
BBX 12 12 1 0
BITMAP
0F80
3FE0
7060
6030
0030
FFF0
FFF0
C070
C060
61E0
7FC0
1F00
ENDCHAR
STARTCHAR 0190
ENCODING 400
SWIDTH 660 0
DWIDTH 11 0
BBX 10 12 1 0
BITMAP
0F80
1FC0
38C0
30C0
3000
1C00
7C00
E000
C100
C380
FF00
7E00
ENDCHAR
STARTCHAR 0191
ENCODING 401
SWIDTH 600 0
DWIDTH 10 0
BBX 13 15 -2 -3
BITMAP
07F8
07F8
0600
0600
0600
0FF0
0FF0
0C00
0C00
1800
1800
1800
3800
F000
E000
ENDCHAR
STARTCHAR 0192
ENCODING 402
SWIDTH 540 0
DWIDTH 9 0
BBX 10 15 0 -3
BITMAP
03C0
0780
0600
1F80
1F00
0C00
0C00
0C00
0C00
1C00
1800
1800
1800
F800
F000
ENDCHAR
STARTCHAR 0193
ENCODING 403
SWIDTH 780 0
DWIDTH 13 0
BBX 15 14 2 0
BITMAP
001E
003C
0FB0
3FE0
70E0
6060
E000
C000
C7E0
C7E0
C0C0
E0C0
7FC0
3F00
ENDCHAR
STARTCHAR 0194
ENCODING 404
SWIDTH 660 0
DWIDTH 11 0
BBX 11 15 2 -3
BITMAP
C0E0
C0C0
6180
6300
6700
6600
3C00
3C00
3800
3000
7800
F800
D800
F800
F000
ENDCHAR
STARTCHAR 0195
ENCODING 405
SWIDTH 960 0
DWIDTH 16 0
BBX 15 12 1 0
BITMAP
3000
3000
3000
3706
3F86
718E
638C
630C
630C
6318
C3F8
C1F0
ENDCHAR
STARTCHAR 0196
ENCODING 406
SWIDTH 240 0
DWIDTH 4 0
BBX 4 12 1 0
BITMAP
30
30
30
60
60
60
60
60
60
C0
C0
C0
ENDCHAR
STARTCHAR 0197
ENCODING 407
SWIDTH 300 0
DWIDTH 5 0
BBX 4 12 1 0
BITMAP
30
30
30
30
30
60
F0
60
60
60
C0
C0
ENDCHAR
STARTCHAR 0198
ENCODING 408
SWIDTH 720 0
DWIDTH 12 0
BBX 11 12 1 0
BITMAP
1C60
3CC0
3180
3300
3600
7E00
7E00
7300
6180
6180
C0C0
C060
ENDCHAR
STARTCHAR 0199
ENCODING 409
SWIDTH 540 0
DWIDTH 9 0
BBX 8 12 1 0
BITMAP
1C
3C
30
33
36
6C
7C
7C
6C
6C
C6
C6
ENDCHAR
STARTCHAR 019A
ENCODING 410
SWIDTH 300 0
DWIDTH 5 0
BBX 4 12 1 0
BITMAP
30
30
30
30
30
60
F0
60
60
60
C0
C0
ENDCHAR
STARTCHAR 019B
ENCODING 411
SWIDTH 540 0
DWIDTH 9 0
BBX 9 12 0 0
BITMAP
0780
0F00
1E00
1700
0700
0F00
1F00
1B00
3300
3180
6180
E180
ENDCHAR
STARTCHAR 019C
ENCODING 412
SWIDTH 900 0
DWIDTH 15 0
BBX 13 12 2 0
BITMAP
3198
3198
3318
6318
6338
6330
6630
C630
C630
CE70
FFE0
7760
ENDCHAR
STARTCHAR 019D
ENCODING 413
SWIDTH 720 0
DWIDTH 12 0
BBX 15 15 -2 -3
BITMAP
0606
070C
070C
078C
078C
0DCC
0CD8
0CF8
0C78
1878
1838
1830
3800
F000
F000
ENDCHAR
STARTCHAR 019E
ENCODING 414
SWIDTH 600 0
DWIDTH 10 0
BBX 8 12 1 -3
BITMAP
37
3F
73
63
63
67
66
C6
C6
06
0C
0C
ENDCHAR
STARTCHAR 019F
ENCODING 415
SWIDTH 780 0
DWIDTH 13 0
BBX 12 12 1 0
BITMAP
0F80
1FE0
3860
6030
6030
FFF0
FFF0
C070
C060
E1C0
7F80
1F00
ENDCHAR
STARTCHAR 01A0
ENCODING 416
SWIDTH 840 0
DWIDTH 14 0
BBX 15 12 1 0
BITMAP
0F86
1FEE
3874
603C
6038
C030
C030
C070
C060
61C0
7F80
1F00
ENDCHAR
STARTCHAR 01A1
ENCODING 417
SWIDTH 660 0
DWIDTH 11 0
BBX 12 9 1 0
BITMAP
1E30
7F30
63A0
C1A0
C1C0
C180
E300
7F00
3C00
ENDCHAR
STARTCHAR 01A2
ENCODING 418
SWIDTH 900 0
DWIDTH 15 0
BBX 14 15 1 -3
BITMAP
0F8C
1FFC
38CC
618C
6198
C198
C198
C198
C330
E330
7F30
3E30
0030
0060
0060
ENDCHAR
STARTCHAR 01A3
ENCODING 419
SWIDTH 720 0
DWIDTH 12 0
BBX 11 12 1 -3
BITMAP
1EE0
3FC0
66C0
C6C0
C6C0
CD80
CD80
FD80
7D80
0180
0300
0300
ENDCHAR
STARTCHAR 01A4
ENCODING 420
SWIDTH 780 0
DWIDTH 13 0
BBX 13 12 1 0
BITMAP
3FF0
FFF8
D818
D818
1838
3FF0
3FC0
3000
3000
3000
6000
6000
ENDCHAR
STARTCHAR 01A5
ENCODING 421
SWIDTH 600 0
DWIDTH 10 0
BBX 10 15 0 -3
BITMAP
0E00
1E00
1800
1F80
3FC0
38C0
30C0
30C0
70C0
7180
7F80
6F00
6000
C000
C000
ENDCHAR
STARTCHAR 01A6
ENCODING 422
SWIDTH 660 0
DWIDTH 11 0
BBX 10 15 1 -3
BITMAP
3800
3F80
3FC0
30C0
30C0
60C0
6180
7F80
7E00
6C00
C600
C600
0300
0300
0180
ENDCHAR
STARTCHAR 01A7
ENCODING 423
SWIDTH 660 0
DWIDTH 11 0
BBX 11 12 1 0
BITMAP
07C0
1FE0
1860
3060
03C0
1F80
7E00
E000
C0C0
C180
FF80
7E00
ENDCHAR
STARTCHAR 01A8
ENCODING 424
SWIDTH 540 0
DWIDTH 9 0
BBX 8 9 1 0
BITMAP
1E
3F
63
0F
7E
E0
C6
FC
78
ENDCHAR
STARTCHAR 01A9
ENCODING 425
SWIDTH 600 0
DWIDTH 10 0
BBX 11 12 0 0
BITMAP
3FE0
3FE0
3000
1800
0C00
0600
0C00
1800
3000
6000
FF80
FF80
ENDCHAR
STARTCHAR 01AA
ENCODING 426
SWIDTH 360 0
DWIDTH 6 0
BBX 4 15 1 -3
BITMAP
F0
90
F0
30
30
30
60
60
60
60
60
C0
C0
E0
E0
ENDCHAR
STARTCHAR 01AB
ENCODING 427
SWIDTH 360 0
DWIDTH 6 0
BBX 6 15 1 -3
BITMAP
08
18
18
7C
7C
30
30
70
60
60
70
70
30
F0
E0
ENDCHAR
STARTCHAR 01AC
ENCODING 428
SWIDTH 600 0
DWIDTH 10 0
BBX 11 12 0 0
BITMAP
7FE0
FFE0
C600
C600
0600
0C00
0C00
0C00
0C00
0C00
1800
1800
ENDCHAR
STARTCHAR 01AD
ENCODING 429
SWIDTH 360 0
DWIDTH 6 0
BBX 6 12 2 0
BITMAP
3C
3C
30
F8
F8
60
60
E0
C0
C0
E0
E0
ENDCHAR
STARTCHAR 01AE
ENCODING 430
SWIDTH 600 0
DWIDTH 10 0
BBX 9 15 2 -3
BITMAP
FF80
FF80
1800
1800
1800
1800
3000
3000
3000
3000
3000
6000
6000
7000
7000
ENDCHAR
STARTCHAR 01AF
ENCODING 431
SWIDTH 840 0
DWIDTH 14 0
BBX 13 12 2 0
BITMAP
60D8
60D8
60D8
C190
C1E0
C180
C180
C180
C380
C300
FE00
7C00
ENDCHAR
STARTCHAR 01B0
ENCODING 432
SWIDTH 720 0
DWIDTH 12 0
BBX 11 9 1 0
BITMAP
6360
6360
6360
E340
C780
C600
CE00
FE00
7600
ENDCHAR
STARTCHAR 01B1
ENCODING 433
SWIDTH 780 0
DWIDTH 13 0
BBX 12 12 2 0
BITMAP
FDF0
FDF0
30C0
6060
6060
C060
C060
C0E0
C0C0
61C0
7F80
3E00
ENDCHAR
STARTCHAR 01B2
ENCODING 434
SWIDTH 720 0
DWIDTH 12 0
BBX 10 12 2 0
BITMAP
3380
63C0
60C0
60C0
60C0
E0C0
C180
C180
C300
C700
7E00
7C00
ENDCHAR
STARTCHAR 01B3
ENCODING 435
SWIDTH 720 0
DWIDTH 12 0
BBX 12 12 2 0
BITMAP
C0E0
60F0
6190
7300
3700
3E00
1C00
1800
1800
1800
3000
3000
ENDCHAR
STARTCHAR 01B4
ENCODING 436
SWIDTH 540 0
DWIDTH 9 0
BBX 13 15 0 -3
BITMAP
0038
0070
00E0
60C0
6180
3180
3300
3300
3600
3600
1C00
1C00
1800
F800
F000
ENDCHAR
STARTCHAR 01B5
ENCODING 437
SWIDTH 600 0
DWIDTH 10 0
BBX 9 12 1 0
BITMAP
7F80
7F80
0300
0700
0600
0C00
7F00
3000
7000
E000
FF00
FF00
ENDCHAR
STARTCHAR 01B6
ENCODING 438
SWIDTH 540 0
DWIDTH 9 0
BBX 8 9 1 0
BITMAP
7F
7F
06
0C
FE
30
60
FE
FE
ENDCHAR
STARTCHAR 01B7
ENCODING 439
SWIDTH 600 0
DWIDTH 10 0
BBX 10 15 0 -3
BITMAP
3FC0
3FC0
01C0
0380
0600
0E00
0F00
0380
0180
0180
0180
C380
E700
7E00
3C00
ENDCHAR
STARTCHAR 01B8
ENCODING 440
SWIDTH 600 0
DWIDTH 10 0
BBX 11 15 0 -3
BITMAP
3FE0
3FE0
1800
0C00
0600
1E00
3E00
7000
6000
C000
C000
C180
E300
7F00
3C00
ENDCHAR
STARTCHAR 01B9
ENCODING 441
SWIDTH 540 0
DWIDTH 9 0
BBX 9 12 0 -3
BITMAP
3F80
3F80
1800
0C00
3C00
7C00
6000
C000
C300
C600
FE00
7C00
ENDCHAR
STARTCHAR 01BA
ENCODING 442
SWIDTH 540 0
DWIDTH 9 0
BBX 9 12 0 -3
BITMAP
3F80
3F80
0700
0E00
0F00
0300
0700
7E00
E000
C300
FE00
7C00
ENDCHAR
STARTCHAR 01BB
ENCODING 443
SWIDTH 540 0
DWIDTH 9 0
BBX 8 12 1 0
BITMAP
1E
3F
73
63
03
06
7F
38
30
70
FE
FE
ENDCHAR
STARTCHAR 01BC
ENCODING 444
SWIDTH 540 0
DWIDTH 9 0
BBX 9 12 1 0
BITMAP
3F80
3F80
1800
1800
3E00
3F00
0300
0300
C300
C600
FE00
7800
ENDCHAR
STARTCHAR 01BD
ENCODING 445
SWIDTH 480 0
DWIDTH 8 0
BBX 8 9 0 0
BITMAP
7F
7F
18
3E
3F
03
C3
FE
7C
ENDCHAR
STARTCHAR 01BE
ENCODING 446
SWIDTH 540 0
DWIDTH 9 0
BBX 8 12 0 0
BITMAP
10
30
30
F8
F8
60
78
3E
07
C3
7F
3C
ENDCHAR
STARTCHAR 01BF
ENCODING 447
SWIDTH 660 0
DWIDTH 11 0
BBX 11 12 0 -3
BITMAP
3BC0
3FE0
3860
3060
3060
60C0
61C0
6380
6E00
7C00
E000
C000
ENDCHAR
STARTCHAR 01C0
ENCODING 448
SWIDTH 300 0
DWIDTH 5 0
BBX 2 12 1 0
BITMAP
C0
C0
C0
C0
C0
C0
C0
C0
C0
C0
C0
C0
ENDCHAR
STARTCHAR 01C1
ENCODING 449
SWIDTH 480 0
DWIDTH 8 0
BBX 6 12 1 0
BITMAP
CC
CC
CC
CC
CC
CC
CC
CC
CC
CC
CC
CC
ENDCHAR
STARTCHAR 01C2
ENCODING 450
SWIDTH 600 0
DWIDTH 10 0
BBX 8 12 1 0
BITMAP
18
18
18
FF
FF
18
18
FF
FF
18
18
18
ENDCHAR
STARTCHAR 01C3
ENCODING 451
SWIDTH 300 0
DWIDTH 5 0
BBX 4 12 1 0
BITMAP
30
30
30
60
60
60
60
40
40
00
C0
C0
ENDCHAR
STARTCHAR 01C4
ENCODING 452
SWIDTH 1380 0
DWIDTH 23 0
BBX 23 15 1 0
BITMAP
000068
000030
000000
3F83FE
3FC3FE
30E00C
606018
606030
606060
6060C0
606180
60C300
C1C600
FF8FFC
FE0FFC
ENDCHAR
STARTCHAR 01C5
ENCODING 453
SWIDTH 1260 0
DWIDTH 21 0
BBX 20 12 1 0
BITMAP
3F81A0
3FC0C0
30E000
6067F0
6067F0
606060
6060C0
606180
60C300
C1C600
FF8FE0
FE0FE0
ENDCHAR
STARTCHAR 01C6
ENCODING 454
SWIDTH 1140 0
DWIDTH 19 0
BBX 17 12 1 0
BITMAP
018D00
018600
018000
3B3F80
7F3F80
670300
C30600
C30C00
C71800
C63000
FE7F00
767F00
ENDCHAR
STARTCHAR 01C7
ENCODING 455
SWIDTH 1200 0
DWIDTH 20 0
BBX 20 12 1 0
BITMAP
300030
300030
300030
600060
600060
600060
600060
600060
6030C0
C030C0
FF3FC0
FF1F00
ENDCHAR
STARTCHAR 01C8
ENCODING 456
SWIDTH 900 0
DWIDTH 15 0
BBX 14 15 1 -3
BITMAP
300C
300C
3000
6018
6018
6018
6018
6018
6018
C030
FF30
FF30
0030
01E0
01E0
ENDCHAR
STARTCHAR 01C9
ENCODING 457
SWIDTH 540 0
DWIDTH 9 0
BBX 9 15 1 -3
BITMAP
3180
3180
3000
6300
6300
6300
6300
6300
6300
C600
C600
C600
0600
3C00
3C00
ENDCHAR
STARTCHAR 01CA
ENCODING 458
SWIDTH 1320 0
DWIDTH 22 0
BBX 22 12 1 0
BITMAP
30600C
38600C
38600C
7CC018
6CC018
6CC018
66C018
66C018
67CC30
C38C30
C38FF0
C187C0
ENDCHAR
STARTCHAR 01CB
ENCODING 459
SWIDTH 1020 0
DWIDTH 17 0
BBX 16 15 1 -3
BITMAP
3063
3863
3860
7CC6
6CC6
6CC6
66C6
66C6
67C6
C38C
C38C
C18C
000C
0078
0078
ENDCHAR
STARTCHAR 01CC
ENCODING 460
SWIDTH 900 0
DWIDTH 15 0
BBX 15 15 1 -3
BITMAP
0006
0006
0000
670C
7F8C
718C
618C
618C
618C
C318
C318
C318
0018
00F0
00F0
ENDCHAR
STARTCHAR 01CD
ENCODING 461
SWIDTH 720 0
DWIDTH 12 0
BBX 11 15 0 0
BITMAP
0340
0180
0000
0180
0380
0380
06C0
0EC0
0CC0
18C0
1FC0
3FC0
7060
6060
C060
ENDCHAR
STARTCHAR 01CE
ENCODING 462
SWIDTH 540 0
DWIDTH 9 0
BBX 8 12 1 0
BITMAP
1A
0C
00
1E
3F
63
03
7F
C6
C6
FE
76
ENDCHAR
STARTCHAR 01CF
ENCODING 463
SWIDTH 300 0
DWIDTH 5 0
BBX 5 15 1 0
BITMAP
68
30
00
30
30
30
60
60
60
60
60
60
C0
C0
C0
ENDCHAR
STARTCHAR 01D0
ENCODING 464
SWIDTH 240 0
DWIDTH 4 0
BBX 5 12 1 0
BITMAP
68
30
00
60
60
60
60
60
60
C0
C0
C0
ENDCHAR
STARTCHAR 01D1
ENCODING 465
SWIDTH 780 0
DWIDTH 13 0
BBX 12 15 1 0
BITMAP
0680
0300
0000
0F80
1FE0
3860
6030
6030
C030
C030
C070
C060
61C0
7F80
1F00
ENDCHAR
STARTCHAR 01D2
ENCODING 466
SWIDTH 600 0
DWIDTH 10 0
BBX 9 12 1 0
BITMAP
1A00
0C00
0000
1E00
7F00
6380
C180
C180
C180
E300
7F00
3C00
ENDCHAR
STARTCHAR 01D3
ENCODING 467
SWIDTH 720 0
DWIDTH 12 0
BBX 10 15 2 0
BITMAP
0D00
0600
0000
60C0
60C0
60C0
6180
C180
C180
C180
C180
C300
C300
FE00
7C00
ENDCHAR
STARTCHAR 01D4
ENCODING 468
SWIDTH 600 0
DWIDTH 10 0
BBX 9 12 1 0
BITMAP
0D00
0600
0000
6180
6180
6180
6180
6180
C300
C700
FF00
7B00
ENDCHAR
STARTCHAR 01D5
ENCODING 469
SWIDTH 720 0
DWIDTH 12 0
BBX 10 15 2 0
BITMAP
0F00
0000
0900
60C0
60C0
60C0
6180
C180
C180
C180
C180
C300
C300
FE00
7C00
ENDCHAR
STARTCHAR 01D6
ENCODING 470
SWIDTH 600 0
DWIDTH 10 0
BBX 9 15 1 0
BITMAP
1F00
1F00
0000
3300
3300
0000
6180
6180
6180
6180
6180
C300
C700
FF00
7B00
ENDCHAR
STARTCHAR 01D7
ENCODING 471
SWIDTH 720 0
DWIDTH 12 0
BBX 10 15 2 0
BITMAP
0200
0400
1100
60C0
60C0
60C0
6180
C180
C180
C180
C180
C300
C300
FE00
7C00
ENDCHAR
STARTCHAR 01D8
ENCODING 472
SWIDTH 600 0
DWIDTH 10 0
BBX 9 15 1 0
BITMAP
0700
0E00
0000
3300
3300
0000
6180
6180
6180
6180
6180
C300
C700
FF00
7B00
ENDCHAR
STARTCHAR 01D9
ENCODING 473
SWIDTH 720 0
DWIDTH 12 0
BBX 10 15 2 0
BITMAP
0A00
0400
1100
60C0
60C0
60C0
6180
C180
C180
C180
C180
C300
C300
FE00
7C00
ENDCHAR
STARTCHAR 01DA
ENCODING 474
SWIDTH 600 0
DWIDTH 10 0
BBX 9 15 1 0
BITMAP
0D00
0600
0000
3300
3300
0000
6180
6180
6180
6180
6180
C300
C700
FF00
7B00
ENDCHAR
STARTCHAR 01DB
ENCODING 475
SWIDTH 720 0
DWIDTH 12 0
BBX 10 15 2 0
BITMAP
0800
0400
1100
60C0
60C0
60C0
6180
C180
C180
C180
C180
C300
C300
FE00
7C00
ENDCHAR
STARTCHAR 01DC
ENCODING 476
SWIDTH 600 0
DWIDTH 10 0
BBX 9 15 1 0
BITMAP
1C00
0E00
0000
3300
3300
0000
6180
6180
6180
6180
6180
C300
C700
FF00
7B00
ENDCHAR
STARTCHAR 01DD
ENCODING 477
SWIDTH 540 0
DWIDTH 9 0
BBX 8 9 1 0
BITMAP
3C
7E
C7
03
FF
FF
C6
FE
7C
ENDCHAR
STARTCHAR 01DE
ENCODING 478
SWIDTH 720 0
DWIDTH 12 0
BBX 11 15 0 0
BITMAP
03C0
0000
0240
0180
0380
0380
06C0
0EC0
0CC0
18C0
1FC0
3FC0
7060
6060
C060
ENDCHAR
STARTCHAR 01DF
ENCODING 479
SWIDTH 540 0
DWIDTH 9 0
BBX 8 15 1 0
BITMAP
1F
1F
00
33
33
00
1E
3F
63
03
7F
C6
C6
FE
76
ENDCHAR
STARTCHAR 01E0
ENCODING 480
SWIDTH 720 0
DWIDTH 12 0
BBX 11 15 0 0
BITMAP
01E0
0000
0080
0180
0380
0380
06C0
0EC0
0CC0
18C0
1FC0
3FC0
7060
6060
C060
ENDCHAR
STARTCHAR 01E1
ENCODING 481
SWIDTH 540 0
DWIDTH 9 0
BBX 8 15 1 0
BITMAP
1F
1F
00
0C
0C
00
1E
3F
63
03
7F
C6
C6
FE
76
ENDCHAR
STARTCHAR 01E2
ENCODING 482
SWIDTH 1020 0
DWIDTH 17 0
BBX 17 15 0 0
BITMAP
003E00
003E00
000000
01FF80
03FF80
036000
06C000
0CC000
0CFF00
18FF00
1FC000
3FC000
618000
61FF00
C1FF00
ENDCHAR
STARTCHAR 01E3
ENCODING 483
SWIDTH 900 0
DWIDTH 15 0
BBX 14 12 1 0
BITMAP
07C0
07C0
0000
1EF0
3FF8
630C
1FFC
7FFC
E300
C78C
FDF8
78F0
ENDCHAR
STARTCHAR 01E4
ENCODING 484
SWIDTH 780 0
DWIDTH 13 0
BBX 10 12 2 0
BITMAP
1F00
3F80
70C0
6000
C000
C7C0
C7C0
C180
C7C0
E380
7F80
3E00
ENDCHAR
STARTCHAR 01E5
ENCODING 485
SWIDTH 600 0
DWIDTH 10 0
BBX 10 12 0 -3
BITMAP
1EC0
3FC0
71C0
6180
6180
7F80
3D80
0300
FF80
0300
FE00
7C00
ENDCHAR
STARTCHAR 01E6
ENCODING 486
SWIDTH 780 0
DWIDTH 13 0
BBX 12 15 1 0
BITMAP
0680
0300
0000
0FC0
1FE0
3870
6030
E000
C000
C1F0
C1F0
C030
E060
7FE0
1F80
ENDCHAR
STARTCHAR 01E7
ENCODING 487
SWIDTH 540 0
DWIDTH 9 0
BBX 9 15 0 -3
BITMAP
0D00
0600
0000
1D80
3F80
3380
6180
6180
6180
6300
7F00
3B00
C300
FE00
7C00
ENDCHAR
STARTCHAR 01E8
ENCODING 488
SWIDTH 720 0
DWIDTH 12 0
BBX 12 15 1 0
BITMAP
0680
0300
0000
3070
30E0
31C0
6380
6700
6F00
7B80
7180
6180
C1C0
C0C0
C0E0
ENDCHAR
STARTCHAR 01E9
ENCODING 489
SWIDTH 480 0
DWIDTH 8 0
BBX 8 15 1 0
BITMAP
1A
0C
00
30
30
30
63
66
6C
78
7C
6C
CC
C6
C6
ENDCHAR
STARTCHAR 01EA
ENCODING 490
SWIDTH 780 0
DWIDTH 13 0
BBX 12 15 1 -3
BITMAP
0F80
1FE0
3860
6030
6030
C030
C030
C070
C060
61C0
7F80
1F00
0400
0C00
0E00
ENDCHAR
STARTCHAR 01EB
ENCODING 491
SWIDTH 600 0
DWIDTH 10 0
BBX 9 12 1 -3
BITMAP
1E00
7F00
6380
C180
C180
C180
E300
7F00
3C00
0800
1800
1C00
ENDCHAR
STARTCHAR 01EC
ENCODING 492
SWIDTH 780 0
DWIDTH 13 0
BBX 12 18 1 -3
BITMAP
07C0
07C0
0000
0F80
1FE0
3860
6030
6030
C030
C030
C070
C060
61C0
7F80
1F00
0400
0C00
0E00
ENDCHAR
STARTCHAR 01ED
ENCODING 493
SWIDTH 600 0
DWIDTH 10 0
BBX 9 15 1 -3
BITMAP
1F00
1F00
0000
1E00
7F00
6380
C180
C180
C180
E300
7F00
3C00
0800
1800
1C00
ENDCHAR
STARTCHAR 01EE
ENCODING 494
SWIDTH 600 0
DWIDTH 10 0
BBX 10 18 0 -3
BITMAP
0680
0300
0000
3FC0
3FC0
01C0
0380
0600
0E00
0F00
0380
0180
0180
0180
C380
E700
7E00
3C00
ENDCHAR
STARTCHAR 01EF
ENCODING 495
SWIDTH 540 0
DWIDTH 9 0
BBX 9 15 0 -3
BITMAP
0D00
0600
0000
3F80
3F80
0300
0600
0E00
0F00
0300
0300
C300
C600
FE00
7800
ENDCHAR
STARTCHAR 01F0
ENCODING 496
SWIDTH 300 0
DWIDTH 5 0
BBX 7 15 -1 -3
BITMAP
1A
0C
00
0C
1C
18
18
18
18
30
30
30
30
E0
E0
ENDCHAR
STARTCHAR 01F1
ENCODING 497
SWIDTH 1380 0
DWIDTH 23 0
BBX 23 12 1 0
BITMAP
3F83FE
3FC3FE
30E00C
606018
606030
606060
6060C0
606180
60C300
C1C600
FF8FFC
FE0FFC
ENDCHAR
STARTCHAR 01F2
ENCODING 498
SWIDTH 1260 0
DWIDTH 21 0
BBX 20 12 1 0
BITMAP
3F8000
3FC000
30E000
6067F0
6067F0
606060
6060C0
606180
60C300
C1C600
FF8FE0
FE0FE0
ENDCHAR
STARTCHAR 01F3
ENCODING 499
SWIDTH 1140 0
DWIDTH 19 0
BBX 17 12 1 0
BITMAP
018000
018000
018000
3B3F80
7F3F80
670300
C30600
C30C00
C71800
C63000
FE7F00
767F00
ENDCHAR
STARTCHAR 01F4
ENCODING 500
SWIDTH 780 0
DWIDTH 13 0
BBX 12 15 1 0
BITMAP
01C0
0380
0000
0FC0
1FE0
3870
6030
E000
C000
C1F0
C1F0
C030
E060
7FE0
1F80
ENDCHAR
STARTCHAR 01F5
ENCODING 501
SWIDTH 540 0
DWIDTH 9 0
BBX 9 15 0 -3
BITMAP
0700
0E00
0000
1D80
3F80
3380
6180
6180
6180
6300
7F00
3B00
C300
FE00
7C00
ENDCHAR
STARTCHAR 01F6
ENCODING 502
SWIDTH 1080 0
DWIDTH 18 0
BBX 17 12 1 0
BITMAP
303000
303000
306000
306180
306180
7FE300
7FE300
60C300
60C300
60C600
C0FE00
C07C00
ENDCHAR
STARTCHAR 01F7
ENCODING 503
SWIDTH 720 0
DWIDTH 12 0
BBX 12 15 0 -3
BITMAP
1BE0
1FF0
1C30
1830
3030
3030
3060
30C0
61C0
6380
6700
6E00
7800
E000
C000
ENDCHAR
STARTCHAR 01F8
ENCODING 504
SWIDTH 720 0
DWIDTH 12 0
BBX 11 15 1 0
BITMAP
0E00
0700
0000
3060
3860
3860
7CC0
6CC0
6CC0
66C0
66C0
67C0
C380
C380
C180
ENDCHAR
STARTCHAR 01F9
ENCODING 505
SWIDTH 600 0
DWIDTH 10 0
BBX 9 12 1 0
BITMAP
1C00
0E00
0000
6700
7F80
7180
6180
6180
6180
C300
C300
C300
ENDCHAR
STARTCHAR 01FA
ENCODING 506
SWIDTH 720 0
DWIDTH 12 0
BBX 11 16 0 0
BITMAP
00E0
01C0
0380
0280
0380
0380
0380
06C0
0EC0
0CC0
18C0
1FC0
3FC0
7060
6060
C060
ENDCHAR
STARTCHAR 01FB
ENCODING 507
SWIDTH 540 0
DWIDTH 9 0
BBX 9 16 1 0
BITMAP
0380
0700
0000
0E00
0A00
0E00
0000
1E00
3F00
6300
0300
7F00
C600
C600
FE00
7600
ENDCHAR
STARTCHAR 01FC
ENCODING 508
SWIDTH 1020 0
DWIDTH 17 0
BBX 17 15 0 0
BITMAP
000E00
001C00
000000
01FF80
03FF80
036000
06C000
0CC000
0CFF00
18FF00
1FC000
3FC000
618000
61FF00
C1FF00
ENDCHAR
STARTCHAR 01FD
ENCODING 509
SWIDTH 900 0
DWIDTH 15 0
BBX 14 12 1 0
BITMAP
00E0
01C0
0000
1EF0
3FF8
630C
1FFC
7FFC
E300
C78C
FDF8
78F0
ENDCHAR
STARTCHAR 01FE
ENCODING 510
SWIDTH 780 0
DWIDTH 13 0
BBX 13 15 1 0
BITMAP
00E0
01C0
0010
0FF8
1FE0
38F0
61B0
E330
C630
CC30
D860
F060
71C0
FF80
DF00
ENDCHAR
STARTCHAR 01FF
ENCODING 511
SWIDTH 600 0
DWIDTH 10 0
BBX 10 12 1 0
BITMAP
0700
0E00
0080
1FC0
7F80
6780
ED80
D980
F180
E300
FF00
FC00
ENDCHAR
STARTCHAR 0200
ENCODING 512
SWIDTH 720 0
DWIDTH 12 0
BBX 11 15 0 0
BITMAP
06C0
0360
0000
0180
0380
0380
06C0
0EC0
0CC0
18C0
1FC0
3FC0
7060
6060
C060
ENDCHAR
STARTCHAR 0201
ENCODING 513
SWIDTH 540 0
DWIDTH 9 0
BBX 8 12 1 0
BITMAP
36
1B
00
1E
3F
63
03
7F
C6
C6
FE
76
ENDCHAR
STARTCHAR 0202
ENCODING 514
SWIDTH 720 0
DWIDTH 12 0
BBX 11 15 0 0
BITMAP
01C0
0220
0000
0180
0380
0380
06C0
0EC0
0CC0
18C0
1FC0
3FC0
7060
6060
C060
ENDCHAR
STARTCHAR 0203
ENCODING 515
SWIDTH 540 0
DWIDTH 9 0
BBX 8 12 1 0
BITMAP
0E
11
00
1E
3F
63
03
7F
C6
C6
FE
76
ENDCHAR
STARTCHAR 0204
ENCODING 516
SWIDTH 660 0
DWIDTH 11 0
BBX 11 15 1 0
BITMAP
1B00
0D80
0000
3FE0
3FE0
3000
6000
6000
7F80
7F80
6000
6000
C000
FF80
FF80
ENDCHAR
STARTCHAR 0205
ENCODING 517
SWIDTH 540 0
DWIDTH 9 0
BBX 8 12 1 0
BITMAP
6C
36
00
3E
7F
C3
FF
FF
C0
E3
7E
3C
ENDCHAR
STARTCHAR 0206
ENCODING 518
SWIDTH 660 0
DWIDTH 11 0
BBX 11 15 1 0
BITMAP
0700
0880
0000
3FE0
3FE0
3000
6000
6000
7F80
7F80
6000
6000
C000
FF80
FF80
ENDCHAR
STARTCHAR 0207
ENCODING 519
SWIDTH 540 0
DWIDTH 9 0
BBX 8 12 1 0
BITMAP
1C
22
00
3E
7F
C3
FF
FF
C0
E3
7E
3C
ENDCHAR
STARTCHAR 0208
ENCODING 520
SWIDTH 300 0
DWIDTH 5 0
BBX 6 15 1 0
BITMAP
D8
6C
00
30
30
30
60
60
60
60
60
60
C0
C0
C0
ENDCHAR
STARTCHAR 0209
ENCODING 521
SWIDTH 240 0
DWIDTH 4 0
BBX 6 12 1 0
BITMAP
D8
6C
00
60
60
60
60
60
60
C0
C0
C0
ENDCHAR
STARTCHAR 020A
ENCODING 522
SWIDTH 300 0
DWIDTH 5 0
BBX 6 15 1 0
BITMAP
38
44
00
30
30
30
60
60
60
60
60
60
C0
C0
C0
ENDCHAR
STARTCHAR 020B
ENCODING 523
SWIDTH 240 0
DWIDTH 4 0
BBX 5 12 1 0
BITMAP
70
88
00
60
60
60
60
60
60
C0
C0
C0
ENDCHAR
STARTCHAR 020C
ENCODING 524
SWIDTH 780 0
DWIDTH 13 0
BBX 12 15 1 0
BITMAP
0D80
06C0
0000
0F80
1FE0
3860
6030
6030
C030
C030
C070
C060
61C0
7F80
1F00
ENDCHAR
STARTCHAR 020D
ENCODING 525
SWIDTH 600 0
DWIDTH 10 0
BBX 9 12 1 0
BITMAP
3600
1B00
0000
1E00
7F00
6380
C180
C180
C180
E300
7F00
3C00
ENDCHAR
STARTCHAR 020E
ENCODING 526
SWIDTH 780 0
DWIDTH 13 0
BBX 12 15 1 0
BITMAP
0380
0440
0000
0F80
1FE0
3860
6030
6030
C030
C030
C070
C060
61C0
7F80
1F00
ENDCHAR
STARTCHAR 020F
ENCODING 527
SWIDTH 600 0
DWIDTH 10 0
BBX 9 12 1 0
BITMAP
0E00
1100
0000
1E00
7F00
6380
C180
C180
C180
E300
7F00
3C00
ENDCHAR
STARTCHAR 0210
ENCODING 528
SWIDTH 720 0
DWIDTH 12 0
BBX 11 15 1 0
BITMAP
1B00
0D80
0000
3FC0
3FE0
3060
6060
60E0
7FC0
7F00
6300
6300
C180
C180
C1C0
ENDCHAR
STARTCHAR 0211
ENCODING 529
SWIDTH 420 0
DWIDTH 7 0
BBX 7 12 1 0
BITMAP
6C
36
00
6E
7C
70
60
60
60
C0
C0
C0
ENDCHAR
STARTCHAR 0212
ENCODING 530
SWIDTH 720 0
DWIDTH 12 0
BBX 11 15 1 0
BITMAP
0E00
1100
0000
3FC0
3FE0
3060
6060
60E0
7FC0
7F00
6300
6300
C180
C180
C1C0
ENDCHAR
STARTCHAR 0213
ENCODING 531
SWIDTH 420 0
DWIDTH 7 0
BBX 7 12 1 0
BITMAP
1C
22
00
6E
7C
70
60
60
60
C0
C0
C0
ENDCHAR
STARTCHAR 0214
ENCODING 532
SWIDTH 720 0
DWIDTH 12 0
BBX 10 15 2 0
BITMAP
3600
1B00
0000
60C0
60C0
60C0
6180
C180
C180
C180
C180
C300
C300
FE00
7C00
ENDCHAR
STARTCHAR 0215
ENCODING 533
SWIDTH 600 0
DWIDTH 10 0
BBX 9 12 1 0
BITMAP
3600
1B00
0000
6180
6180
6180
6180
6180
C300
C700
FF00
7B00
ENDCHAR
STARTCHAR 0216
ENCODING 534
SWIDTH 720 0
DWIDTH 12 0
BBX 10 15 2 0
BITMAP
0E00
1100
0000
60C0
60C0
60C0
6180
C180
C180
C180
C180
C300
C300
FE00
7C00
ENDCHAR
STARTCHAR 0217
ENCODING 535
SWIDTH 600 0
DWIDTH 10 0
BBX 9 12 1 0
BITMAP
0E00
1100
0000
6180
6180
6180
6180
6180
C300
C700
FF00
7B00
ENDCHAR
STARTCHAR 0218
ENCODING 536
SWIDTH 660 0
DWIDTH 11 0
BBX 10 17 1 -5
BITMAP
1F00
3F80
61C0
60C0
7000
3E00
0F00
0380
C180
E180
7F00
3E00
0000
1C00
1C00
0C00
1800
ENDCHAR
STARTCHAR 0219
ENCODING 537
SWIDTH 540 0
DWIDTH 9 0
BBX 8 14 1 -5
BITMAP
3E
7F
63
78
3C
0E
C6
FE
7C
00
38
38
18
30
ENDCHAR
STARTCHAR 021A
ENCODING 538
SWIDTH 600 0
DWIDTH 10 0
BBX 9 17 2 -5
BITMAP
FF80
FF80
1800
3800
3000
3000
3000
3000
3000
7000
6000
6000
0000
6000
6000
2000
4000
ENDCHAR
STARTCHAR 021B
ENCODING 539
SWIDTH 360 0
DWIDTH 6 0
BBX 6 16 1 -4
BITMAP
10
30
FC
FC
60
60
60
C0
C0
F8
78
00
C0
C0
40
80
ENDCHAR
STARTCHAR 021C
ENCODING 540
SWIDTH 600 0
DWIDTH 10 0
BBX 10 15 0 -3
BITMAP
0F80
1FC0
38C0
10C0
00C0
0180
0380
1F80
7D80
6180
0380
0700
3E00
F800
C000
ENDCHAR
STARTCHAR 021D
ENCODING 541
SWIDTH 540 0
DWIDTH 9 0
BBX 10 12 -1 -3
BITMAP
0F80
3FC0
10C0
00C0
0780
7F80
7180
0180
0300
1F00
FC00
E000
ENDCHAR
STARTCHAR 021E
ENCODING 542
SWIDTH 720 0
DWIDTH 12 0
BBX 11 15 1 0
BITMAP
0680
0300
0000
3060
3060
3060
60C0
60C0
7FC0
7FC0
60C0
60C0
C180
C180
C180
ENDCHAR
STARTCHAR 021F
ENCODING 543
SWIDTH 600 0
DWIDTH 10 0
BBX 9 15 1 0
BITMAP
1A00
0C00
0000
3000
3000
3000
6F00
7F80
7180
6180
6180
6180
C300
C300
C300
ENDCHAR
STARTCHAR 0220
ENCODING 544
SWIDTH 720 0
DWIDTH 12 0
BBX 11 15 1 -3
BITMAP
37C0
3FE0
30E0
3060
70C0
60C0
60C0
60C0
61C0
E180
C180
C180
0180
0300
0300
ENDCHAR
STARTCHAR 0221
ENCODING 545
SWIDTH 780 0
DWIDTH 13 0
BBX 12 15 1 -3
BITMAP
0180
0180
0180
3D80
7F80
6700
C300
C300
C300
C700
FEE0
77F0
0730
0FF0
07C0
ENDCHAR
STARTCHAR 0222
ENCODING 546
SWIDTH 660 0
DWIDTH 11 0
BBX 11 12 1 0
BITMAP
01C0
0DE0
3C60
3060
30C0
1F80
3F80
60C0
C0C0
C1C0
FF80
7E00
ENDCHAR
STARTCHAR 0223
ENCODING 547
SWIDTH 660 0
DWIDTH 11 0
BBX 11 12 1 0
BITMAP
0C40
18E0
3060
30E0
1F80
3F80
60C0
C0C0
C0C0
C180
FF80
7E00
ENDCHAR
STARTCHAR 0224
ENCODING 548
SWIDTH 600 0
DWIDTH 10 0
BBX 10 14 1 -2
BITMAP
7FC0
7FC0
0180
0300
0700
0E00
1C00
3800
7000
6000
FF00
FF80
0180
0180
ENDCHAR
STARTCHAR 0225
ENCODING 549
SWIDTH 540 0
DWIDTH 9 0
BBX 8 11 1 -2
BITMAP
7F
7F
06
0C
18
30
60
FF
FF
03
03
ENDCHAR
STARTCHAR 0226
ENCODING 550
SWIDTH 720 0
DWIDTH 12 0
BBX 11 15 0 0
BITMAP
0180
0180
0000
0180
0380
0380
06C0
0EC0
0CC0
18C0
1FC0
3FC0
7060
6060
C060
ENDCHAR
STARTCHAR 0227
ENCODING 551
SWIDTH 540 0
DWIDTH 9 0
BBX 8 12 1 0
BITMAP
0C
0C
00
1E
3F
63
03
7F
C6
C6
FE
76
ENDCHAR
STARTCHAR 0228
ENCODING 552
SWIDTH 660 0
DWIDTH 11 0
BBX 11 15 1 -3
BITMAP
3FE0
3FE0
3000
6000
6000
7F80
7F80
6000
6000
C000
FF80
FF80
0E00
0600
1C00
ENDCHAR
STARTCHAR 0229
ENCODING 553
SWIDTH 540 0
DWIDTH 9 0
BBX 8 12 1 -3
BITMAP
3E
7F
C3
FF
FF
C0
E3
7E
3C
1C
0C
38
ENDCHAR
STARTCHAR 022A
ENCODING 554
SWIDTH 780 0
DWIDTH 13 0
BBX 12 16 1 0
BITMAP
0780
0000
0480
0000
0F80
1FE0
3860
6030
6030
C030
C030
C070
C060
61C0
7F80
1F00
ENDCHAR
STARTCHAR 022B
ENCODING 555
SWIDTH 600 0
DWIDTH 10 0
BBX 9 15 1 0
BITMAP
1F00
1F00
0000
3300
3300
0000
1E00
7F00
6380
C180
C180
C180
E300
7F00
3C00
ENDCHAR
STARTCHAR 022C
ENCODING 556
SWIDTH 780 0
DWIDTH 13 0
BBX 12 16 1 0
BITMAP
07C0
0340
0580
0000
0F80
1FE0
3860
6030
6030
C030
C030
C070
C060
61C0
7F80
1F00
ENDCHAR
STARTCHAR 022D
ENCODING 557
SWIDTH 600 0
DWIDTH 10 0
BBX 9 15 1 0
BITMAP
1F00
1F00
0000
1D00
2E00
0000
1E00
7F00
6380
C180
C180
C180
E300
7F00
3C00
ENDCHAR
STARTCHAR 022E
ENCODING 558
SWIDTH 780 0
DWIDTH 13 0
BBX 12 15 1 0
BITMAP
0300
0300
0000
0F80
1FE0
3860
6030
6030
C030
C030
C070
C060
61C0
7F80
1F00
ENDCHAR
STARTCHAR 022F
ENCODING 559
SWIDTH 600 0
DWIDTH 10 0
BBX 9 12 1 0
BITMAP
0C00
0C00
0000
1E00
7F00
6380
C180
C180
C180
E300
7F00
3C00
ENDCHAR
STARTCHAR 0230
ENCODING 560
SWIDTH 780 0
DWIDTH 13 0
BBX 12 15 1 0
BITMAP
03C0
0000
0100
0F80
1FE0
3860
6030
6030
C030
C030
C070
C060
61C0
7F80
1F00
ENDCHAR
STARTCHAR 0231
ENCODING 561
SWIDTH 600 0
DWIDTH 10 0
BBX 9 15 1 0
BITMAP
1F00
1F00
0000
0C00
0C00
0000
1E00
7F00
6380
C180
C180
C180
E300
7F00
3C00
ENDCHAR
STARTCHAR 0232
ENCODING 562
SWIDTH 660 0
DWIDTH 11 0
BBX 11 15 2 0
BITMAP
1F00
1F00
0000
C0E0
61C0
6380
7700
3600
3C00
1C00
1800
1800
3000
3000
3000
ENDCHAR
STARTCHAR 0233
ENCODING 563
SWIDTH 540 0
DWIDTH 9 0
BBX 10 15 0 -3
BITMAP
0F80
0F80
0000
30C0
3180
3180
3300
3300
3600
3600
1C00
1C00
1800
F800
F000
ENDCHAR
STARTCHAR 0234
ENCODING 564
SWIDTH 480 0
DWIDTH 8 0
BBX 8 15 0 -3
BITMAP
18
18
18
18
38
30
30
30
30
60
6E
7F
73
FF
7C
ENDCHAR
STARTCHAR 0235
ENCODING 565
SWIDTH 780 0
DWIDTH 13 0
BBX 12 12 1 -3
BITMAP
3700
3F00
7300
6300
6300
6300
6600
C6E0
C7F0
0730
0FF0
07C0
ENDCHAR
STARTCHAR 0236
ENCODING 566
SWIDTH 540 0
DWIDTH 9 0
BBX 8 12 1 0
BITMAP
08
10
30
F8
F8
30
60
6E
7F
73
FF
7C
ENDCHAR
STARTCHAR 0237
ENCODING 567
SWIDTH 300 0
DWIDTH 5 0
BBX 6 12 -1 -3
BITMAP
0C
1C
18
18
18
18
30
30
30
30
E0
E0
ENDCHAR
STARTCHAR 0238
ENCODING 568
SWIDTH 960 0
DWIDTH 16 0
BBX 14 12 2 0
BITMAP
0180
0180
0180
3DF8
7FFC
678C
C30C
C30C
C30C
C718
FFF8
76F0
ENDCHAR
STARTCHAR 0239
ENCODING 569
SWIDTH 960 0
DWIDTH 16 0
BBX 14 12 2 -3
BITMAP
3DB8
7FFC
678C
C30C
C30C
C70C
C718
FFF8
76F0
0600
0C00
0C00
ENDCHAR
STARTCHAR 023A
ENCODING 570
SWIDTH 720 0
DWIDTH 12 0
BBX 13 13 0 -1
BITMAP
0388
0390
06E0
0EC0
0CC0
1CC0
19C0
3FC0
3FC0
6460
6860
F060
2000
ENDCHAR
STARTCHAR 023B
ENCODING 571
SWIDTH 720 0
DWIDTH 12 0
BBX 11 12 2 0
BITMAP
0FA0
3FC0
70E0
61E0
E200
C400
C400
C800
F0C0
E180
7F80
BE00
ENDCHAR
STARTCHAR 023C
ENCODING 572
SWIDTH 540 0
DWIDTH 9 0
BBX 13 15 -1 -3
BITMAP
0008
0010
0020
07C0
0FC0
18E0
3900
3200
3400
38C0
1F80
1F00
2000
4000
8000
ENDCHAR
STARTCHAR 023D
ENCODING 573
SWIDTH 600 0
DWIDTH 10 0
BBX 8 12 1 0
BITMAP
18
30
30
30
30
70
FC
60
60
60
FF
FF
ENDCHAR
STARTCHAR 023E
ENCODING 574
SWIDTH 600 0
DWIDTH 10 0
BBX 13 14 -1 -1
BITMAP
0008
1FF0
1FF0
0340
0380
0300
0600
0600
0600
0E00
1600
2C00
4C00
8000
ENDCHAR
STARTCHAR 023F
ENCODING 575
SWIDTH 540 0
DWIDTH 9 0
BBX 8 12 1 -3
BITMAP
3E
7F
63
78
3E
1E
46
FE
7C
30
3C
1C
ENDCHAR
STARTCHAR 0240
ENCODING 576
SWIDTH 540 0
DWIDTH 9 0
BBX 8 12 1 -3
BITMAP
7F
7F
06
0C
18
30
60
F0
F8
39
1F
0E
ENDCHAR
STARTCHAR 0241
ENCODING 577
SWIDTH 660 0
DWIDTH 11 0
BBX 8 12 2 0
BITMAP
3E
7F
E7
43
03
03
06
06
3C
38
60
60
ENDCHAR
STARTCHAR 0242
ENCODING 578
SWIDTH 480 0
DWIDTH 8 0
BBX 7 9 1 0
BITMAP
3C
7E
C6
06
0C
18
38
30
30
ENDCHAR
STARTCHAR 0243
ENCODING 579
SWIDTH 720 0
DWIDTH 12 0
BBX 11 12 0 0
BITMAP
1FC0
1FE0
1860
1860
18E0
3FC0
3FC0
3060
FC60
30E0
7FC0
7F80
ENDCHAR
STARTCHAR 0244
ENCODING 580
SWIDTH 720 0
DWIDTH 12 0
BBX 11 12 1 0
BITMAP
3860
30C0
30C0
30C0
30C0
FFE0
6180
6180
6180
6300
7F00
1E00
ENDCHAR
STARTCHAR 0245
ENCODING 581
SWIDTH 660 0
DWIDTH 11 0
BBX 10 12 0 0
BITMAP
0300
0700
0700
0D80
0D80
1980
1980
3180
3180
60C0
60C0
C0C0
ENDCHAR
STARTCHAR 0246
ENCODING 582
SWIDTH 660 0
DWIDTH 11 0
BBX 11 14 1 -1
BITMAP
0020
3FE0
3FE0
3080
3100
3200
7F80
7F80
6400
6800
7000
FF80
FF80
4000
ENDCHAR
STARTCHAR 0247
ENCODING 583
SWIDTH 540 0
DWIDTH 9 0
BBX 10 15 0 -3
BITMAP
0040
0080
0080
0F00
3F00
3380
6580
7F80
6800
7380
3F00
3E00
4000
4000
8000
ENDCHAR
STARTCHAR 0248
ENCODING 584
SWIDTH 540 0
DWIDTH 9 0
BBX 9 12 0 0
BITMAP
0180
0180
0300
0300
0300
0300
0F80
0600
C600
C600
FC00
7800
ENDCHAR
STARTCHAR 0249
ENCODING 585
SWIDTH 300 0
DWIDTH 5 0
BBX 7 15 -1 -3
BITMAP
0E
0C
00
0C
0C
18
18
3C
18
38
30
30
30
E0
E0
ENDCHAR
STARTCHAR 024A
ENCODING 586
SWIDTH 780 0
DWIDTH 13 0
BBX 12 15 1 -3
BITMAP
07F0
1FF0
3860
6060
6060
C060
C0C0
C0C0
C0C0
E0C0
7F80
3F80
0180
01C0
01C0
ENDCHAR
STARTCHAR 024B
ENCODING 587
SWIDTH 600 0
DWIDTH 10 0
BBX 9 12 1 -3
BITMAP
3D80
7F80
6380
C380
C300
C300
C700
FF00
7E00
0600
0780
0380
ENDCHAR
STARTCHAR 024C
ENCODING 588
SWIDTH 720 0
DWIDTH 12 0
BBX 12 12 0 0
BITMAP
1FE0
1FF0
1830
1830
1870
FFE0
FFC0
3380
3180
30C0
60C0
6060
ENDCHAR
STARTCHAR 024D
ENCODING 589
SWIDTH 420 0
DWIDTH 7 0
BBX 8 9 0 0
BITMAP
1B
1E
38
30
FC
30
30
60
60
ENDCHAR
STARTCHAR 024E
ENCODING 590
SWIDTH 660 0
DWIDTH 11 0
BBX 11 12 2 0
BITMAP
C0E0
61C0
FFE0
7300
3600
3E00
1C00
1800
1800
1800
3000
3000
ENDCHAR
STARTCHAR 024F
ENCODING 591
SWIDTH 540 0
DWIDTH 9 0
BBX 11 12 0 -3
BITMAP
60E0
60C0
3180
7FE0
3300
3700
3600
1C00
1C00
1800
F000
E000
ENDCHAR
STARTCHAR 0250
ENCODING 592
SWIDTH 540 0
DWIDTH 9 0
BBX 8 9 1 0
BITMAP
6E
7F
63
67
FE
F8
C0
FE
7C
ENDCHAR
STARTCHAR 0251
ENCODING 593
SWIDTH 600 0
DWIDTH 10 0
BBX 9 9 1 0
BITMAP
3D80
7F00
6700
C300
C300
C700
C700
FE00
7600
ENDCHAR
STARTCHAR 0252
ENCODING 594
SWIDTH 600 0
DWIDTH 10 0
BBX 9 9 1 0
BITMAP
3700
3F80
3180
6180
6180
6180
7300
DF00
DE00
ENDCHAR
STARTCHAR 0253
ENCODING 595
SWIDTH 600 0
DWIDTH 10 0
BBX 9 12 1 0
BITMAP
1C00
3C00
3000
3F00
3F80
7180
6180
6180
6180
6300
FF00
DE00
ENDCHAR
STARTCHAR 0254
ENCODING 596
SWIDTH 540 0
DWIDTH 9 0
BBX 8 9 1 0
BITMAP
1E
3F
73
63
03
03
C6
FE
78
ENDCHAR
STARTCHAR 0255
ENCODING 597
SWIDTH 540 0
DWIDTH 9 0
BBX 10 10 0 -1
BITMAP
0F80
3FC0
38C0
7000
6F00
7F80
7180
7F00
DE00
8000
ENDCHAR
STARTCHAR 0256
ENCODING 598
SWIDTH 600 0
DWIDTH 10 0
BBX 10 15 1 -3
BITMAP
00C0
01C0
0180
3D80
7F80
6380
C300
C300
C300
C700
FF00
7E00
0600
0700
0700
ENDCHAR
STARTCHAR 0257
ENCODING 599
SWIDTH 600 0
DWIDTH 10 0
BBX 11 12 1 0
BITMAP
00E0
01E0
0180
3D80
7F80
6700
C300
C300
C300
C700
FE00
7600
ENDCHAR
STARTCHAR 0258
ENCODING 600
SWIDTH 540 0
DWIDTH 9 0
BBX 8 9 1 0
BITMAP
1E
3F
63
C3
FF
03
C6
FC
78
ENDCHAR
STARTCHAR 0259
ENCODING 601
SWIDTH 540 0
DWIDTH 9 0
BBX 8 9 1 0
BITMAP
3C
7E
C7
03
FF
FF
C6
FE
7C
ENDCHAR
STARTCHAR 025A
ENCODING 602
SWIDTH 780 0
DWIDTH 13 0
BBX 12 9 1 0
BITMAP
3C00
7E00
C3C0
3FC0
FBF0
C370
C700
FE00
7C00
ENDCHAR
STARTCHAR 025B
ENCODING 603
SWIDTH 480 0
DWIDTH 8 0
BBX 8 9 1 0
BITMAP
3E
7F
60
38
78
C0
C4
FE
7C
ENDCHAR
STARTCHAR 025C
ENCODING 604
SWIDTH 540 0
DWIDTH 9 0
BBX 8 9 1 0
BITMAP
1E
3F
63
0C
0F
03
C3
7E
3C
ENDCHAR
STARTCHAR 025D
ENCODING 605
SWIDTH 660 0
DWIDTH 11 0
BBX 13 9 0 0
BITMAP
1E00
3FC0
63C0
03F8
1EF8
1E00
C300
7F00
3E00
ENDCHAR
STARTCHAR 025E
ENCODING 606
SWIDTH 600 0
DWIDTH 10 0
BBX 8 9 1 0
BITMAP
1E
3F
63
EE
CE
C3
C3
FF
3C
ENDCHAR
STARTCHAR 025F
ENCODING 607
SWIDTH 360 0
DWIDTH 6 0
BBX 6 12 -1 -3
BITMAP
0C
0C
18
18
18
18
18
78
78
30
F0
E0
ENDCHAR
STARTCHAR 0260
ENCODING 608
SWIDTH 600 0
DWIDTH 10 0
BBX 12 15 0 -3
BITMAP
0070
00F0
00C0
1EC0
3EC0
3180
6180
6180
6180
6380
7F00
3B00
0700
FE00
7C00
ENDCHAR
STARTCHAR 0261
ENCODING 609
SWIDTH 540 0
DWIDTH 9 0
BBX 9 12 0 -3
BITMAP
1D80
3F80
3380
6180
6180
6180
6300
7F00
3B00
C300
FE00
7C00
ENDCHAR
STARTCHAR 0262
ENCODING 610
SWIDTH 600 0
DWIDTH 10 0
BBX 9 9 1 0
BITMAP
1F00
3F80
7180
C000
CF80
CF00
C300
FF00
3C00
ENDCHAR
STARTCHAR 0263
ENCODING 611
SWIDTH 540 0
DWIDTH 9 0
BBX 9 12 1 -3
BITMAP
C380
6300
6600
6C00
3C00
3800
3000
7800
F800
D800
F800
F000
ENDCHAR
STARTCHAR 0264
ENCODING 612
SWIDTH 600 0
DWIDTH 10 0
BBX 10 9 1 0
BITMAP
6380
F3C0
3E80
1C00
3800
7C00
6C00
FC00
7800
ENDCHAR
STARTCHAR 0265
ENCODING 613
SWIDTH 600 0
DWIDTH 10 0
BBX 8 12 1 -3
BITMAP
63
63
63
63
C3
C6
C6
FE
76
06
0C
0C
ENDCHAR
STARTCHAR 0266
ENCODING 614
SWIDTH 600 0
DWIDTH 10 0
BBX 8 12 1 0
BITMAP
1C
3C
30
37
3F
73
63
63
63
63
C6
C6
ENDCHAR
STARTCHAR 0267
ENCODING 615
SWIDTH 600 0
DWIDTH 10 0
BBX 8 15 1 -3
BITMAP
1C
3C
30
37
3F
73
63
63
63
63
C6
C6
06
3C
3C
ENDCHAR
STARTCHAR 0268
ENCODING 616
SWIDTH 300 0
DWIDTH 5 0
BBX 4 12 1 0
BITMAP
30
30
00
30
30
60
60
F0
60
60
C0
C0
ENDCHAR
STARTCHAR 0269
ENCODING 617
SWIDTH 300 0
DWIDTH 5 0
BBX 3 9 1 0
BITMAP
60
60
60
60
C0
C0
C0
E0
E0
ENDCHAR
STARTCHAR 026A
ENCODING 618
SWIDTH 420 0
DWIDTH 7 0
BBX 7 9 0 0
BITMAP
7E
7E
18
18
30
30
30
FC
FC
ENDCHAR
STARTCHAR 026B
ENCODING 619
SWIDTH 300 0
DWIDTH 5 0
BBX 6 12 0 0
BITMAP
18
18
18
18
18
74
B8
30
30
30
60
60
ENDCHAR
STARTCHAR 026C
ENCODING 620
SWIDTH 300 0
DWIDTH 5 0
BBX 6 12 0 0
BITMAP
1C
18
18
18
18
70
B0
F8
30
30
60
60
ENDCHAR
STARTCHAR 026D
ENCODING 621
SWIDTH 300 0
DWIDTH 5 0
BBX 5 15 0 -3
BITMAP
18
38
30
30
30
30
60
60
60
60
E0
C0
C0
E0
E0
ENDCHAR
STARTCHAR 026E
ENCODING 622
SWIDTH 600 0
DWIDTH 10 0
BBX 9 15 1 -3
BITMAP
3000
3000
3000
3F80
3F80
6300
6600
6E00
6F00
6300
C300
C300
0600
FE00
7800
ENDCHAR
STARTCHAR 026F
ENCODING 623
SWIDTH 900 0
DWIDTH 15 0
BBX 14 9 2 0
BITMAP
630C
6318
6318
6618
C618
C618
CE38
FFF0
73B0
ENDCHAR
STARTCHAR 0270
ENCODING 624
SWIDTH 900 0
DWIDTH 15 0
BBX 13 12 2 -3
BITMAP
6318
6318
6318
6618
C618
C630
CE30
FFF0
73B0
0030
0060
0060
ENDCHAR
STARTCHAR 0271
ENCODING 625
SWIDTH 900 0
DWIDTH 15 0
BBX 13 12 1 -3
BITMAP
3778
3FF8
7398
6318
6318
6318
6330
C630
C630
0070
01E0
01E0
ENDCHAR
STARTCHAR 0272
ENCODING 626
SWIDTH 600 0
DWIDTH 10 0
BBX 10 12 -1 -3
BITMAP
0DC0
0FC0
1CC0
18C0
18C0
18C0
18C0
3180
3180
3000
F000
E000
ENDCHAR
STARTCHAR 0273
ENCODING 627
SWIDTH 600 0
DWIDTH 10 0
BBX 9 12 1 -3
BITMAP
3700
3F80
7180
6180
6300
6300
6300
C300
C600
0600
0700
0700
ENDCHAR
STARTCHAR 0274
ENCODING 628
SWIDTH 660 0
DWIDTH 11 0
BBX 10 9 1 0
BITMAP
30C0
38C0
78C0
7D80
6D80
6780
6780
C380
C300
ENDCHAR
STARTCHAR 0275
ENCODING 629
SWIDTH 600 0
DWIDTH 10 0
BBX 9 9 1 0
BITMAP
1E00
7F00
6180
FF80
FF80
C380
E300
7F00
3C00
ENDCHAR
STARTCHAR 0276
ENCODING 630
SWIDTH 840 0
DWIDTH 14 0
BBX 13 9 1 0
BITMAP
1EF8
3FF8
6180
E1F0
C1F0
C380
C780
FFF0
3FF0
ENDCHAR
STARTCHAR 0277
ENCODING 631
SWIDTH 840 0
DWIDTH 14 0
BBX 13 9 1 0
BITMAP
0FC0
3FF0
7038
E018
C318
C618
C730
FFF0
79E0
ENDCHAR
STARTCHAR 0278
ENCODING 632
SWIDTH 780 0
DWIDTH 13 0
BBX 11 15 1 -3
BITMAP
0300
0300
0300
1FC0
3FE0
7660
E660
C660
CE60
CCC0
FF80
3F00
0C00
1800
1800
ENDCHAR
STARTCHAR 0279
ENCODING 633
SWIDTH 420 0
DWIDTH 7 0
BBX 8 9 -1 0
BITMAP
03
06
06
06
06
0E
1E
7C
EC
ENDCHAR
STARTCHAR 027A
ENCODING 634
SWIDTH 420 0
DWIDTH 7 0
BBX 8 12 -1 0
BITMAP
03
03
03
03
07
06
06
06
0E
1E
7C
EC
ENDCHAR
STARTCHAR 027B
ENCODING 635
SWIDTH 420 0
DWIDTH 7 0
BBX 7 12 0 -3
BITMAP
06
06
06
0C
0C
0C
1C
7C
F8
18
1C
1C
ENDCHAR
STARTCHAR 027C
ENCODING 636
SWIDTH 420 0
DWIDTH 7 0
BBX 8 12 0 -3
BITMAP
37
3E
38
30
30
60
60
60
60
60
C0
C0
ENDCHAR
STARTCHAR 027D
ENCODING 637
SWIDTH 420 0
DWIDTH 7 0
BBX 8 12 0 -3
BITMAP
37
3E
38
70
60
60
60
E0
C0
C0
E0
E0
ENDCHAR
STARTCHAR 027E
ENCODING 638
SWIDTH 420 0
DWIDTH 7 0
BBX 7 9 1 0
BITMAP
1E
3C
30
60
60
60
60
C0
C0
ENDCHAR
STARTCHAR 027F
ENCODING 639
SWIDTH 420 0
DWIDTH 7 0
BBX 5 12 1 -3
BITMAP
F0
F8
38
18
18
38
30
30
30
30
60
60
ENDCHAR
STARTCHAR 0280
ENCODING 640
SWIDTH 600 0
DWIDTH 10 0
BBX 9 9 1 0
BITMAP
3F00
3F80
6180
6180
7F00
7E00
6C00
C600
C300
ENDCHAR
STARTCHAR 0281
ENCODING 641
SWIDTH 600 0
DWIDTH 10 0
BBX 10 9 1 0
BITMAP
30C0
3180
7700
7F00
7F80
6180
6180
FF80
FE00
ENDCHAR
STARTCHAR 0282
ENCODING 642
SWIDTH 540 0
DWIDTH 9 0
BBX 9 12 0 -3
BITMAP
1F00
3F80
3180
3800
1E00
0700
6300
7F00
FE00
C000
E000
E000
ENDCHAR
STARTCHAR 0283
ENCODING 643
SWIDTH 300 0
DWIDTH 5 0
BBX 9 15 -2 -3
BITMAP
0380
0780
0600
0600
0600
0C00
0C00
0C00
0C00
1800
1800
1800
3800
F000
F000
ENDCHAR
STARTCHAR 0284
ENCODING 644
SWIDTH 300 0
DWIDTH 5 0
BBX 9 15 -2 -3
BITMAP
0380
0780
0600
0600
0600
0C00
0C00
0C00
0C00
0C00
7C00
7C00
1800
F800
F000
ENDCHAR
STARTCHAR 0285
ENCODING 645
SWIDTH 360 0
DWIDTH 6 0
BBX 4 12 1 -3
BITMAP
E0
F0
30
70
60
60
60
60
C0
C0
E0
E0
ENDCHAR
STARTCHAR 0286
ENCODING 646
SWIDTH 540 0
DWIDTH 9 0
BBX 11 15 0 -3
BITMAP
00E0
01E0
0180
0180
0300
0300
0300
0300
0300
0600
7E00
FE00
CC00
FE00
7400
ENDCHAR
STARTCHAR 0287
ENCODING 647
SWIDTH 360 0
DWIDTH 6 0
BBX 5 12 0 0
BITMAP
78
78
18
18
18
30
30
F8
F8
30
60
40
ENDCHAR
STARTCHAR 0288
ENCODING 648
SWIDTH 360 0
DWIDTH 6 0
BBX 5 15 1 -3
BITMAP
08
10
30
78
78
30
60
60
60
60
E0
C0
C0
E0
E0
ENDCHAR
STARTCHAR 0289
ENCODING 649
SWIDTH 600 0
DWIDTH 10 0
BBX 10 9 0 0
BITMAP
30C0
3180
3180
3180
FFC0
6180
6380
7F00
3B00
ENDCHAR
STARTCHAR 028A
ENCODING 650
SWIDTH 660 0
DWIDTH 11 0
BBX 11 9 1 0
BITMAP
70E0
71E0
2180
60C0
C0C0
C0C0
E380
FF80
3E00
ENDCHAR
STARTCHAR 028B
ENCODING 651
SWIDTH 600 0
DWIDTH 10 0
BBX 9 9 1 0
BITMAP
6F00
6F80
E180
C180
C180
C300
C700
FE00
7C00
ENDCHAR
STARTCHAR 028C
ENCODING 652
SWIDTH 540 0
DWIDTH 9 0
BBX 9 9 0 0
BITMAP
0600
0E00
0E00
1B00
3B00
3300
7300
6180
C180
ENDCHAR
STARTCHAR 028D
ENCODING 653
SWIDTH 780 0
DWIDTH 13 0
BBX 14 9 -1 0
BITMAP
0638
0E38
0E78
1A78
3AD8
32D8
738C
638C
C30C
ENDCHAR
STARTCHAR 028E
ENCODING 654
SWIDTH 540 0
DWIDTH 9 0
BBX 9 12 0 0
BITMAP
0180
0300
0700
0600
0E00
0E00
1E00
1600
3700
6300
6300
C300
ENDCHAR
STARTCHAR 028F
ENCODING 655
SWIDTH 540 0
DWIDTH 9 0
BBX 9 9 1 0
BITMAP
C380
6700
6600
3C00
3800
1800
1800
3000
3000
ENDCHAR
STARTCHAR 0290
ENCODING 656
SWIDTH 540 0
DWIDTH 9 0
BBX 7 12 1 -3
BITMAP
7E
7E
0C
18
38
70
60
FE
FC
0C
0E
0E
ENDCHAR
STARTCHAR 0291
ENCODING 657
SWIDTH 720 0
DWIDTH 12 0
BBX 11 11 1 -2
BITMAP
7F00
7F00
0600
0DC0
1BE0
3760
6E60
FFC0
FF80
3000
1000
ENDCHAR
STARTCHAR 0292
ENCODING 658
SWIDTH 540 0
DWIDTH 9 0
BBX 9 12 0 -3
BITMAP
3F80
3F80
0300
0600
0E00
0F00
0300
0300
C300
C600
FE00
7800
ENDCHAR
STARTCHAR 0293
ENCODING 659
SWIDTH 540 0
DWIDTH 9 0
BBX 9 12 0 -3
BITMAP
3F80
3F80
0300
0600
0E00
0F00
0300
7B00
FF00
C600
FF00
7A00
ENDCHAR
STARTCHAR 0294
ENCODING 660
SWIDTH 540 0
DWIDTH 9 0
BBX 8 12 1 0
BITMAP
3E
7F
E3
03
03
03
06
3C
38
30
60
60
ENDCHAR
STARTCHAR 0295
ENCODING 661
SWIDTH 540 0
DWIDTH 9 0
BBX 8 12 2 0
BITMAP
1E
7F
63
C0
C0
C0
C0
F0
70
30
60
60
ENDCHAR
STARTCHAR 0296
ENCODING 662
SWIDTH 540 0
DWIDTH 9 0
BBX 8 12 1 0
BITMAP
0C
0C
0C
1E
1F
03
03
03
03
C6
FE
78
ENDCHAR
STARTCHAR 0297
ENCODING 663
SWIDTH 540 0
DWIDTH 9 0
BBX 8 12 1 -3
BITMAP
1E
3F
33
60
60
60
C0
C0
C6
CE
FC
78
ENDCHAR
STARTCHAR 0298
ENCODING 664
SWIDTH 780 0
DWIDTH 13 0
BBX 12 12 1 0
BITMAP
0F80
1FE0
3860
6030
6030
CC30
CC30
C070
C060
61C0
7F80
1F00
ENDCHAR
STARTCHAR 0299
ENCODING 665
SWIDTH 660 0
DWIDTH 11 0
BBX 10 9 1 0
BITMAP
3F80
3FC0
60C0
7F80
7F80
6180
6180
FF80
FF00
ENDCHAR
STARTCHAR 029A
ENCODING 666
SWIDTH 600 0
DWIDTH 10 0
BBX 9 9 1 0
BITMAP
1E00
7F00
6180
3D80
7D80
C380
C700
FE00
7C00
ENDCHAR
STARTCHAR 029B
ENCODING 667
SWIDTH 600 0
DWIDTH 10 0
BBX 13 11 1 0
BITMAP
0078
00F0
1FC0
3F80
7180
C000
CF80
CF00
C300
FF00
3C00
ENDCHAR
STARTCHAR 029C
ENCODING 668
SWIDTH 600 0
DWIDTH 10 0
BBX 9 9 1 0
BITMAP
6180
6180
6180
7F80
7F80
6180
C300
C300
C300
ENDCHAR
STARTCHAR 029D
ENCODING 669
SWIDTH 420 0
DWIDTH 7 0
BBX 9 15 -1 -3
BITMAP
0380
0300
0000
0300
0300
0600
0600
0600
0600
0600
7E00
FE00
CC00
F800
7000
ENDCHAR
STARTCHAR 029E
ENCODING 670
SWIDTH 540 0
DWIDTH 9 0
BBX 8 12 0 -3
BITMAP
33
33
1B
1F
1F
1E
3E
76
E6
06
0C
0C
ENDCHAR
STARTCHAR 029F
ENCODING 671
SWIDTH 480 0
DWIDTH 8 0
BBX 6 9 1 0
BITMAP
30
30
60
60
60
60
60
FC
FC
ENDCHAR
STARTCHAR 02A0
ENCODING 672
SWIDTH 600 0
DWIDTH 10 0
BBX 11 15 1 -3
BITMAP
00E0
01E0
0180
3D80
7F00
6700
C300
C300
C600
C600
FE00
7600
0600
0C00
0C00
ENDCHAR
STARTCHAR 02A1
ENCODING 673
SWIDTH 540 0
DWIDTH 9 0
BBX 10 12 -1 0
BITMAP
0780
0FC0
18C0
00C0
00C0
00C0
0180
0F00
0E00
0C00
FF00
1800
ENDCHAR
STARTCHAR 02A2
ENCODING 674
SWIDTH 540 0
DWIDTH 9 0
BBX 10 12 0 0
BITMAP
0780
1FC0
18C0
3000
3000
3000
3000
3C00
1C00
0C00
FF00
1800
ENDCHAR
STARTCHAR 02A3
ENCODING 675
SWIDTH 1020 0
DWIDTH 17 0
BBX 16 12 1 0
BITMAP
0180
0180
0180
3DFF
7FFF
670E
C31C
C338
C370
C7E0
FFFE
77FE
ENDCHAR
STARTCHAR 02A4
ENCODING 676
SWIDTH 960 0
DWIDTH 16 0
BBX 15 15 1 -3
BITMAP
00C0
00C0
00C0
1EFE
7FFE
638C
C198
C1B8
C3BC
E38C
FF0C
7B0C
0018
03F8
01E0
ENDCHAR
STARTCHAR 02A5
ENCODING 677
SWIDTH 1200 0
DWIDTH 20 0
BBX 19 14 1 -2
BITMAP
018000
018000
018000
3DFF00
7FFF00
670E00
C31DC0
C33BE0
C37760
C7EE60
FFFFC0
77FF80
007000
002000
ENDCHAR
STARTCHAR 02A6
ENCODING 678
SWIDTH 840 0
DWIDTH 14 0
BBX 13 12 1 0
BITMAP
1000
3000
7000
FFF0
FFF8
6618
6700
E3E0
C070
C030
FFF0
7FC0
ENDCHAR
STARTCHAR 02A7
ENCODING 679
SWIDTH 600 0
DWIDTH 10 0
BBX 10 15 2 -3
BITMAP
11C0
33C0
3300
FF00
FF00
6600
6600
E600
C600
C600
FC00
7C00
0C00
3C00
3800
ENDCHAR
STARTCHAR 02A8
ENCODING 680
SWIDTH 840 0
DWIDTH 14 0
BBX 14 12 1 0
BITMAP
1000
3000
3000
F1F0
F3FC
670C
6E00
EDF0
CFF8
CE18
FFF0
73E0
ENDCHAR
STARTCHAR 02A9
ENCODING 681
SWIDTH 900 0
DWIDTH 15 0
BBX 14 15 1 -3
BITMAP
1C00
3C00
3000
FF78
FFFC
671C
6618
6618
6618
6618
CC30
CC30
0030
00F0
01E0
ENDCHAR
STARTCHAR 02AA
ENCODING 682
SWIDTH 780 0
DWIDTH 13 0
BBX 12 12 1 0
BITMAP
3000
3000
3000
33E0
3FF0
6C30
6E00
67C0
60E0
7060
FFE0
DF80
ENDCHAR
STARTCHAR 02AB
ENCODING 683
SWIDTH 660 0
DWIDTH 11 0
BBX 10 12 1 0
BITMAP
3000
3000
3000
3FC0
3FC0
6180
6300
6600
6C00
7800
FF80
FF80
ENDCHAR
STARTCHAR 02AC
ENCODING 684
SWIDTH 540 0
DWIDTH 9 0
BBX 10 12 1 0
BITMAP
4440
4C80
3D00
3600
2200
0000
9100
9A00
AA00
AC00
4C00
4800
ENDCHAR
STARTCHAR 02AD
ENCODING 685
SWIDTH 600 0
DWIDTH 10 0
BBX 9 12 1 0
BITMAP
3F80
3F80
3180
3180
0000
0000
0000
0000
7F00
7F00
C600
C600
ENDCHAR
STARTCHAR 02AE
ENCODING 686
SWIDTH 720 0
DWIDTH 12 0
BBX 10 12 1 -3
BITMAP
F0C0
F0C0
38C0
18C0
30C0
3180
3180
3F80
1D80
0180
0300
0300
ENDCHAR
STARTCHAR 02AF
ENCODING 687
SWIDTH 720 0
DWIDTH 12 0
BBX 12 12 1 -3
BITMAP
F060
F060
38C0
18C0
30C0
30C0
3180
3F80
1D80
0180
01F0
00F0
ENDCHAR
STARTCHAR 02B0
ENCODING 688
SWIDTH 420 0
DWIDTH 7 0
BBX 7 8 1 4
BITMAP
30
60
6E
7E
66
66
CC
CC
ENDCHAR
STARTCHAR 02B1
ENCODING 689
SWIDTH 420 0
DWIDTH 7 0
BBX 7 8 1 4
BITMAP
38
60
6E
7E
66
66
CC
CC
ENDCHAR
STARTCHAR 02B2
ENCODING 690
SWIDTH 180 0
DWIDTH 3 0
BBX 6 10 -1 2
BITMAP
0C
00
18
18
18
30
30
30
F0
E0
ENDCHAR
STARTCHAR 02B3
ENCODING 691
SWIDTH 300 0
DWIDTH 5 0
BBX 6 6 1 4
BITMAP
6C
78
60
60
C0
C0
ENDCHAR
STARTCHAR 02B4
ENCODING 692
SWIDTH 300 0
DWIDTH 5 0
BBX 6 6 0 4
BITMAP
0C
0C
0C
1C
78
D8
ENDCHAR
STARTCHAR 02B5
ENCODING 693
SWIDTH 300 0
DWIDTH 5 0
BBX 6 8 0 2
BITMAP
0C
0C
0C
1C
78
F8
1C
1C
ENDCHAR
STARTCHAR 02B6
ENCODING 694
SWIDTH 420 0
DWIDTH 7 0
BBX 7 6 1 4
BITMAP
66
6C
7C
6C
FC
F8
ENDCHAR
STARTCHAR 02B7
ENCODING 695
SWIDTH 540 0
DWIDTH 9 0
BBX 9 6 2 4
BITMAP
D980
DB00
DB00
EB00
EE00
EE00
ENDCHAR
STARTCHAR 02B8
ENCODING 696
SWIDTH 420 0
DWIDTH 7 0
BBX 7 8 1 2
BITMAP
66
64
78
38
30
30
E0
C0
ENDCHAR
STARTCHAR 02B9
ENCODING 697
SWIDTH 180 0
DWIDTH 3 0
BBX 2 4 2 8
BITMAP
C0
C0
C0
80
ENDCHAR
STARTCHAR 02BA
ENCODING 698
SWIDTH 420 0
DWIDTH 7 0
BBX 5 4 2 8
BITMAP
D8
D8
D8
90
ENDCHAR
STARTCHAR 02BB
ENCODING 699
SWIDTH 240 0
DWIDTH 4 0
BBX 2 5 2 7
BITMAP
40
80
80
C0
C0
ENDCHAR
STARTCHAR 02BC
ENCODING 700
SWIDTH 300 0
DWIDTH 5 0
BBX 2 5 3 7
BITMAP
C0
C0
40
40
80
ENDCHAR
STARTCHAR 02BD
ENCODING 701
SWIDTH 300 0
DWIDTH 5 0
BBX 2 5 3 7
BITMAP
C0
C0
80
80
C0
ENDCHAR
STARTCHAR 02BE
ENCODING 702
SWIDTH 360 0
DWIDTH 6 0
BBX 2 3 3 9
BITMAP
C0
40
C0
ENDCHAR
STARTCHAR 02BF
ENCODING 703
SWIDTH 360 0
DWIDTH 6 0
BBX 2 3 3 9
BITMAP
C0
80
C0
ENDCHAR
STARTCHAR 02C0
ENCODING 704
SWIDTH 360 0
DWIDTH 6 0
BBX 7 8 1 4
BITMAP
3C
FE
06
06
0E
3C
78
60
ENDCHAR
STARTCHAR 02C1
ENCODING 705
SWIDTH 360 0
DWIDTH 6 0
BBX 7 8 2 4
BITMAP
3C
7E
E0
C0
C0
F0
70
60
ENDCHAR
STARTCHAR 02C2
ENCODING 706
SWIDTH 600 0
DWIDTH 10 0
BBX 8 9 1 1
BITMAP
01
07
3E
F8
C0
F8
3E
07
01
ENDCHAR
STARTCHAR 02C3
ENCODING 707
SWIDTH 600 0
DWIDTH 10 0
BBX 8 9 1 1
BITMAP
80
E0
7C
1F
03
1F
7C
E0
80
ENDCHAR
STARTCHAR 02C4
ENCODING 708
SWIDTH 600 0
DWIDTH 10 0
BBX 9 8 1 2
BITMAP
1C00
1C00
3600
3600
7700
6300
6300
C180
ENDCHAR
STARTCHAR 02C5
ENCODING 709
SWIDTH 600 0
DWIDTH 10 0
BBX 9 8 1 2
BITMAP
C180
6300
6300
7700
3600
3600
1C00
1C00
ENDCHAR
STARTCHAR 02C6
ENCODING 710
SWIDTH 360 0
DWIDTH 6 0
BBX 4 2 2 10
BITMAP
60
B0
ENDCHAR
STARTCHAR 02C7
ENCODING 711
SWIDTH 360 0
DWIDTH 6 0
BBX 4 2 2 10
BITMAP
D0
60
ENDCHAR
STARTCHAR 02C8
ENCODING 712
SWIDTH 360 0
DWIDTH 6 0
BBX 1 3 4 9
BITMAP
80
80
80
ENDCHAR
STARTCHAR 02C9
ENCODING 713
SWIDTH 360 0
DWIDTH 6 0
BBX 5 2 1 10
BITMAP
F8
F8
ENDCHAR
STARTCHAR 02CA
ENCODING 714
SWIDTH 360 0
DWIDTH 6 0
BBX 4 2 3 10
BITMAP
70
E0
ENDCHAR
STARTCHAR 02CB
ENCODING 715
SWIDTH 360 0
DWIDTH 6 0
BBX 4 2 2 10
BITMAP
E0
70
ENDCHAR
STARTCHAR 02CC
ENCODING 716
SWIDTH 360 0
DWIDTH 6 0
BBX 1 3 2 -4
BITMAP
80
80
80
ENDCHAR
STARTCHAR 02CD
ENCODING 717
SWIDTH 360 0
DWIDTH 6 0
BBX 5 2 -1 -3
BITMAP
F8
F8
ENDCHAR
STARTCHAR 02CE
ENCODING 718
SWIDTH 360 0
DWIDTH 6 0
BBX 3 2 1 -3
BITMAP
C0
60
ENDCHAR
STARTCHAR 02CF
ENCODING 719
SWIDTH 360 0
DWIDTH 6 0
BBX 4 2 -1 -3
BITMAP
70
E0
ENDCHAR
STARTCHAR 02D0
ENCODING 720
SWIDTH 360 0
DWIDTH 6 0
BBX 4 9 1 0
BITMAP
30
20
00
00
00
00
00
40
C0
ENDCHAR
STARTCHAR 02D1
ENCODING 721
SWIDTH 360 0
DWIDTH 6 0
BBX 2 2 3 7
BITMAP
C0
80
ENDCHAR
STARTCHAR 02D2
ENCODING 722
SWIDTH 360 0
DWIDTH 6 0
BBX 2 3 2 1
BITMAP
C0
40
C0
ENDCHAR
STARTCHAR 02D3
ENCODING 723
SWIDTH 360 0
DWIDTH 6 0
BBX 2 3 2 1
BITMAP
C0
80
C0
ENDCHAR
STARTCHAR 02D4
ENCODING 724
SWIDTH 360 0
DWIDTH 6 0
BBX 3 3 1 1
BITMAP
40
40
E0
ENDCHAR
STARTCHAR 02D5
ENCODING 725
SWIDTH 360 0
DWIDTH 6 0
BBX 3 3 1 1
BITMAP
E0
40
40
ENDCHAR
STARTCHAR 02D6
ENCODING 726
SWIDTH 360 0
DWIDTH 6 0
BBX 3 3 1 1
BITMAP
40
E0
40
ENDCHAR
STARTCHAR 02D7
ENCODING 727
SWIDTH 360 0
DWIDTH 6 0
BBX 5 2 0 2
BITMAP
F8
F8
ENDCHAR
STARTCHAR 02D8
ENCODING 728
SWIDTH 360 0
DWIDTH 6 0
BBX 5 2 1 10
BITMAP
88
70
ENDCHAR
STARTCHAR 02D9
ENCODING 729
SWIDTH 360 0
DWIDTH 6 0
BBX 2 2 3 10
BITMAP
C0
C0
ENDCHAR
STARTCHAR 02DA
ENCODING 730
SWIDTH 360 0
DWIDTH 6 0
BBX 3 3 2 9
BITMAP
E0
A0
E0
ENDCHAR
STARTCHAR 02DB
ENCODING 731
SWIDTH 360 0
DWIDTH 6 0
BBX 3 3 0 -3
BITMAP
40
C0
E0
ENDCHAR
STARTCHAR 02DC
ENCODING 732
SWIDTH 360 0
DWIDTH 6 0
BBX 6 2 2 10
BITMAP
74
B8
ENDCHAR
STARTCHAR 02DD
ENCODING 733
SWIDTH 360 0
DWIDTH 6 0
BBX 8 2 0 10
BITMAP
77
EE
ENDCHAR
STARTCHAR 02DE
ENCODING 734
SWIDTH 360 0
DWIDTH 6 0
BBX 6 4 -1 3
BITMAP
E0
E0
7C
3C
ENDCHAR
STARTCHAR 02DF
ENCODING 735
SWIDTH 360 0
DWIDTH 6 0
BBX 6 6 1 6
BITMAP
84
48
30
30
48
84
ENDCHAR
STARTCHAR 02E0
ENCODING 736
SWIDTH 420 0
DWIDTH 7 0
BBX 8 8 0 2
BITMAP
33
1E
1C
18
3C
6C
FC
78
ENDCHAR
STARTCHAR 02E1
ENCODING 737
SWIDTH 180 0
DWIDTH 3 0
BBX 4 8 1 4
BITMAP
30
60
60
60
60
60
C0
C0
ENDCHAR
STARTCHAR 02E2
ENCODING 738
SWIDTH 360 0
DWIDTH 6 0
BBX 5 6 1 4
BITMAP
30
78
60
18
F8
70
ENDCHAR
STARTCHAR 02E3
ENCODING 739
SWIDTH 420 0
DWIDTH 7 0
BBX 7 6 1 4
BITMAP
66
3C
38
38
78
CC
ENDCHAR
STARTCHAR 02E4
ENCODING 740
SWIDTH 360 0
DWIDTH 6 0
BBX 7 8 2 4
BITMAP
3C
7E
E0
C0
C0
F0
70
60
ENDCHAR
STARTCHAR 02E5
ENCODING 741
SWIDTH 420 0
DWIDTH 7 0
BBX 5 12 1 0
BITMAP
F8
08
08
08
08
08
08
08
08
08
08
08
ENDCHAR
STARTCHAR 02E6
ENCODING 742
SWIDTH 420 0
DWIDTH 7 0
BBX 5 12 1 0
BITMAP
08
08
08
F8
08
08
08
08
08
08
08
08
ENDCHAR
STARTCHAR 02E7
ENCODING 743
SWIDTH 420 0
DWIDTH 7 0
BBX 5 12 1 0
BITMAP
08
08
08
08
08
08
F8
08
08
08
08
08
ENDCHAR
STARTCHAR 02E8
ENCODING 744
SWIDTH 420 0
DWIDTH 7 0
BBX 5 12 1 0
BITMAP
08
08
08
08
08
08
08
08
F8
08
08
08
ENDCHAR
STARTCHAR 02E9
ENCODING 745
SWIDTH 420 0
DWIDTH 7 0
BBX 5 12 1 0
BITMAP
08
08
08
08
08
08
08
08
08
08
08
F8
ENDCHAR
STARTCHAR 02EA
ENCODING 746
SWIDTH 360 0
DWIDTH 6 0
BBX 4 7 1 0
BITMAP
80
80
80
80
80
80
F0
ENDCHAR
STARTCHAR 02EB
ENCODING 747
SWIDTH 360 0
DWIDTH 6 0
BBX 4 7 1 0
BITMAP
80
80
80
F0
80
80
80
ENDCHAR
STARTCHAR 02EC
ENCODING 748
SWIDTH 360 0
DWIDTH 6 0
BBX 5 2 0 -3
BITMAP
D8
70
ENDCHAR
STARTCHAR 02ED
ENCODING 749
SWIDTH 360 0
DWIDTH 6 0
BBX 5 3 2 9
BITMAP
F8
00
F8
ENDCHAR
STARTCHAR 02EE
ENCODING 750
SWIDTH 540 0
DWIDTH 9 0
BBX 7 5 2 7
BITMAP
66
66
22
44
CC
ENDCHAR
STARTCHAR 02EF
ENCODING 751
SWIDTH 360 0
DWIDTH 6 0
BBX 3 2 0 -3
BITMAP
A0
40
ENDCHAR
STARTCHAR 02F0
ENCODING 752
SWIDTH 360 0
DWIDTH 6 0
BBX 3 2 0 -3
BITMAP
40
A0
ENDCHAR
STARTCHAR 02F1
ENCODING 753
SWIDTH 360 0
DWIDTH 6 0
BBX 2 3 1 -3
BITMAP
40
80
40
ENDCHAR
STARTCHAR 02F2
ENCODING 754
SWIDTH 360 0
DWIDTH 6 0
BBX 2 3 1 -3
BITMAP
80
40
80
ENDCHAR
STARTCHAR 02F3
ENCODING 755
SWIDTH 360 0
DWIDTH 6 0
BBX 3 3 1 -3
BITMAP
E0
A0
E0
ENDCHAR
STARTCHAR 02F4
ENCODING 756
SWIDTH 360 0
DWIDTH 6 0
BBX 3 2 2 2
BITMAP
C0
60
ENDCHAR
STARTCHAR 02F5
ENCODING 757
SWIDTH 360 0
DWIDTH 6 0
BBX 6 2 0 2
BITMAP
D8
6C
ENDCHAR
STARTCHAR 02F6
ENCODING 758
SWIDTH 360 0
DWIDTH 6 0
BBX 6 2 -1 2
BITMAP
6C
D8
ENDCHAR
STARTCHAR 02F7
ENCODING 759
SWIDTH 360 0
DWIDTH 6 0
BBX 6 2 -1 -3
BITMAP
64
98
ENDCHAR
STARTCHAR 02F8
ENCODING 760
SWIDTH 360 0
DWIDTH 6 0
BBX 3 8 2 4
BITMAP
60
60
00
00
00
00
C0
C0
ENDCHAR
STARTCHAR 02F9
ENCODING 761
SWIDTH 360 0
DWIDTH 6 0
BBX 3 3 3 9
BITMAP
E0
80
80
ENDCHAR
STARTCHAR 02FA
ENCODING 762
SWIDTH 360 0
DWIDTH 6 0
BBX 3 3 3 9
BITMAP
E0
20
20
ENDCHAR
STARTCHAR 02FB
ENCODING 763
SWIDTH 360 0
DWIDTH 6 0
BBX 3 3 0 -3
BITMAP
80
80
E0
ENDCHAR
STARTCHAR 02FC
ENCODING 764
SWIDTH 360 0
DWIDTH 6 0
BBX 3 3 0 -3
BITMAP
20
20
E0
ENDCHAR
STARTCHAR 02FD
ENCODING 765
SWIDTH 420 0
DWIDTH 7 0
BBX 6 3 0 -3
BITMAP
84
84
FC
ENDCHAR
STARTCHAR 02FE
ENCODING 766
SWIDTH 420 0
DWIDTH 7 0
BBX 6 3 0 -3
BITMAP
80
80
FC
ENDCHAR
STARTCHAR 02FF
ENCODING 767
SWIDTH 360 0
DWIDTH 6 0
BBX 5 5 0 -3
BITMAP
20
40
F8
40
20
ENDCHAR
STARTCHAR 0300
ENCODING 768
SWIDTH 0 0
DWIDTH 0 0
BBX 3 2 -2 13
BITMAP
C0
60
ENDCHAR
STARTCHAR 0301
ENCODING 769
SWIDTH 0 0
DWIDTH 0 0
BBX 3 2 -2 13
BITMAP
60
C0
ENDCHAR
STARTCHAR 0302
ENCODING 770
SWIDTH 0 0
DWIDTH 0 0
BBX 5 2 -1 10
BITMAP
70
D8
ENDCHAR
STARTCHAR 0303
ENCODING 771
SWIDTH 0 0
DWIDTH 0 0
BBX 7 2 -5 13
BITMAP
72
9C
ENDCHAR
STARTCHAR 0304
ENCODING 772
SWIDTH 0 0
DWIDTH 0 0
BBX 5 2 -1 10
BITMAP
F8
F8
ENDCHAR
STARTCHAR 0305
ENCODING 773
SWIDTH 0 0
DWIDTH 0 0
BBX 10 2 -3 13
BITMAP
FFC0
FFC0
ENDCHAR
STARTCHAR 0306
ENCODING 774
SWIDTH 0 0
DWIDTH 0 0
BBX 5 2 0 10
BITMAP
88
70
ENDCHAR
STARTCHAR 0307
ENCODING 775
SWIDTH 0 0
DWIDTH 0 0
BBX 2 2 0 10
BITMAP
C0
C0
ENDCHAR
STARTCHAR 0308
ENCODING 776
SWIDTH 0 0
DWIDTH 0 0
BBX 5 2 -1 10
BITMAP
D8
D8
ENDCHAR
STARTCHAR 0309
ENCODING 777
SWIDTH 0 0
DWIDTH 0 0
BBX 3 2 -2 13
BITMAP
E0
40
ENDCHAR
STARTCHAR 030A
ENCODING 778
SWIDTH 0 0
DWIDTH 0 0
BBX 3 3 0 9
BITMAP
E0
A0
E0
ENDCHAR
STARTCHAR 030B
ENCODING 779
SWIDTH 0 0
DWIDTH 0 0
BBX 6 2 -2 10
BITMAP
6C
D8
ENDCHAR
STARTCHAR 030C
ENCODING 780
SWIDTH 0 0
DWIDTH 0 0
BBX 5 2 0 10
BITMAP
D8
70
ENDCHAR
STARTCHAR 030D
ENCODING 781
SWIDTH 0 0
DWIDTH 0 0
BBX 1 3 1 9
BITMAP
80
80
80
ENDCHAR
STARTCHAR 030E
ENCODING 782
SWIDTH 0 0
DWIDTH 0 0
BBX 3 3 0 9
BITMAP
A0
A0
A0
ENDCHAR
STARTCHAR 030F
ENCODING 783
SWIDTH 0 0
DWIDTH 0 0
BBX 6 2 -1 10
BITMAP
D8
6C
ENDCHAR
STARTCHAR 0310
ENCODING 784
SWIDTH 0 0
DWIDTH 0 0
BBX 6 4 0 10
BITMAP
30
30
84
78
ENDCHAR
STARTCHAR 0311
ENCODING 785
SWIDTH 0 0
DWIDTH 0 0
BBX 5 2 -1 10
BITMAP
70
88
ENDCHAR
STARTCHAR 0312
ENCODING 786
SWIDTH 0 0
DWIDTH 0 0
BBX 2 5 0 7
BITMAP
40
80
80
C0
C0
ENDCHAR
STARTCHAR 0313
ENCODING 787
SWIDTH 0 0
DWIDTH 0 0
BBX 2 5 1 7
BITMAP
C0
C0
40
40
80
ENDCHAR
STARTCHAR 0314
ENCODING 788
SWIDTH 0 0
DWIDTH 0 0
BBX 2 5 1 7
BITMAP
C0
C0
80
80
C0
ENDCHAR
STARTCHAR 0315
ENCODING 789
SWIDTH 0 0
DWIDTH 0 0
BBX 2 5 2 7
BITMAP
C0
C0
40
40
80
ENDCHAR
STARTCHAR 0316
ENCODING 790
SWIDTH 0 0
DWIDTH 0 0
BBX 3 2 -1 -3
BITMAP
C0
60
ENDCHAR
STARTCHAR 0317
ENCODING 791
SWIDTH 0 0
DWIDTH 0 0
BBX 4 2 -3 -3
BITMAP
70
E0
ENDCHAR
STARTCHAR 0318
ENCODING 792
SWIDTH 0 0
DWIDTH 0 0
BBX 3 3 -2 -4
BITMAP
20
E0
20
ENDCHAR
STARTCHAR 0319
ENCODING 793
SWIDTH 0 0
DWIDTH 0 0
BBX 3 3 -2 -4
BITMAP
80
E0
80
ENDCHAR
STARTCHAR 031A
ENCODING 794
SWIDTH 0 0
DWIDTH 0 0
BBX 6 4 -1 10
BITMAP
FC
04
04
04
ENDCHAR
STARTCHAR 031B
ENCODING 795
SWIDTH 0 0
DWIDTH 0 0
BBX 4 5 -1 7
BITMAP
30
30
20
60
C0
ENDCHAR
STARTCHAR 031C
ENCODING 796
SWIDTH 0 0
DWIDTH 0 0
BBX 2 3 -2 -3
BITMAP
C0
80
C0
ENDCHAR
STARTCHAR 031D
ENCODING 797
SWIDTH 0 0
DWIDTH 0 0
BBX 3 3 -2 -4
BITMAP
40
40
E0
ENDCHAR
STARTCHAR 031E
ENCODING 798
SWIDTH 0 0
DWIDTH 0 0
BBX 3 3 -2 -3
BITMAP
E0
40
40
ENDCHAR
STARTCHAR 031F
ENCODING 799
SWIDTH 0 0
DWIDTH 0 0
BBX 3 3 -2 -4
BITMAP
40
E0
40
ENDCHAR
STARTCHAR 0320
ENCODING 800
SWIDTH 0 0
DWIDTH 0 0
BBX 5 2 -3 -3
BITMAP
F8
F8
ENDCHAR
STARTCHAR 0321
ENCODING 801
SWIDTH 0 0
DWIDTH 0 0
BBX 4 4 -4 -3
BITMAP
30
30
E0
E0
ENDCHAR
STARTCHAR 0322
ENCODING 802
SWIDTH 0 0
DWIDTH 0 0
BBX 3 5 -1 -3
BITMAP
C0
C0
C0
E0
E0
ENDCHAR
STARTCHAR 0323
ENCODING 803
SWIDTH 0 0
DWIDTH 0 0
BBX 2 2 -8 -3
BITMAP
C0
C0
ENDCHAR
STARTCHAR 0324
ENCODING 804
SWIDTH 0 0
DWIDTH 0 0
BBX 5 2 -3 -3
BITMAP
D8
D8
ENDCHAR
STARTCHAR 0325
ENCODING 805
SWIDTH 0 0
DWIDTH 0 0
BBX 3 3 -2 -3
BITMAP
E0
A0
E0
ENDCHAR
STARTCHAR 0326
ENCODING 806
SWIDTH 0 0
DWIDTH 0 0
BBX 3 4 -2 -4
BITMAP
E0
E0
40
80
ENDCHAR
STARTCHAR 0327
ENCODING 807
SWIDTH 0 0
DWIDTH 0 0
BBX 5 3 -3 -3
BITMAP
78
18
F0
ENDCHAR
STARTCHAR 0328
ENCODING 808
SWIDTH 0 0
DWIDTH 0 0
BBX 3 3 -2 -3
BITMAP
40
C0
E0
ENDCHAR
STARTCHAR 0329
ENCODING 809
SWIDTH 0 0
DWIDTH 0 0
BBX 1 3 -1 -4
BITMAP
80
80
80
ENDCHAR
STARTCHAR 032A
ENCODING 810
SWIDTH 0 0
DWIDTH 0 0
BBX 6 3 -4 -4
BITMAP
FC
84
84
ENDCHAR
STARTCHAR 032B
ENCODING 811
SWIDTH 0 0
DWIDTH 0 0
BBX 7 2 -4 -3
BITMAP
92
6C
ENDCHAR
STARTCHAR 032C
ENCODING 812
SWIDTH 0 0
DWIDTH 0 0
BBX 5 2 -3 -3
BITMAP
D8
70
ENDCHAR
STARTCHAR 032D
ENCODING 813
SWIDTH 0 0
DWIDTH 0 0
BBX 5 2 -4 -3
BITMAP
70
D8
ENDCHAR
STARTCHAR 032E
ENCODING 814
SWIDTH 0 0
DWIDTH 0 0
BBX 5 2 -3 -3
BITMAP
88
70
ENDCHAR
STARTCHAR 032F
ENCODING 815
SWIDTH 0 0
DWIDTH 0 0
BBX 5 2 -4 -3
BITMAP
70
88
ENDCHAR
STARTCHAR 0330
ENCODING 816
SWIDTH 0 0
DWIDTH 0 0
BBX 6 2 -4 -3
BITMAP
64
98
ENDCHAR
STARTCHAR 0331
ENCODING 817
SWIDTH 0 0
DWIDTH 0 0
BBX 5 2 -3 -3
BITMAP
F8
F8
ENDCHAR
STARTCHAR 0332
ENCODING 818
SWIDTH 0 0
DWIDTH 0 0
BBX 10 2 -6 -3
BITMAP
FFC0
FFC0
ENDCHAR
STARTCHAR 0333
ENCODING 819
SWIDTH 0 0
DWIDTH 0 0
BBX 5 6 -3 -7
BITMAP
F8
F8
00
00
F8
F8
ENDCHAR
STARTCHAR 0334
ENCODING 820
SWIDTH 0 0
DWIDTH 0 0
BBX 6 2 -3 2
BITMAP
64
98
ENDCHAR
STARTCHAR 0335
ENCODING 821
SWIDTH 0 0
DWIDTH 0 0
BBX 5 2 -3 2
BITMAP
F8
F8
ENDCHAR
STARTCHAR 0336
ENCODING 822
SWIDTH 0 0
DWIDTH 0 0
BBX 10 2 -5 2
BITMAP
FFC0
FFC0
ENDCHAR
STARTCHAR 0337
ENCODING 823
SWIDTH 0 0
DWIDTH 0 0
BBX 9 8 -4 0
BITMAP
0100
0380
0700
0C00
1800
7000
E000
8000
ENDCHAR
STARTCHAR 0338
ENCODING 824
SWIDTH 0 0
DWIDTH 0 0
BBX 8 12 -3 0
BITMAP
03
06
06
0C
0C
18
18
30
30
60
60
C0
ENDCHAR
STARTCHAR 0339
ENCODING 825
SWIDTH 0 0
DWIDTH 0 0
BBX 2 3 -2 -3
BITMAP
C0
40
C0
ENDCHAR
STARTCHAR 033A
ENCODING 826
SWIDTH 0 0
DWIDTH 0 0
BBX 6 3 -4 -3
BITMAP
84
84
FC
ENDCHAR
STARTCHAR 033B
ENCODING 827
SWIDTH 0 0
DWIDTH 0 0
BBX 4 4 -3 -4
BITMAP
F0
90
90
F0
ENDCHAR
STARTCHAR 033C
ENCODING 828
SWIDTH 0 0
DWIDTH 0 0
BBX 7 3 -4 -4
BITMAP
6C
92
10
ENDCHAR
STARTCHAR 033D
ENCODING 829
SWIDTH 0 0
DWIDTH 0 0
BBX 4 4 0 8
BITMAP
90
60
60
90
ENDCHAR
STARTCHAR 033E
ENCODING 830
SWIDTH 0 0
DWIDTH 0 0
BBX 2 5 1 8
BITMAP
C0
80
40
40
C0
ENDCHAR
STARTCHAR 033F
ENCODING 831
SWIDTH 0 0
DWIDTH 0 0
BBX 10 6 -3 9
BITMAP
FFC0
FFC0
0000
0000
FFC0
FFC0
ENDCHAR
STARTCHAR 0340
ENCODING 832
SWIDTH 0 0
DWIDTH 0 0
BBX 3 2 0 10
BITMAP
C0
60
ENDCHAR
STARTCHAR 0341
ENCODING 833
SWIDTH 0 0
DWIDTH 0 0
BBX 4 2 -1 10
BITMAP
70
E0
ENDCHAR
STARTCHAR 0342
ENCODING 834
SWIDTH 0 0
DWIDTH 0 0
BBX 6 2 -1 10
BITMAP
64
98
ENDCHAR
STARTCHAR 0343
ENCODING 835
SWIDTH 0 0
DWIDTH 0 0
BBX 2 5 1 7
BITMAP
C0
C0
40
40
80
ENDCHAR
STARTCHAR 0344
ENCODING 836
SWIDTH 0 0
DWIDTH 0 0
BBX 9 2 -3 10
BITMAP
CD80
D980
ENDCHAR
STARTCHAR 0345
ENCODING 837
SWIDTH 0 0
DWIDTH 0 0
BBX 2 2 -2 -3
BITMAP
40
C0
ENDCHAR
STARTCHAR 0346
ENCODING 838
SWIDTH 0 0
DWIDTH 0 0
BBX 6 3 -2 10
BITMAP
FC
84
84
ENDCHAR
STARTCHAR 0347
ENCODING 839
SWIDTH 0 0
DWIDTH 0 0
BBX 9 6 -6 -7
BITMAP
FF80
FF80
0000
0000
FF80
FF80
ENDCHAR
STARTCHAR 0348
ENCODING 840
SWIDTH 0 0
DWIDTH 0 0
BBX 3 3 -2 -4
BITMAP
A0
A0
A0
ENDCHAR
STARTCHAR 0349
ENCODING 841
SWIDTH 0 0
DWIDTH 0 0
BBX 3 3 -2 -3
BITMAP
E0
20
20
ENDCHAR
STARTCHAR 034A
ENCODING 842
SWIDTH 0 0
DWIDTH 0 0
BBX 7 4 -1 9
BITMAP
08
72
9C
20
ENDCHAR
STARTCHAR 034B
ENCODING 843
SWIDTH 0 0
DWIDTH 0 0
BBX 6 6 -1 8
BITMAP
18
18
64
98
30
30
ENDCHAR
STARTCHAR 034C
ENCODING 844
SWIDTH 0 0
DWIDTH 0 0
BBX 6 4 -1 10
BITMAP
64
98
64
98
ENDCHAR
STARTCHAR 034D
ENCODING 845
SWIDTH 0 0
DWIDTH 0 0
BBX 5 3 -3 -4
BITMAP
90
F8
90
ENDCHAR
STARTCHAR 034E
ENCODING 846
SWIDTH 0 0
DWIDTH 0 0
BBX 3 4 -2 -3
BITMAP
40
E0
40
40
ENDCHAR
STARTCHAR 034F
ENCODING 847
SWIDTH 0 0
DWIDTH 0 0
BBX 13 13 -6 0
BITMAP
E738
8008
8A88
1040
2020
8008
A028
8008
2020
1040
8A88
8008
E738
ENDCHAR
STARTCHAR 0350
ENCODING 848
SWIDTH 0 0
DWIDTH 0 0
BBX 2 3 1 10
BITMAP
80
40
80
ENDCHAR
STARTCHAR 0351
ENCODING 849
SWIDTH 0 0
DWIDTH 0 0
BBX 2 3 1 9
BITMAP
C0
80
C0
ENDCHAR
STARTCHAR 0352
ENCODING 850
SWIDTH 0 0
DWIDTH 0 0
BBX 6 4 -1 10
BITMAP
78
84
30
30
ENDCHAR
STARTCHAR 0353
ENCODING 851
SWIDTH 0 0
DWIDTH 0 0
BBX 4 4 -3 -4
BITMAP
90
60
60
90
ENDCHAR
STARTCHAR 0354
ENCODING 852
SWIDTH 0 0
DWIDTH 0 0
BBX 2 3 -2 -3
BITMAP
40
80
40
ENDCHAR
STARTCHAR 0355
ENCODING 853
SWIDTH 0 0
DWIDTH 0 0
BBX 2 3 -2 -3
BITMAP
80
40
80
ENDCHAR
STARTCHAR 0356
ENCODING 854
SWIDTH 0 0
DWIDTH 0 0
BBX 5 3 -3 -3
BITMAP
80
50
A8
ENDCHAR
STARTCHAR 0357
ENCODING 855
SWIDTH 0 0
DWIDTH 0 0
BBX 2 3 1 9
BITMAP
C0
40
C0
ENDCHAR
STARTCHAR 0358
ENCODING 856
SWIDTH 0 0
DWIDTH 0 0
BBX 1 1 2 10
BITMAP
80
ENDCHAR
STARTCHAR 0359
ENCODING 857
SWIDTH 0 0
DWIDTH 0 0
BBX 5 4 -3 -4
BITMAP
20
F8
20
50
ENDCHAR
STARTCHAR 035A
ENCODING 858
SWIDTH 0 0
DWIDTH 0 0
BBX 5 3 -3 -3
BITMAP
D8
A8
D8
ENDCHAR
STARTCHAR 035B
ENCODING 859
SWIDTH 0 0
DWIDTH 0 0
BBX 3 5 0 9
BITMAP
40
80
E0
20
40
ENDCHAR
STARTCHAR 035C
ENCODING 860
SWIDTH 0 0
DWIDTH 0 0
BBX 12 3 -1 -3
BITMAP
8030
4040
3F80
ENDCHAR
STARTCHAR 035D
ENCODING 861
SWIDTH 0 0
DWIDTH 0 0
BBX 12 3 -1 10
BITMAP
8030
6040
1F80
ENDCHAR
STARTCHAR 035E
ENCODING 862
SWIDTH 0 0
DWIDTH 0 0
BBX 10 2 -2 10
BITMAP
FFC0
FFC0
ENDCHAR
STARTCHAR 035F
ENCODING 863
SWIDTH 0 0
DWIDTH 0 0
BBX 10 2 -2 -2
BITMAP
FFC0
FFC0
ENDCHAR
STARTCHAR 0360
ENCODING 864
SWIDTH 0 0
DWIDTH 0 0
BBX 13 2 -1 10
BITMAP
3C08
C3F0
ENDCHAR
STARTCHAR 0361
ENCODING 865
SWIDTH 0 0
DWIDTH 0 0
BBX 12 3 -1 10
BITMAP
1F80
2060
C010
ENDCHAR
STARTCHAR 0362
ENCODING 866
SWIDTH 0 0
DWIDTH 0 0
BBX 10 3 -1 -4
BITMAP
0080
FFC0
0080
ENDCHAR
STARTCHAR 0363
ENCODING 867
SWIDTH 0 0
DWIDTH 0 0
BBX 6 6 -2 4
BITMAP
3C
7C
0C
7C
CC
FC
ENDCHAR
STARTCHAR 0364
ENCODING 868
SWIDTH 0 0
DWIDTH 0 0
BBX 7 6 -2 4
BITMAP
3C
46
FE
C0
FE
7C
ENDCHAR
STARTCHAR 0365
ENCODING 869
SWIDTH 0 0
DWIDTH 0 0
BBX 4 8 -1 4
BITMAP
30
00
60
60
60
60
C0
C0
ENDCHAR
STARTCHAR 0366
ENCODING 870
SWIDTH 0 0
DWIDTH 0 0
BBX 7 6 -3 4
BITMAP
3C
7E
C6
C6
FC
78
ENDCHAR
STARTCHAR 0367
ENCODING 871
SWIDTH 0 0
DWIDTH 0 0
BBX 7 6 -2 4
BITMAP
66
66
C6
CC
FC
FC
ENDCHAR
STARTCHAR 0368
ENCODING 872
SWIDTH 0 0
DWIDTH 0 0
BBX 6 6 -2 4
BITMAP
38
7C
C0
C0
FC
78
ENDCHAR
STARTCHAR 0369
ENCODING 873
SWIDTH 0 0
DWIDTH 0 0
BBX 8 8 -3 4
BITMAP
03
06
7E
7E
C6
CE
FC
7C
ENDCHAR
STARTCHAR 036A
ENCODING 874
SWIDTH 0 0
DWIDTH 0 0
BBX 7 8 -2 4
BITMAP
30
60
6E
7E
66
66
CC
CC
ENDCHAR
STARTCHAR 036B
ENCODING 875
SWIDTH 0 0
DWIDTH 0 0
BBX 11 6 -5 4
BITMAP
6EE0
7FE0
6660
6660
CCC0
CCC0
ENDCHAR
STARTCHAR 036C
ENCODING 876
SWIDTH 0 0
DWIDTH 0 0
BBX 6 6 -1 4
BITMAP
6C
78
60
60
C0
C0
ENDCHAR
STARTCHAR 036D
ENCODING 877
SWIDTH 0 0
DWIDTH 0 0
BBX 4 8 0 4
BITMAP
10
60
F0
F0
60
C0
E0
E0
ENDCHAR
STARTCHAR 036E
ENCODING 878
SWIDTH 0 0
DWIDTH 0 0
BBX 7 6 -2 4
BITMAP
C6
CC
D8
D8
70
70
ENDCHAR
STARTCHAR 036F
ENCODING 879
SWIDTH 0 0
DWIDTH 0 0
BBX 7 6 -3 4
BITMAP
66
3C
38
38
78
CC
ENDCHAR
STARTCHAR 0370
ENCODING 880
SWIDTH 540 0
DWIDTH 9 0
BBX 8 12 1 0
BITMAP
30
30
30
30
30
7F
7F
60
60
60
C0
C0
ENDCHAR
STARTCHAR 0371
ENCODING 881
SWIDTH 480 0
DWIDTH 8 0
BBX 7 9 1 0
BITMAP
E0
E0
60
7E
7E
60
60
C0
C0
ENDCHAR
STARTCHAR 0372
ENCODING 882
SWIDTH 600 0
DWIDTH 10 0
BBX 10 12 2 0
BITMAP
7FC0
7FC0
6CC0
CD80
CD80
1800
1800
1800
1800
1800
3000
3000
ENDCHAR
STARTCHAR 0373
ENCODING 883
SWIDTH 600 0
DWIDTH 10 0
BBX 9 12 2 0
BITMAP
7F80
FF80
DB00
1800
1800
3000
3000
3000
3000
3000
6000
6000
ENDCHAR
STARTCHAR 0374
ENCODING 884
SWIDTH 360 0
DWIDTH 6 0
BBX 4 2 3 10
BITMAP
70
E0
ENDCHAR
STARTCHAR 0375
ENCODING 885
SWIDTH 360 0
DWIDTH 6 0
BBX 3 2 0 -3
BITMAP
60
C0
ENDCHAR
STARTCHAR 0376
ENCODING 886
SWIDTH 720 0
DWIDTH 12 0
BBX 11 12 1 0
BITMAP
3060
30E0
31E0
63C0
67C0
6EC0
7CC0
78C0
70C0
E180
C180
8180
ENDCHAR
STARTCHAR 0377
ENCODING 887
SWIDTH 600 0
DWIDTH 10 0
BBX 9 9 1 0
BITMAP
3180
3380
6780
6F80
7F00
7B00
7300
E380
C380
ENDCHAR
STARTCHAR 037A
ENCODING 890
SWIDTH 360 0
DWIDTH 6 0
BBX 2 2 1 -3
BITMAP
40
C0
ENDCHAR
STARTCHAR 037B
ENCODING 891
SWIDTH 540 0
DWIDTH 9 0
BBX 8 9 1 0
BITMAP
1E
3F
73
63
03
03
C6
FE
78
ENDCHAR
STARTCHAR 037C
ENCODING 892
SWIDTH 540 0
DWIDTH 9 0
BBX 8 9 1 0
BITMAP
1E
7F
63
C0
D8
D8
C3
7E
3C
ENDCHAR
STARTCHAR 037D
ENCODING 893
SWIDTH 540 0
DWIDTH 9 0
BBX 8 9 1 0
BITMAP
1E
3F
73
63
1B
1B
C6
FE
78
ENDCHAR
STARTCHAR 037E
ENCODING 894
SWIDTH 360 0
DWIDTH 6 0
BBX 4 12 1 -3
BITMAP
30
30
00
00
00
00
00
60
60
20
60
C0
ENDCHAR
STARTCHAR 037F
ENCODING 895
SWIDTH 540 0
DWIDTH 9 0
BBX 10 12 0 0
BITMAP
00C0
00C0
00C0
0180
0180
0180
0180
0180
C300
C300
FF00
7C00
ENDCHAR
STARTCHAR 0384
ENCODING 900
SWIDTH 360 0
DWIDTH 6 0
BBX 3 2 3 10
BITMAP
60
C0
ENDCHAR
STARTCHAR 0385
ENCODING 901
SWIDTH 360 0
DWIDTH 6 0
BBX 8 3 0 10
BITMAP
1C
DB
F3
ENDCHAR
STARTCHAR 0386
ENCODING 902
SWIDTH 720 0
DWIDTH 12 0
BBX 11 12 0 0
BITMAP
1D80
3380
0380
06C0
0EC0
0CC0
18C0
1FC0
3FC0
7060
6060
C060
ENDCHAR
STARTCHAR 0387
ENCODING 903
SWIDTH 360 0
DWIDTH 6 0
BBX 2 2 3 7
BITMAP
C0
C0
ENDCHAR
STARTCHAR 0388
ENCODING 904
SWIDTH 900 0
DWIDTH 15 0
BBX 15 12 1 0
BITMAP
77FE
C7FE
0600
0C00
0C00
0FF8
0FF8
0C00
0C00
1800
1FF8
1FF8
ENDCHAR
STARTCHAR 0389
ENCODING 905
SWIDTH 900 0
DWIDTH 15 0
BBX 14 12 1 0
BITMAP
760C
C60C
060C
0C18
0C18
0FF8
0FF8
0C18
0C18
1830
1830
1830
ENDCHAR
STARTCHAR 038A
ENCODING 906
SWIDTH 480 0
DWIDTH 8 0
BBX 7 12 1 0
BITMAP
76
C6
06
0C
0C
0C
0C
0C
0C
18
18
18
ENDCHAR
STARTCHAR 038C
ENCODING 908
SWIDTH 840 0
DWIDTH 14 0
BBX 13 12 1 0
BITMAP
73E0
EFF0
1C38
1818
3818
3018
3018
3038
3030
3870
1FE0
0F80
ENDCHAR
STARTCHAR 038E
ENCODING 910
SWIDTH 960 0
DWIDTH 16 0
BBX 16 12 2 0
BITMAP
7607
C30E
031C
0398
01B0
01E0
00E0
00C0
00C0
0180
0180
0180
ENDCHAR
STARTCHAR 038F
ENCODING 911
SWIDTH 840 0
DWIDTH 14 0
BBX 13 12 1 0
BITMAP
73E0
EFF0
1C30
1818
3818
3018
3018
3030
3030
1060
F9F0
F9F0
ENDCHAR
STARTCHAR 0390
ENCODING 912
SWIDTH 240 0
DWIDTH 4 0
BBX 8 13 0 0
BITMAP
1C
DB
F3
00
30
30
30
30
30
30
60
60
60
ENDCHAR
STARTCHAR 0391
ENCODING 913
SWIDTH 720 0
DWIDTH 12 0
BBX 11 12 0 0
BITMAP
0180
0380
0380
06C0
0EC0
0CC0
18C0
1FC0
3FC0
7060
6060
C060
ENDCHAR
STARTCHAR 0392
ENCODING 914
SWIDTH 720 0
DWIDTH 12 0
BBX 10 12 1 0
BITMAP
3F80
3FC0
30C0
60C0
61C0
7F80
7F80
60C0
60C0
C1C0
FF80
FF00
ENDCHAR
STARTCHAR 0393
ENCODING 915
SWIDTH 600 0
DWIDTH 10 0
BBX 10 12 1 0
BITMAP
3FC0
3FC0
3000
6000
6000
6000
6000
6000
6000
C000
C000
C000
ENDCHAR
STARTCHAR 0394
ENCODING 916
SWIDTH 660 0
DWIDTH 11 0
BBX 10 12 0 0
BITMAP
0700
0700
0D80
0D80
1D80
1980
3980
30C0
70C0
60C0
FFC0
FFC0
ENDCHAR
STARTCHAR 0395
ENCODING 917
SWIDTH 660 0
DWIDTH 11 0
BBX 11 12 1 0
BITMAP
3FE0
3FE0
3000
6000
6000
7F80
7F80
6000
6000
C000
FF80
FF80
ENDCHAR
STARTCHAR 0396
ENCODING 918
SWIDTH 600 0
DWIDTH 10 0
BBX 11 12 0 0
BITMAP
3FE0
3FE0
00C0
0180
0300
0600
0C00
1800
3000
6000
FFC0
FFC0
ENDCHAR
STARTCHAR 0397
ENCODING 919
SWIDTH 720 0
DWIDTH 12 0
BBX 11 12 1 0
BITMAP
3060
3060
3060
60C0
60C0
7FC0
7FC0
60C0
60C0
C180
C180
C180
ENDCHAR
STARTCHAR 0398
ENCODING 920
SWIDTH 780 0
DWIDTH 13 0
BBX 12 12 1 0
BITMAP
0F80
1FE0
3860
6030
6030
DFB0
DFB0
C060
C060
61C0
7F80
1F00
ENDCHAR
STARTCHAR 0399
ENCODING 921
SWIDTH 300 0
DWIDTH 5 0
BBX 4 12 1 0
BITMAP
30
30
30
60
60
60
60
60
60
C0
C0
C0
ENDCHAR
STARTCHAR 039A
ENCODING 922
SWIDTH 720 0
DWIDTH 12 0
BBX 12 12 1 0
BITMAP
3070
30E0
31C0
6380
6700
6F00
7B80
7180
6180
C1C0
C0C0
C0E0
ENDCHAR
STARTCHAR 039B
ENCODING 923
SWIDTH 660 0
DWIDTH 11 0
BBX 10 12 0 0
BITMAP
0300
0700
0700
0D80
0D80
1980
1980
3180
3180
60C0
60C0
C0C0
ENDCHAR
STARTCHAR 039C
ENCODING 924
SWIDTH 900 0
DWIDTH 15 0
BBX 14 12 1 0
BITMAP
1E1C
3E1C
363C
362C
366C
7658
66D8
6698
6798
6718
C730
C630
ENDCHAR
STARTCHAR 039D
ENCODING 925
SWIDTH 720 0
DWIDTH 12 0
BBX 11 12 1 0
BITMAP
3060
3860
3860
7CC0
6CC0
6CC0
66C0
66C0
67C0
C380
C380
C180
ENDCHAR
STARTCHAR 039E
ENCODING 926
SWIDTH 660 0
DWIDTH 11 0
BBX 10 12 1 0
BITMAP
3FC0
3FC0
0000
0000
0000
7F80
7F80
0000
0000
0000
FF80
FF80
ENDCHAR
STARTCHAR 039F
ENCODING 927
SWIDTH 780 0
DWIDTH 13 0
BBX 12 12 1 0
BITMAP
0F80
1FE0
3860
6030
6030
C030
C030
C070
C060
61C0
7F80
1F00
ENDCHAR
STARTCHAR 03A0
ENCODING 928
SWIDTH 720 0
DWIDTH 12 0
BBX 11 12 1 0
BITMAP
3FE0
3FE0
3060
60C0
60C0
60C0
60C0
60C0
60C0
C180
C180
C180
ENDCHAR
STARTCHAR 03A1
ENCODING 929
SWIDTH 660 0
DWIDTH 11 0
BBX 11 12 1 0
BITMAP
3FC0
3FE0
3060
6060
60E0
7FC0
7F80
6000
6000
C000
C000
C000
ENDCHAR
STARTCHAR 03A3
ENCODING 931
SWIDTH 600 0
DWIDTH 10 0
BBX 11 12 0 0
BITMAP
3FE0
3FE0
3000
1800
0C00
0600
0C00
1800
3000
6000
FF80
FF80
ENDCHAR
STARTCHAR 03A4
ENCODING 932
SWIDTH 600 0
DWIDTH 10 0
BBX 9 12 2 0
BITMAP
FF80
FF80
1800
1800
3800
3000
3000
3000
7000
6000
6000
6000
ENDCHAR
STARTCHAR 03A5
ENCODING 933
SWIDTH 660 0
DWIDTH 11 0
BBX 11 12 2 0
BITMAP
C0E0
61C0
6380
7700
3600
3C00
1C00
1800
1800
3000
3000
3000
ENDCHAR
STARTCHAR 03A6
ENCODING 934
SWIDTH 840 0
DWIDTH 14 0
BBX 12 12 2 0
BITMAP
0300
1FC0
3FE0
7670
E630
C630
C670
E6E0
7FC0
3F80
0C00
0C00
ENDCHAR
STARTCHAR 03A7
ENCODING 935
SWIDTH 660 0
DWIDTH 11 0
BBX 13 12 0 0
BITMAP
3838
1870
1CE0
0DC0
0F80
0700
0600
0F00
1F80
3980
71C0
E0C0
ENDCHAR
STARTCHAR 03A8
ENCODING 936
SWIDTH 840 0
DWIDTH 14 0
BBX 13 12 2 0
BITMAP
6318
6318
6318
C630
C630
C630
6660
7FE0
1F80
0C00
0C00
0C00
ENDCHAR
STARTCHAR 03A9
ENCODING 937
SWIDTH 780 0
DWIDTH 13 0
BBX 13 12 0 0
BITMAP
03E0
0FF0
1C30
1818
3818
3018
3018
3030
3030
1060
F9F0
F9F0
ENDCHAR
STARTCHAR 03AA
ENCODING 938
SWIDTH 300 0
DWIDTH 5 0
BBX 6 15 1 0
BITMAP
CC
CC
00
30
30
30
60
60
60
60
60
60
C0
C0
C0
ENDCHAR
STARTCHAR 03AB
ENCODING 939
SWIDTH 660 0
DWIDTH 11 0
BBX 11 15 2 0
BITMAP
1980
1980
0000
C0E0
61C0
6380
7700
3600
3C00
1C00
1800
1800
3000
3000
3000
ENDCHAR
STARTCHAR 03AC
ENCODING 940
SWIDTH 600 0
DWIDTH 10 0
BBX 10 12 1 0
BITMAP
0700
0E00
0000
3DC0
7F80
6380
C300
C300
C300
C700
FF00
7B00
ENDCHAR
STARTCHAR 03AD
ENCODING 941
SWIDTH 480 0
DWIDTH 8 0
BBX 8 12 1 0
BITMAP
07
0E
00
3E
7F
60
38
78
C0
C4
FE
7C
ENDCHAR
STARTCHAR 03AE
ENCODING 942
SWIDTH 600 0
DWIDTH 10 0
BBX 9 15 1 -3
BITMAP
0700
0E00
0000
6700
7F80
7180
6180
6180
6180
C180
C300
C300
0300
0300
0300
ENDCHAR
STARTCHAR 03AF
ENCODING 943
SWIDTH 240 0
DWIDTH 4 0
BBX 5 12 1 0
BITMAP
38
70
00
60
60
60
60
60
60
C0
C0
C0
ENDCHAR
STARTCHAR 03B0
ENCODING 944
SWIDTH 600 0
DWIDTH 10 0
BBX 10 13 1 0
BITMAP
0700
36C0
3CC0
0000
6180
6180
6180
6180
C300
C300
C300
FE00
3C00
ENDCHAR
STARTCHAR 03B1
ENCODING 945
SWIDTH 600 0
DWIDTH 10 0
BBX 10 9 1 0
BITMAP
3DC0
7F80
6380
C300
C300
C300
C700
FF00
7B00
ENDCHAR
STARTCHAR 03B2
ENCODING 946
SWIDTH 600 0
DWIDTH 10 0
BBX 9 15 1 -3
BITMAP
0F00
3F80
3180
3180
6700
6700
6180
6180
6180
E380
FF00
DE00
C000
C000
C000
ENDCHAR
STARTCHAR 03B3
ENCODING 947
SWIDTH 540 0
DWIDTH 9 0
BBX 9 12 1 -3
BITMAP
C380
C300
6700
6600
6E00
6C00
7800
3800
3000
3000
3000
3000
ENDCHAR
STARTCHAR 03B4
ENCODING 948
SWIDTH 600 0
DWIDTH 10 0
BBX 10 12 1 0
BITMAP
3FC0
3FC0
1C00
3E00
7F00
6380
C180
C180
C380
E300
7F00
3C00
ENDCHAR
STARTCHAR 03B5
ENCODING 949
SWIDTH 480 0
DWIDTH 8 0
BBX 8 9 1 0
BITMAP
3E
7F
60
38
78
C0
C4
FE
7C
ENDCHAR
STARTCHAR 03B6
ENCODING 950
SWIDTH 480 0
DWIDTH 8 0
BBX 9 15 1 -3
BITMAP
1F80
1F80
0E00
1800
3000
6000
4000
C000
C000
E000
7800
3C00
0C00
1C00
3800
ENDCHAR
STARTCHAR 03B7
ENCODING 951
SWIDTH 600 0
DWIDTH 10 0
BBX 9 12 1 -3
BITMAP
6700
7F80
7180
6180
6180
6180
C180
C300
C300
0300
0300
0300
ENDCHAR
STARTCHAR 03B8
ENCODING 952
SWIDTH 540 0
DWIDTH 9 0
BBX 8 12 1 0
BITMAP
1E
3E
73
63
63
FF
FF
C6
C6
CE
7C
78
ENDCHAR
STARTCHAR 03B9
ENCODING 953
SWIDTH 240 0
DWIDTH 4 0
BBX 3 9 1 0
BITMAP
60
60
60
60
60
60
C0
C0
C0
ENDCHAR
STARTCHAR 03BA
ENCODING 954
SWIDTH 600 0
DWIDTH 10 0
BBX 9 9 1 0
BITMAP
6380
6700
6E00
7C00
7C00
6E00
C600
C700
C380
ENDCHAR
STARTCHAR 03BB
ENCODING 955
SWIDTH 540 0
DWIDTH 9 0
BBX 8 12 0 0
BITMAP
06
06
06
06
0E
0E
1B
3B
33
63
63
C3
ENDCHAR
STARTCHAR 03BC
ENCODING 956
SWIDTH 600 0
DWIDTH 10 0
BBX 9 12 1 -3
BITMAP
6180
6180
6180
6180
6180
6180
E300
FF00
DB00
C000
C000
C000
ENDCHAR
STARTCHAR 03BD
ENCODING 957
SWIDTH 540 0
DWIDTH 9 0
BBX 8 9 2 0
BITMAP
C3
C6
C6
CC
DC
58
70
70
60
ENDCHAR
STARTCHAR 03BE
ENCODING 958
SWIDTH 480 0
DWIDTH 8 0
BBX 8 15 1 -3
BITMAP
0F
1F
30
30
3E
1E
70
C0
C0
E0
78
1C
0C
1C
38
ENDCHAR
STARTCHAR 03BF
ENCODING 959
SWIDTH 600 0
DWIDTH 10 0
BBX 9 9 1 0
BITMAP
1E00
7F00
6380
C180
C180
C180
E300
7F00
3C00
ENDCHAR
STARTCHAR 03C0
ENCODING 960
SWIDTH 720 0
DWIDTH 12 0
BBX 11 9 1 0
BITMAP
FFE0
FFE0
3180
3180
3180
3180
6300
6300
6300
ENDCHAR
STARTCHAR 03C1
ENCODING 961
SWIDTH 600 0
DWIDTH 10 0
BBX 9 12 1 -3
BITMAP
1E00
3F00
7180
6180
6180
6180
E300
FF00
DC00
C000
C000
C000
ENDCHAR
STARTCHAR 03C2
ENCODING 962
SWIDTH 540 0
DWIDTH 9 0
BBX 9 12 1 -3
BITMAP
1F80
3F80
7000
E000
C000
C000
E000
7800
3C00
0C00
7C00
7800
ENDCHAR
STARTCHAR 03C3
ENCODING 963
SWIDTH 660 0
DWIDTH 11 0
BBX 11 9 1 0
BITMAP
1FE0
7FE0
6180
C180
C180
C180
E300
7F00
3C00
ENDCHAR
STARTCHAR 03C4
ENCODING 964
SWIDTH 420 0
DWIDTH 7 0
BBX 7 9 1 0
BITMAP
7E
FC
30
30
30
30
60
60
60
ENDCHAR
STARTCHAR 03C5
ENCODING 965
SWIDTH 600 0
DWIDTH 10 0
BBX 9 9 1 0
BITMAP
6180
6180
6180
6180
C300
C300
C300
FE00
3C00
ENDCHAR
STARTCHAR 03C6
ENCODING 966
SWIDTH 720 0
DWIDTH 12 0
BBX 11 12 1 -3
BITMAP
3380
77C0
EE60
CC60
CC60
CCE0
EDC0
7F80
3F00
1800
1800
1800
ENDCHAR
STARTCHAR 03C7
ENCODING 967
SWIDTH 600 0
DWIDTH 10 0
BBX 11 12 -1 -3
BITMAP
1860
1CC0
0DC0
0D80
0F00
0700
0E00
1F00
1B00
3300
6180
C180
ENDCHAR
STARTCHAR 03C8
ENCODING 968
SWIDTH 780 0
DWIDTH 13 0
BBX 10 12 2 -3
BITMAP
CCC0
CCC0
CCC0
CCC0
CCC0
CCC0
D980
FF80
7F00
1800
1800
1800
ENDCHAR
STARTCHAR 03C9
ENCODING 969
SWIDTH 840 0
DWIDTH 14 0
BBX 13 9 1 0
BITMAP
3018
6018
6318
C318
C618
C638
C630
7FF0
39E0
ENDCHAR
STARTCHAR 03CA
ENCODING 970
SWIDTH 240 0
DWIDTH 4 0
BBX 6 12 1 0
BITMAP
CC
CC
00
60
60
60
60
60
60
C0
C0
C0
ENDCHAR
STARTCHAR 03CB
ENCODING 971
SWIDTH 600 0
DWIDTH 10 0
BBX 9 12 1 0
BITMAP
3300
3300
0000
6180
6180
6180
6180
C300
C300
C300
FE00
3C00
ENDCHAR
STARTCHAR 03CC
ENCODING 972
SWIDTH 600 0
DWIDTH 10 0
BBX 9 12 1 0
BITMAP
0700
0E00
0000
1E00
7F00
6380
C180
C180
C180
E300
7F00
3C00
ENDCHAR
STARTCHAR 03CD
ENCODING 973
SWIDTH 600 0
DWIDTH 10 0
BBX 9 12 1 0
BITMAP
0E00
1C00
0000
6180
6180
6180
6180
C300
C300
C300
FE00
3C00
ENDCHAR
STARTCHAR 03CE
ENCODING 974
SWIDTH 840 0
DWIDTH 14 0
BBX 13 12 1 0
BITMAP
01C0
0380
0000
3018
6018
6318
C318
C618
C638
C630
7FF0
39E0
ENDCHAR
STARTCHAR 03CF
ENCODING 975
SWIDTH 720 0
DWIDTH 12 0
BBX 11 16 1 -4
BITMAP
3060
30C0
3180
3300
3E00
7E00
7E00
7300
6380
6180
C0C0
C1C0
0380
0700
0E00
0400
ENDCHAR
STARTCHAR 03D0
ENCODING 976
SWIDTH 600 0
DWIDTH 10 0
BBX 9 12 1 0
BITMAP
0F00
1F80
3180
7F00
6000
DF00
FF80
E180
C180
C380
FF00
7C00
ENDCHAR
STARTCHAR 03D1
ENCODING 977
SWIDTH 600 0
DWIDTH 10 0
BBX 10 12 1 0
BITMAP
0F00
1F80
3180
3180
3FC0
1FC0
E300
E300
4600
CE00
FC00
7800
ENDCHAR
STARTCHAR 03D2
ENCODING 978
SWIDTH 780 0
DWIDTH 13 0
BBX 12 12 2 0
BITMAP
C0E0
60F0
6190
7300
3600
3E00
1C00
1800
1800
1800
3000
3000
ENDCHAR
STARTCHAR 03D3
ENCODING 979
SWIDTH 1020 0
DWIDTH 17 0
BBX 17 12 1 0
BITMAP
760700
E30780
030C80
039800
01B000
01F000
00E000
00C000
00C000
00C000
018000
018000
ENDCHAR
STARTCHAR 03D4
ENCODING 980
SWIDTH 780 0
DWIDTH 13 0
BBX 12 15 2 0
BITMAP
1980
1980
0000
C0E0
60F0
6190
7300
3600
3E00
1C00
1800
1800
1800
3000
3000
ENDCHAR
STARTCHAR 03D5
ENCODING 981
SWIDTH 780 0
DWIDTH 13 0
BBX 11 15 2 -3
BITMAP
0300
0300
0300
1FC0
3FE0
7660
E660
C660
CC60
CCC0
FF80
3F00
0C00
1800
1800
ENDCHAR
STARTCHAR 03D6
ENCODING 982
SWIDTH 840 0
DWIDTH 14 0
BBX 14 9 1 0
BITMAP
FFFC
FFFC
6018
C618
C618
C638
CE30
7BF0
79C0
ENDCHAR
STARTCHAR 03D7
ENCODING 983
SWIDTH 720 0
DWIDTH 12 0
BBX 12 12 0 -3
BITMAP
7070
78E0
19E0
1BC0
1FC0
3CC0
38C0
70F0
E060
0060
01E0
01C0
ENDCHAR
STARTCHAR 03D8
ENCODING 984
SWIDTH 780 0
DWIDTH 13 0
BBX 12 15 1 -3
BITMAP
0F80
1FE0
3860
6030
6030
C030
C030
C070
C060
E1C0
7F80
1F00
0C00
1800
1800
ENDCHAR
STARTCHAR 03D9
ENCODING 985
SWIDTH 600 0
DWIDTH 10 0
BBX 9 12 1 -3
BITMAP
1E00
7F00
6180
C180
C180
C180
E300
7F00
3C00
1800
3000
3000
ENDCHAR
STARTCHAR 03DA
ENCODING 986
SWIDTH 720 0
DWIDTH 12 0
BBX 11 12 2 0
BITMAP
0F80
3FC0
70E0
6060
C000
C000
C000
E000
7C00
3C00
1800
1800
ENDCHAR
STARTCHAR 03DB
ENCODING 987
SWIDTH 540 0
DWIDTH 9 0
BBX 9 12 0 -3
BITMAP
0F00
3F80
3180
6000
6000
6000
7C00
3F00
0700
4300
FE00
FC00
ENDCHAR
STARTCHAR 03DC
ENCODING 988
SWIDTH 600 0
DWIDTH 10 0
BBX 9 12 1 0
BITMAP
3F80
3F80
3000
3000
3000
7F00
7F00
6600
6000
6000
C000
C000
ENDCHAR
STARTCHAR 03DD
ENCODING 989
SWIDTH 480 0
DWIDTH 8 0
BBX 9 12 0 -3
BITMAP
3F80
3F80
3000
3000
3F00
7F00
6600
6000
6000
6000
C000
C000
ENDCHAR
STARTCHAR 03DE
ENCODING 990
SWIDTH 780 0
DWIDTH 13 0
BBX 12 12 1 0
BITMAP
3000
7800
1810
3860
31E0
37E0
7EC0
78C0
61C0
8180
01E0
00E0
ENDCHAR
STARTCHAR 03DF
ENCODING 991
SWIDTH 540 0
DWIDTH 9 0
BBX 8 12 1 0
BITMAP
08
10
20
20
40
7F
FE
04
04
08
08
10
ENDCHAR
STARTCHAR 03E0
ENCODING 992
SWIDTH 840 0
DWIDTH 14 0
BBX 12 15 2 -3
BITMAP
1F00
7FC0
F9E0
D8E0
B070
31F0
0330
0630
0630
0630
0C20
0C60
00C0
1F80
1E00
ENDCHAR
STARTCHAR 03E1
ENCODING 993
SWIDTH 600 0
DWIDTH 10 0
BBX 7 15 2 -3
BITMAP
60
F0
38
1C
1E
76
46
0E
3E
26
06
04
0C
0C
18
ENDCHAR
STARTCHAR 03E2
ENCODING 994
SWIDTH 900 0
DWIDTH 15 0
BBX 16 15 1 -3
BITMAP
18C3
18C6
1986
3186
3186
318E
318C
630C
630C
671C
7FF8
39D8
0018
FFF8
FFF0
ENDCHAR
STARTCHAR 03E3
ENCODING 995
SWIDTH 900 0
DWIDTH 15 0
BBX 14 12 1 -3
BITMAP
318C
318C
3198
3318
6318
6318
6738
7FF0
3BB0
0030
FFF0
FFE0
ENDCHAR
STARTCHAR 03E4
ENCODING 996
SWIDTH 660 0
DWIDTH 11 0
BBX 10 12 2 0
BITMAP
1EC0
7D80
6180
C180
C180
C300
FF00
7F00
0300
0300
0600
0600
ENDCHAR
STARTCHAR 03E5
ENCODING 997
SWIDTH 600 0
DWIDTH 10 0
BBX 8 12 2 0
BITMAP
3B
7B
63
63
C3
C6
CE
FE
76
06
0C
0C
ENDCHAR
STARTCHAR 03E6
ENCODING 998
SWIDTH 720 0
DWIDTH 12 0
BBX 11 15 0 -3
BITMAP
1C00
1800
1800
1800
1FC0
3FE0
3060
3060
3060
3060
60E0
60C0
0180
FF80
FE00
ENDCHAR
STARTCHAR 03E7
ENCODING 999
SWIDTH 600 0
DWIDTH 10 0
BBX 11 10 0 0
BITMAP
0040
0F60
1FC0
31C0
3FC0
1EC0
00C0
7180
7F00
CE00
ENDCHAR
STARTCHAR 03E8
ENCODING 1000
SWIDTH 660 0
DWIDTH 11 0
BBX 10 12 1 0
BITMAP
0F80
1FC0
38C0
30C0
0380
3F00
7C00
E180
C180
C380
FF00
7E00
ENDCHAR
STARTCHAR 03E9
ENCODING 1001
SWIDTH 660 0
DWIDTH 11 0
BBX 11 12 1 0
BITMAP
07C0
1FE0
1860
3060
03C0
1F80
7E00
E000
C000
C180
FF80
3F00
ENDCHAR
STARTCHAR 03EA
ENCODING 1002
SWIDTH 660 0
DWIDTH 11 0
BBX 11 12 1 0
BITMAP
71E0
7BC0
1B00
1E00
0C00
1C00
1E00
3600
6600
E300
FF00
FF00
ENDCHAR
STARTCHAR 03EB
ENCODING 1003
SWIDTH 600 0
DWIDTH 10 0
BBX 10 9 1 0
BITMAP
73C0
7F80
1E00
1C00
3E00
7600
E700
FF00
FF00
ENDCHAR
STARTCHAR 03EC
ENCODING 1004
SWIDTH 780 0
DWIDTH 13 0
BBX 12 12 1 0
BITMAP
03F0
0FF0
3800
2FC0
7FE0
F070
E030
C030
C070
E0E0
7FC0
3F00
ENDCHAR
STARTCHAR 03ED
ENCODING 1005
SWIDTH 600 0
DWIDTH 10 0
BBX 10 9 1 0
BITMAP
0FC0
3FC0
7000
FF00
DF80
C180
C180
FF00
7E00
ENDCHAR
STARTCHAR 03EE
ENCODING 1006
SWIDTH 540 0
DWIDTH 9 0
BBX 7 12 1 0
BITMAP
1C
18
7E
FE
9A
B2
30
30
30
30
60
60
ENDCHAR
STARTCHAR 03EF
ENCODING 1007
SWIDTH 420 0
DWIDTH 7 0
BBX 8 12 0 0
BITMAP
0E
0C
0C
FF
FF
D8
18
18
18
30
30
70
ENDCHAR
STARTCHAR 03F0
ENCODING 1008
SWIDTH 720 0
DWIDTH 12 0
BBX 11 9 1 0
BITMAP
E060
F0C0
31C0
3780
3F80
7D80
7180
61C0
C0C0
ENDCHAR
STARTCHAR 03F1
ENCODING 1009
SWIDTH 660 0
DWIDTH 11 0
BBX 10 12 1 -3
BITMAP
0F00
1F80
30C0
70C0
60C0
E1C0
E380
FF00
DE00
E000
7F00
3F00
ENDCHAR
STARTCHAR 03F2
ENCODING 1010
SWIDTH 540 0
DWIDTH 9 0
BBX 8 9 1 0
BITMAP
1E
7F
63
C0
C0
C0
C3
7E
3C
ENDCHAR
STARTCHAR 03F3
ENCODING 1011
SWIDTH 240 0
DWIDTH 4 0
BBX 7 15 -2 -3
BITMAP
06
06
00
0C
0C
0C
0C
0C
0C
18
18
18
18
F0
F0
ENDCHAR
STARTCHAR 03F4
ENCODING 1012
SWIDTH 780 0
DWIDTH 13 0
BBX 12 12 1 0
BITMAP
0F80
1FE0
3860
6030
6030
FFF0
FFF0
C070
C060
E1C0
7F80
1F00
ENDCHAR
STARTCHAR 03F5
ENCODING 1013
SWIDTH 480 0
DWIDTH 8 0
BBX 7 9 1 0
BITMAP
1E
7E
60
C0
F8
C0
C0
7C
3C
ENDCHAR
STARTCHAR 03F6
ENCODING 1014
SWIDTH 480 0
DWIDTH 8 0
BBX 8 9 0 0
BITMAP
7C
7E
03
03
1F
03
06
FE
F8
ENDCHAR
STARTCHAR 03F7
ENCODING 1015
SWIDTH 660 0
DWIDTH 11 0
BBX 10 12 1 0
BITMAP
3000
3000
3F80
3FC0
60C0
60C0
60C0
61C0
7F80
FF00
C000
C000
ENDCHAR
STARTCHAR 03F8
ENCODING 1016
SWIDTH 600 0
DWIDTH 10 0
BBX 9 15 1 -3
BITMAP
3000
3000
3000
6F00
7F80
7180
6180
6180
6180
6300
FF00
DE00
C000
C000
C000
ENDCHAR
STARTCHAR 03F9
ENCODING 1017
SWIDTH 720 0
DWIDTH 12 0
BBX 11 12 1 0
BITMAP
0F80
3FC0
70E0
6060
E000
C000
C000
C000
C0C0
E180
7F80
3E00
ENDCHAR
STARTCHAR 03FA
ENCODING 1018
SWIDTH 840 0
DWIDTH 14 0
BBX 14 12 1 0
BITMAP
381C
3C38
3C78
37D8
3798
6330
6030
6030
6030
6030
C060
C060
ENDCHAR
STARTCHAR 03FB
ENCODING 1019
SWIDTH 780 0
DWIDTH 13 0
BBX 13 12 0 -3
BITMAP
1838
3C78
3C70
3CF0
35B0
35B0
6730
6760
6660
6000
C000
C000
ENDCHAR
STARTCHAR 03FC
ENCODING 1020
SWIDTH 600 0
DWIDTH 10 0
BBX 11 12 -1 -3
BITMAP
0780
0FC0
1C60
1860
1860
1860
38C0
3FC0
3F00
3000
FC00
6000
ENDCHAR
STARTCHAR 03FD
ENCODING 1021
SWIDTH 720 0
DWIDTH 12 0
BBX 11 12 1 0
BITMAP
0F80
1FC0
38E0
7060
6060
0060
0060
00E0
C0C0
E1C0
7F80
3E00
ENDCHAR
STARTCHAR 03FE
ENCODING 1022
SWIDTH 720 0
DWIDTH 12 0
BBX 11 12 2 0
BITMAP
0F80
3FC0
70E0
6060
E000
CC00
CC00
C000
C0C0
E180
7F80
3E00
ENDCHAR
STARTCHAR 03FF
ENCODING 1023
SWIDTH 720 0
DWIDTH 12 0
BBX 11 12 1 0
BITMAP
0F80
3FC0
30E0
6060
0060
0C60
0C60
00E0
C0C0
E1C0
7F80
3E00
ENDCHAR
STARTCHAR 0400
ENCODING 1024
SWIDTH 660 0
DWIDTH 11 0
BBX 11 15 1 0
BITMAP
0E00
0700
0000
3FE0
3FE0
3000
6000
6000
7F80
7F80
6000
6000
C000
FF80
FF80
ENDCHAR
STARTCHAR 0401
ENCODING 1025
SWIDTH 660 0
DWIDTH 11 0
BBX 11 15 1 0
BITMAP
0CC0
0CC0
0000
3FE0
3FE0
3000
6000
6000
7F80
7F80
6000
6000
C000
FF80
FF80
ENDCHAR
STARTCHAR 0402
ENCODING 1026
SWIDTH 900 0
DWIDTH 15 0
BBX 13 12 1 0
BITMAP
FFC0
FFC0
0C00
0C00
1BE0
1FF0
1C38
1818
1818
3038
33F0
33C0
ENDCHAR
STARTCHAR 0403
ENCODING 1027
SWIDTH 600 0
DWIDTH 10 0
BBX 10 15 1 0
BITMAP
0700
0E00
0000
3FC0
3FC0
3000
6000
6000
6000
6000
6000
6000
C000
C000
C000
ENDCHAR
STARTCHAR 0404
ENCODING 1028
SWIDTH 720 0
DWIDTH 12 0
BBX 11 12 1 0
BITMAP
0F80
3FC0
70E0
6060
C000
FE00
FE00
C000
C0C0
E180
7F00
3E00
ENDCHAR
STARTCHAR 0405
ENCODING 1029
SWIDTH 660 0
DWIDTH 11 0
BBX 10 12 1 0
BITMAP
1F00
3F80
61C0
60C0
7000
3E00
0F00
0380
C180
E180
7F00
3E00
ENDCHAR
STARTCHAR 0406
ENCODING 1030
SWIDTH 300 0
DWIDTH 5 0
BBX 4 12 1 0
BITMAP
30
30
30
60
60
60
60
60
60
C0
C0
C0
ENDCHAR
STARTCHAR 0407
ENCODING 1031
SWIDTH 300 0
DWIDTH 5 0
BBX 6 15 1 0
BITMAP
CC
CC
00
30
30
30
60
60
60
60
60
60
C0
C0
C0
ENDCHAR
STARTCHAR 0408
ENCODING 1032
SWIDTH 540 0
DWIDTH 9 0
BBX 10 12 0 0
BITMAP
00C0
00C0
00C0
0180
0180
0180
0180
0180
C300
C300
FF00
7C00
ENDCHAR
STARTCHAR 0409
ENCODING 1033
SWIDTH 1140 0
DWIDTH 19 0
BBX 19 12 0 0
BITMAP
0FF000
0FF000
0C3000
183000
186000
187FC0
187FE0
186060
186060
3060E0
F0FFC0
E0FF80
ENDCHAR
STARTCHAR 040A
ENCODING 1034
SWIDTH 1080 0
DWIDTH 18 0
BBX 17 12 1 0
BITMAP
30C000
30C000
30C000
618000
618000
7FFF00
7FFF80
618180
618180
C30380
C3FF00
C3FE00
ENDCHAR
STARTCHAR 040B
ENCODING 1035
SWIDTH 900 0
DWIDTH 15 0
BBX 12 12 2 0
BITMAP
FF80
FF80
0C00
1800
1FC0
1FE0
1870
1830
1830
3060
3060
3060
ENDCHAR
STARTCHAR 040C
ENCODING 1036
SWIDTH 600 0
DWIDTH 10 0
BBX 10 15 1 0
BITMAP
0700
0E00
0000
30C0
3180
3300
6600
6C00
7800
7C00
6600
6600
C600
C300
C300
ENDCHAR
STARTCHAR 040D
ENCODING 1037
SWIDTH 720 0
DWIDTH 12 0
BBX 11 15 1 0
BITMAP
0E00
0700
0000
3060
30E0
31E0
63C0
67C0
6EC0
7CC0
78C0
70C0
E180
C180
8180
ENDCHAR
STARTCHAR 040E
ENCODING 1038
SWIDTH 720 0
DWIDTH 12 0
BBX 11 15 2 0
BITMAP
0880
0700
0000
6060
60C0
3180
3380
3300
3600
3E00
1C00
1800
3000
F000
E000
ENDCHAR
STARTCHAR 040F
ENCODING 1039
SWIDTH 720 0
DWIDTH 12 0
BBX 11 15 1 -3
BITMAP
3060
3060
3060
60C0
60C0
60C0
60C0
60C0
60C0
C180
FF80
FF80
0C00
0C00
0C00
ENDCHAR
STARTCHAR 0410
ENCODING 1040
SWIDTH 720 0
DWIDTH 12 0
BBX 11 12 0 0
BITMAP
0180
0380
0380
06C0
0EC0
0CC0
18C0
1FC0
3FC0
7060
6060
C060
ENDCHAR
STARTCHAR 0411
ENCODING 1041
SWIDTH 720 0
DWIDTH 12 0
BBX 11 12 1 0
BITMAP
3FE0
3FE0
3000
6000
6000
7FC0
7FE0
6060
6060
C0E0
FFC0
FF80
ENDCHAR
STARTCHAR 0412
ENCODING 1042
SWIDTH 720 0
DWIDTH 12 0
BBX 10 12 1 0
BITMAP
3F80
3FC0
30C0
60C0
61C0
7F80
7F80
60C0
60C0
C1C0
FF80
FF00
ENDCHAR
STARTCHAR 0413
ENCODING 1043
SWIDTH 600 0
DWIDTH 10 0
BBX 10 12 1 0
BITMAP
3FC0
3FC0
3000
6000
6000
6000
6000
6000
6000
C000
C000
C000
ENDCHAR
STARTCHAR 0414
ENCODING 1044
SWIDTH 720 0
DWIDTH 12 0
BBX 13 15 -1 -3
BITMAP
07F8
07F8
0618
0630
0E30
0C30
0C30
1830
1830
3860
FFF0
FFF0
C030
C030
C030
ENDCHAR
STARTCHAR 0415
ENCODING 1045
SWIDTH 660 0
DWIDTH 11 0
BBX 11 12 1 0
BITMAP
3FE0
3FE0
3000
6000
6000
7F80
7F80
6000
6000
C000
FF80
FF80
ENDCHAR
STARTCHAR 0416
ENCODING 1046
SWIDTH 960 0
DWIDTH 16 0
BBX 17 12 1 0
BITMAP
38C380
38C780
1CCE00
0D9C00
0D9800
07F000
0FF000
19B800
319800
731800
631800
C30C00
ENDCHAR
STARTCHAR 0417
ENCODING 1047
SWIDTH 660 0
DWIDTH 11 0
BBX 10 12 1 0
BITMAP
0F00
1F80
38C0
10C0
01C0
0780
0F00
0180
4180
E380
7F00
3E00
ENDCHAR
STARTCHAR 0418
ENCODING 1048
SWIDTH 720 0
DWIDTH 12 0
BBX 11 12 1 0
BITMAP
3060
30E0
31E0
63C0
67C0
6EC0
7CC0
78C0
70C0
E180
C180
8180
ENDCHAR
STARTCHAR 0419
ENCODING 1049
SWIDTH 720 0
DWIDTH 12 0
BBX 11 15 1 0
BITMAP
0880
0700
0000
3060
30E0
31E0
63C0
67C0
6EC0
7CC0
78C0
70C0
E180
C180
8180
ENDCHAR
STARTCHAR 041A
ENCODING 1050
SWIDTH 600 0
DWIDTH 10 0
BBX 10 12 1 0
BITMAP
30C0
3180
3300
6600
6C00
7800
7C00
6600
6600
C600
C300
C300
ENDCHAR
STARTCHAR 041B
ENCODING 1051
SWIDTH 720 0
DWIDTH 12 0
BBX 12 12 0 0
BITMAP
0FF0
0FF0
0C30
1860
1860
1860
1860
1860
1860
30C0
F0C0
E0C0
ENDCHAR
STARTCHAR 041C
ENCODING 1052
SWIDTH 900 0
DWIDTH 15 0
BBX 14 12 1 0
BITMAP
1E1C
3E1C
363C
362C
366C
7658
66D8
6698
6798
6718
C730
C630
ENDCHAR
STARTCHAR 041D
ENCODING 1053
SWIDTH 720 0
DWIDTH 12 0
BBX 11 12 1 0
BITMAP
3060
3060
3060
60C0
60C0
7FC0
7FC0
60C0
60C0
C180
C180
C180
ENDCHAR
STARTCHAR 041E
ENCODING 1054
SWIDTH 780 0
DWIDTH 13 0
BBX 12 12 1 0
BITMAP
0F80
1FE0
3860
6030
6030
C030
C030
C070
C060
61C0
7F80
1F00
ENDCHAR
STARTCHAR 041F
ENCODING 1055
SWIDTH 720 0
DWIDTH 12 0
BBX 11 12 1 0
BITMAP
3FE0
3FE0
3060
60C0
60C0
60C0
60C0
60C0
60C0
C180
C180
C180
ENDCHAR
STARTCHAR 0420
ENCODING 1056
SWIDTH 660 0
DWIDTH 11 0
BBX 11 12 1 0
BITMAP
3FC0
3FE0
3060
6060
60E0
7FC0
7F80
6000
6000
C000
C000
C000
ENDCHAR
STARTCHAR 0421
ENCODING 1057
SWIDTH 720 0
DWIDTH 12 0
BBX 11 12 1 0
BITMAP
0F80
3FC0
70E0
6060
E000
C000
C000
C000
C0C0
E180
7F80
3E00
ENDCHAR
STARTCHAR 0422
ENCODING 1058
SWIDTH 600 0
DWIDTH 10 0
BBX 9 12 2 0
BITMAP
FF80
FF80
1800
1800
3800
3000
3000
3000
7000
6000
6000
6000
ENDCHAR
STARTCHAR 0423
ENCODING 1059
SWIDTH 720 0
DWIDTH 12 0
BBX 11 12 2 0
BITMAP
6060
60C0
3180
3380
3300
3600
3E00
1C00
1800
3000
F000
E000
ENDCHAR
STARTCHAR 0424
ENCODING 1060
SWIDTH 780 0
DWIDTH 13 0
BBX 12 12 1 0
BITMAP
0300
0300
1FC0
7FE0
6670
C630
C630
E660
7FE0
3F80
0C00
0C00
ENDCHAR
STARTCHAR 0425
ENCODING 1061
SWIDTH 660 0
DWIDTH 11 0
BBX 13 12 0 0
BITMAP
3838
1870
1CE0
0DC0
0F80
0700
0600
0F00
1F80
3980
71C0
E0C0
ENDCHAR
STARTCHAR 0426
ENCODING 1062
SWIDTH 720 0
DWIDTH 12 0
BBX 11 15 1 -3
BITMAP
3060
3060
3060
60C0
60C0
60C0
60C0
60C0
60C0
C180
FFC0
FFC0
00C0
00C0
00C0
ENDCHAR
STARTCHAR 0427
ENCODING 1063
SWIDTH 720 0
DWIDTH 12 0
BBX 10 12 2 0
BITMAP
60C0
60C0
60C0
C180
C180
E180
7F80
7D80
0180
0300
0300
0300
ENDCHAR
STARTCHAR 0428
ENCODING 1064
SWIDTH 1020 0
DWIDTH 17 0
BBX 16 12 1 0
BITMAP
30C3
30C3
30C3
6186
6186
6186
6186
6186
6186
C30C
FFFC
FFFC
ENDCHAR
STARTCHAR 0429
ENCODING 1065
SWIDTH 1020 0
DWIDTH 17 0
BBX 16 15 1 -3
BITMAP
30C3
30C3
30C3
60C6
6186
6186
6186
6186
6186
C18C
FFFF
FFFE
0006
0006
0006
ENDCHAR
STARTCHAR 042A
ENCODING 1066
SWIDTH 900 0
DWIDTH 15 0
BBX 13 12 1 0
BITMAP
FC00
FC00
0C00
1800
1800
1FF0
1FF8
1818
1818
3038
3FF0
3FE0
ENDCHAR
STARTCHAR 042B
ENCODING 1067
SWIDTH 1020 0
DWIDTH 17 0
BBX 16 12 1 0
BITMAP
3003
3003
3003
6006
6006
7FC6
7FE6
6066
6066
C0EC
FFCC
FF8C
ENDCHAR
STARTCHAR 042C
ENCODING 1068
SWIDTH 720 0
DWIDTH 12 0
BBX 11 12 1 0
BITMAP
3000
3000
3000
6000
6000
7FC0
7FE0
6060
6060
C0E0
FFC0
FF80
ENDCHAR
STARTCHAR 042D
ENCODING 1069
SWIDTH 720 0
DWIDTH 12 0
BBX 11 12 1 0
BITMAP
1F00
3FC0
70E0
2060
0060
0FE0
0FE0
4060
C0C0
61C0
7F80
3E00
ENDCHAR
STARTCHAR 042E
ENCODING 1070
SWIDTH 1080 0
DWIDTH 18 0
BBX 17 12 1 0
BITMAP
303E00
30FF00
31C380
618180
638180
7F0180
7F0180
630180
630300
C18700
C1FE00
C0F800
ENDCHAR
STARTCHAR 042F
ENCODING 1071
SWIDTH 720 0
DWIDTH 12 0
BBX 12 12 0 0
BITMAP
0FF0
1FF0
3830
3060
3060
1FE0
0FE0
0C60
1860
30C0
60C0
C0C0
ENDCHAR
STARTCHAR 0430
ENCODING 1072
SWIDTH 540 0
DWIDTH 9 0
BBX 8 9 1 0
BITMAP
1E
3F
63
03
7F
C6
C6
FE
76
ENDCHAR
STARTCHAR 0431
ENCODING 1073
SWIDTH 660 0
DWIDTH 11 0
BBX 11 13 1 0
BITMAP
0060
0FE0
1FC0
3000
6F00
7F80
F1C0
E0C0
C0C0
C1C0
E380
7F00
3E00
ENDCHAR
STARTCHAR 0432
ENCODING 1074
SWIDTH 600 0
DWIDTH 10 0
BBX 9 9 1 0
BITMAP
1F00
7F80
6180
C180
FE00
C180
E180
7F80
3E00
ENDCHAR
STARTCHAR 0433
ENCODING 1075
SWIDTH 540 0
DWIDTH 9 0
BBX 8 9 1 0
BITMAP
3E
7F
63
07
7E
E0
C3
FE
7C
ENDCHAR
STARTCHAR 0434
ENCODING 1076
SWIDTH 600 0
DWIDTH 10 0
BBX 9 13 1 0
BITMAP
1E00
1F00
0380
0180
1D80
3F80
6180
E180
C180
C300
C700
7E00
3C00
ENDCHAR
STARTCHAR 0435
ENCODING 1077
SWIDTH 540 0
DWIDTH 9 0
BBX 8 9 1 0
BITMAP
3E
7F
C3
FF
FF
C0
E3
7E
3C
ENDCHAR
STARTCHAR 0436
ENCODING 1078
SWIDTH 780 0
DWIDTH 13 0
BBX 14 9 0 0
BITMAP
399C
09B0
0DB0
0DA0
07C0
1B60
3B60
7330
E330
ENDCHAR
STARTCHAR 0437
ENCODING 1079
SWIDTH 540 0
DWIDTH 9 0
BBX 8 9 1 0
BITMAP
1E
3F
63
0C
0F
03
C3
7E
3C
ENDCHAR
STARTCHAR 0438
ENCODING 1080
SWIDTH 600 0
DWIDTH 10 0
BBX 9 9 1 0
BITMAP
6180
6180
6180
6180
6180
C300
C700
FF00
7B00
ENDCHAR
STARTCHAR 0439
ENCODING 1081
SWIDTH 600 0
DWIDTH 10 0
BBX 9 12 1 0
BITMAP
1100
0E00
0000
6180
6180
6180
6180
6180
C300
C700
FF00
7B00
ENDCHAR
STARTCHAR 043A
ENCODING 1082
SWIDTH 540 0
DWIDTH 9 0
BBX 8 9 1 0
BITMAP
63
67
6E
6C
78
6C
CC
C6
C6
ENDCHAR
STARTCHAR 043B
ENCODING 1083
SWIDTH 660 0
DWIDTH 11 0
BBX 11 9 0 0
BITMAP
1FE0
1FE0
1860
1860
1860
1860
30C0
F0C0
E0C0
ENDCHAR
STARTCHAR 043C
ENCODING 1084
SWIDTH 720 0
DWIDTH 12 0
BBX 11 9 1 0
BITMAP
7860
78E0
68E0
6960
6B60
6A60
CEC0
CCC0
CCC0
ENDCHAR
STARTCHAR 043D
ENCODING 1085
SWIDTH 600 0
DWIDTH 10 0
BBX 9 9 1 0
BITMAP
6180
6180
6180
7F80
7F80
6180
C300
C300
C300
ENDCHAR
STARTCHAR 043E
ENCODING 1086
SWIDTH 600 0
DWIDTH 10 0
BBX 9 9 1 0
BITMAP
1E00
7F00
6380
C180
C180
C180
E300
7F00
3C00
ENDCHAR
STARTCHAR 043F
ENCODING 1087
SWIDTH 600 0
DWIDTH 10 0
BBX 9 9 1 0
BITMAP
7F80
7F80
6180
6180
6180
6180
C300
C300
C300
ENDCHAR
STARTCHAR 0440
ENCODING 1088
SWIDTH 540 0
DWIDTH 9 0
BBX 9 12 0 -3
BITMAP
3700
3F80
3180
6180
6180
6180
6300
7F00
DE00
C000
C000
C000
ENDCHAR
STARTCHAR 0441
ENCODING 1089
SWIDTH 540 0
DWIDTH 9 0
BBX 8 9 1 0
BITMAP
1E
7F
63
C0
C0
C0
C3
7E
3C
ENDCHAR
STARTCHAR 0442
ENCODING 1090
SWIDTH 840 0
DWIDTH 14 0
BBX 13 9 1 0
BITMAP
6E70
7FF8
7398
6318
6318
6318
C630
C630
C630
ENDCHAR
STARTCHAR 0443
ENCODING 1091
SWIDTH 540 0
DWIDTH 9 0
BBX 10 12 0 -3
BITMAP
30C0
3180
3180
3300
3300
3600
3600
1C00
1C00
1800
F800
F000
ENDCHAR
STARTCHAR 0444
ENCODING 1092
SWIDTH 900 0
DWIDTH 15 0
BBX 14 15 1 -3
BITMAP
0180
0180
0180
3FF0
7FF8
678C
C30C
C30C
C30C
C718
FFF8
7EE0
0600
0600
0600
ENDCHAR
STARTCHAR 0445
ENCODING 1093
SWIDTH 540 0
DWIDTH 9 0
BBX 10 9 0 0
BITMAP
38C0
1980
1F00
0E00
0C00
1E00
3600
6700
C300
ENDCHAR
STARTCHAR 0446
ENCODING 1094
SWIDTH 660 0
DWIDTH 11 0
BBX 9 12 1 -3
BITMAP
6180
6180
6180
6180
6180
C300
C700
FF80
7B80
0180
0180
0180
ENDCHAR
STARTCHAR 0447
ENCODING 1095
SWIDTH 600 0
DWIDTH 10 0
BBX 7 9 2 0
BITMAP
C6
C6
C6
C6
FE
7E
0C
0C
0C
ENDCHAR
STARTCHAR 0448
ENCODING 1096
SWIDTH 840 0
DWIDTH 14 0
BBX 13 9 1 0
BITMAP
6318
6318
6318
6318
6318
C630
C630
FFF0
73B0
ENDCHAR
STARTCHAR 0449
ENCODING 1097
SWIDTH 900 0
DWIDTH 15 0
BBX 14 12 1 -3
BITMAP
6318
6318
6318
6318
6318
C630
C630
FFFC
739C
000C
000C
000C
ENDCHAR
STARTCHAR 044A
ENCODING 1098
SWIDTH 720 0
DWIDTH 12 0
BBX 11 9 1 0
BITMAP
F800
F800
1800
1FC0
1FE0
1860
3060
3FE0
3FC0
ENDCHAR
STARTCHAR 044B
ENCODING 1099
SWIDTH 900 0
DWIDTH 15 0
BBX 13 9 1 0
BITMAP
6018
6018
6018
7F18
7F98
6198
C1B0
FF30
FE30
ENDCHAR
STARTCHAR 044C
ENCODING 1100
SWIDTH 600 0
DWIDTH 10 0
BBX 9 9 1 0
BITMAP
6000
6000
6000
7F00
7F80
6180
C180
FF80
FF00
ENDCHAR
STARTCHAR 044D
ENCODING 1101
SWIDTH 540 0
DWIDTH 9 0
BBX 8 9 1 0
BITMAP
3C
7E
E3
03
0F
03
C6
FE
78
ENDCHAR
STARTCHAR 044E
ENCODING 1102
SWIDTH 900 0
DWIDTH 15 0
BBX 14 9 1 0
BITMAP
60F0
63F8
631C
660C
7E0C
7E0C
C718
C3F8
C1E0
ENDCHAR
STARTCHAR 044F
ENCODING 1103
SWIDTH 600 0
DWIDTH 10 0
BBX 8 9 1 0
BITMAP
3F
7F
63
63
7F
3F
66
C6
C6
ENDCHAR
STARTCHAR 0450
ENCODING 1104
SWIDTH 540 0
DWIDTH 9 0
BBX 8 12 1 0
BITMAP
38
1C
00
3E
7F
C3
FF
FF
C0
E3
7E
3C
ENDCHAR
STARTCHAR 0451
ENCODING 1105
SWIDTH 540 0
DWIDTH 9 0
BBX 8 12 1 0
BITMAP
33
33
00
3E
7F
C3
FF
FF
C0
E3
7E
3C
ENDCHAR
STARTCHAR 0452
ENCODING 1106
SWIDTH 600 0
DWIDTH 10 0
BBX 9 15 1 -3
BITMAP
3000
FF00
3000
6700
7F80
7180
6180
6180
6180
C300
C300
C300
0300
1F00
1E00
ENDCHAR
STARTCHAR 0453
ENCODING 1107
SWIDTH 480 0
DWIDTH 8 0
BBX 8 12 1 0
BITMAP
0C
18
00
7F
7F
60
60
60
60
C0
C0
C0
ENDCHAR
STARTCHAR 0454
ENCODING 1108
SWIDTH 600 0
DWIDTH 10 0
BBX 9 9 1 0
BITMAP
1E00
3F80
6180
C000
F800
C000
C380
7F00
3E00
ENDCHAR
STARTCHAR 0455
ENCODING 1109
SWIDTH 540 0
DWIDTH 9 0
BBX 8 9 1 0
BITMAP
3E
7F
63
78
3C
0E
C6
FE
7C
ENDCHAR
STARTCHAR 0456
ENCODING 1110
SWIDTH 240 0
DWIDTH 4 0
BBX 4 12 1 0
BITMAP
30
30
00
60
60
60
60
60
60
C0
C0
C0
ENDCHAR
STARTCHAR 0457
ENCODING 1111
SWIDTH 240 0
DWIDTH 4 0
BBX 6 12 1 0
BITMAP
CC
CC
00
60
60
60
60
60
60
C0
C0
C0
ENDCHAR
STARTCHAR 0458
ENCODING 1112
SWIDTH 240 0
DWIDTH 4 0
BBX 7 15 -2 -3
BITMAP
06
06
00
0C
0C
0C
0C
0C
0C
18
18
18
18
F0
F0
ENDCHAR
STARTCHAR 0459
ENCODING 1113
SWIDTH 960 0
DWIDTH 16 0
BBX 16 9 0 0
BITMAP
1FC0
1FC0
18C0
18FE
18FF
1983
3183
F1FF
E1FE
ENDCHAR
STARTCHAR 045A
ENCODING 1114
SWIDTH 900 0
DWIDTH 15 0
BBX 14 9 1 0
BITMAP
6300
6300
6300
7FF8
7FFC
630C
C60C
C7FC
C7F8
ENDCHAR
STARTCHAR 045B
ENCODING 1115
SWIDTH 600 0
DWIDTH 10 0
BBX 9 12 1 0
BITMAP
3000
FF00
3000
6700
7F80
7180
6180
6180
6180
C300
C300
C300
ENDCHAR
STARTCHAR 045C
ENCODING 1116
SWIDTH 540 0
DWIDTH 9 0
BBX 8 12 1 0
BITMAP
0E
1C
00
63
67
6E
6C
78
6C
CC
C6
C6
ENDCHAR
STARTCHAR 045D
ENCODING 1117
SWIDTH 600 0
DWIDTH 10 0
BBX 9 12 1 0
BITMAP
1C00
0E00
0000
6180
6180
6180
6180
6180
C300
C700
FF00
7B00
ENDCHAR
STARTCHAR 045E
ENCODING 1118
SWIDTH 540 0
DWIDTH 9 0
BBX 10 15 0 -3
BITMAP
0880
0700
0000
30C0
3180
3180
3300
3300
3600
3600
1C00
1C00
1800
F800
F000
ENDCHAR
STARTCHAR 045F
ENCODING 1119
SWIDTH 600 0
DWIDTH 10 0
BBX 9 12 1 -3
BITMAP
6180
6180
6180
6180
6180
C380
C700
FF00
7B00
3000
3000
3000
ENDCHAR
STARTCHAR 0460
ENCODING 1120
SWIDTH 1320 0
DWIDTH 22 0
BBX 21 12 1 0
BITMAP
07E7E0
1FC7F0
380038
700018
600018
C00018
C03018
C06030
C06070
E0F0E0
7FFFC0
3F1F80
ENDCHAR
STARTCHAR 0461
ENCODING 1121
SWIDTH 780 0
DWIDTH 13 0
BBX 14 9 1 0
BITMAP
C61C
C618
C630
C630
EE60
7FE0
7FC0
7B80
3180
ENDCHAR
STARTCHAR 0462
ENCODING 1122
SWIDTH 840 0
DWIDTH 14 0
BBX 13 12 1 0
BITMAP
0600
0C00
FFC0
0C00
0FE0
1FF0
1838
1818
1818
1838
3FF0
3FE0
ENDCHAR
STARTCHAR 0463
ENCODING 1123
SWIDTH 840 0
DWIDTH 14 0
BBX 12 9 1 0
BITMAP
3780
3F80
7900
7300
67E0
67F0
6630
C7F0
C3E0
ENDCHAR
STARTCHAR 0464
ENCODING 1124
SWIDTH 1020 0
DWIDTH 17 0
BBX 17 12 1 0
BITMAP
307E00
31FF00
33C380
330180
370000
7FF000
7FF000
660000
660300
670E00
C3FE00
C0F800
ENDCHAR
STARTCHAR 0465
ENCODING 1125
SWIDTH 840 0
DWIDTH 14 0
BBX 13 9 1 0
BITMAP
31E0
33F8
6618
6E00
7F80
6C00
6C70
C7E0
C3C0
ENDCHAR
STARTCHAR 0466
ENCODING 1126
SWIDTH 660 0
DWIDTH 11 0
BBX 11 12 0 0
BITMAP
0180
0380
0380
06C0
0EC0
0CC0
1FC0
1FC0
32C0
7260
6460
C460
ENDCHAR
STARTCHAR 0467
ENCODING 1127
SWIDTH 540 0
DWIDTH 9 0
BBX 9 9 0 0
BITMAP
0600
0E00
0E00
1B00
3B00
3F00
7700
6980
C980
ENDCHAR
STARTCHAR 0468
ENCODING 1128
SWIDTH 960 0
DWIDTH 16 0
BBX 14 12 1 0
BITMAP
1830
3070
3070
30D8
31D8
7198
7FF8
7FF8
6658
6E4C
CC8C
D88C
ENDCHAR
STARTCHAR 0469
ENCODING 1129
SWIDTH 840 0
DWIDTH 14 0
BBX 12 9 1 0
BITMAP
30C0
31C0
61C0
6360
6760
7FE0
6EE0
CD30
D930
ENDCHAR
STARTCHAR 046A
ENCODING 1130
SWIDTH 840 0
DWIDTH 14 0
BBX 14 12 0 0
BITMAP
1FFC
0FF8
0C30
0660
06C0
1FE0
3FF0
7338
6318
6318
C630
C630
ENDCHAR
STARTCHAR 046B
ENCODING 1131
SWIDTH 780 0
DWIDTH 13 0
BBX 11 9 1 0
BITMAP
1FE0
1FC0
0D80
0F00
1F80
7FC0
66C0
CCC0
CCC0
ENDCHAR
STARTCHAR 046C
ENCODING 1132
SWIDTH 1080 0
DWIDTH 18 0
BBX 17 12 1 0
BITMAP
33FF80
31FF00
318600
30CC00
30D800
7FFC00
7FFE00
676700
666300
666300
CCC600
CCC600
ENDCHAR
STARTCHAR 046D
ENCODING 1133
SWIDTH 1020 0
DWIDTH 17 0
BBX 15 9 1 0
BITMAP
31FE
31FC
60D8
60F0
7FF8
6FFC
6E6C
D8CC
D8CC
ENDCHAR
STARTCHAR 046E
ENCODING 1134
SWIDTH 660 0
DWIDTH 11 0
BBX 12 18 0 -3
BITMAP
0270
0240
0280
07C0
1FE0
3060
0060
00E0
0FC0
0F80
01C0
00C0
01C0
3F80
FF00
C000
FF80
7F80
ENDCHAR
STARTCHAR 046F
ENCODING 1135
SWIDTH 540 0
DWIDTH 9 0
BBX 10 15 0 -3
BITMAP
09C0
0900
0A00
0E00
1F00
3300
0300
0E00
0F00
0300
3F00
FE00
C000
FF00
7F00
ENDCHAR
STARTCHAR 0470
ENCODING 1136
SWIDTH 840 0
DWIDTH 14 0
BBX 11 12 3 0
BITMAP
CE60
CC60
CC60
CCC0
CCC0
D8C0
D980
FF80
7E00
1800
3000
3000
ENDCHAR
STARTCHAR 0471
ENCODING 1137
SWIDTH 780 0
DWIDTH 13 0
BBX 10 12 2 -3
BITMAP
C6C0
CCC0
CCC0
CCC0
CD80
D980
DB80
FF00
7E00
1800
3000
3000
ENDCHAR
STARTCHAR 0472
ENCODING 1138
SWIDTH 780 0
DWIDTH 13 0
BBX 12 12 1 0
BITMAP
0F80
1FE0
3860
7030
6030
C3F0
FFF0
FC30
C060
61C0
7F80
1F00
ENDCHAR
STARTCHAR 0473
ENCODING 1139
SWIDTH 600 0
DWIDTH 10 0
BBX 9 9 1 0
BITMAP
1E00
7F00
6380
E180
C780
F980
C300
7F00
3C00
ENDCHAR
STARTCHAR 0474
ENCODING 1140
SWIDTH 780 0
DWIDTH 13 0
BBX 14 12 1 0
BITMAP
C038
C07C
6064
60C0
60C0
7180
3300
3300
3600
1C00
1C00
1800
ENDCHAR
STARTCHAR 0475
ENCODING 1141
SWIDTH 600 0
DWIDTH 10 0
BBX 10 9 1 0
BITMAP
C3C0
C380
6600
6600
6C00
6C00
3800
3800
3000
ENDCHAR
STARTCHAR 0476
ENCODING 1142
SWIDTH 780 0
DWIDTH 13 0
BBX 14 15 1 0
BITMAP
0D80
06C0
0000
C038
C07C
6064
60C0
60C0
7180
3300
3300
3600
1C00
1C00
1800
ENDCHAR
STARTCHAR 0477
ENCODING 1143
SWIDTH 600 0
DWIDTH 10 0
BBX 10 12 1 0
BITMAP
6C00
3600
0000
C3C0
C380
6600
6600
6C00
6C00
3800
3800
3000
ENDCHAR
STARTCHAR 0478
ENCODING 1144
SWIDTH 1140 0
DWIDTH 19 0
BBX 18 15 1 -3
BITMAP
0F0000
3F8000
318000
61B0C0
61B180
C1B180
C1B300
C33B00
C31E00
C61E00
FE1C00
781800
003800
00F000
00E000
ENDCHAR
STARTCHAR 0479
ENCODING 1145
SWIDTH 1020 0
DWIDTH 17 0
BBX 16 12 1 -3
BITMAP
1CC3
3EC6
66C6
E6CC
C6FC
CE78
CC78
F870
7060
00E0
03C0
0380
ENDCHAR
STARTCHAR 047A
ENCODING 1146
SWIDTH 840 0
DWIDTH 14 0
BBX 13 14 1 -1
BITMAP
0180
0FE0
1FF0
3B38
6018
6018
C018
C018
C038
C030
E6E0
7FC0
3F80
0C00
ENDCHAR
STARTCHAR 047B
ENCODING 1147
SWIDTH 660 0
DWIDTH 11 0
BBX 10 11 1 -1
BITMAP
0E00
1F00
3F80
6DC0
C0C0
C0C0
C0C0
ED80
7F00
3E00
1C00
ENDCHAR
STARTCHAR 047C
ENCODING 1148
SWIDTH 1320 0
DWIDTH 22 0
BBX 21 17 1 0
BITMAP
001E00
002380
0058C0
000800
001000
07C3E0
1F87F0
380038
600018
600018
C00018
C00018
C00030
C00070
E0E0E0
7FFFC0
3F3F00
ENDCHAR
STARTCHAR 047D
ENCODING 1149
SWIDTH 900 0
DWIDTH 15 0
BBX 14 15 1 0
BITMAP
01E0
0238
058C
0080
0100
0000
1838
383C
600C
E00C
C00C
C01C
C238
FFF0
7FE0
ENDCHAR
STARTCHAR 047E
ENCODING 1150
SWIDTH 1320 0
DWIDTH 22 0
BBX 21 15 1 0
BITMAP
007F00
004900
000000
07E7E0
1FC7F0
380038
700018
600018
C00018
C03018
C06030
C06070
E0F0E0
7FFFC0
3F1F80
ENDCHAR
STARTCHAR 047F
ENCODING 1151
SWIDTH 780 0
DWIDTH 13 0
BBX 14 12 1 0
BITMAP
0FE0
0920
0000
C61C
C618
C630
C630
EE60
7FE0
7FC0
7B80
3180
ENDCHAR
STARTCHAR 0480
ENCODING 1152
SWIDTH 720 0
DWIDTH 12 0
BBX 10 15 2 -3
BITMAP
0F00
3F80
71C0
60C0
E000
C000
C000
C000
C000
E000
7800
3800
1800
3000
3000
ENDCHAR
STARTCHAR 0481
ENCODING 1153
SWIDTH 540 0
DWIDTH 9 0
BBX 8 12 2 -3
BITMAP
1E
7F
63
C0
C0
C0
C0
F0
70
30
60
60
ENDCHAR
STARTCHAR 0482
ENCODING 1154
SWIDTH 600 0
DWIDTH 10 0
BBX 10 12 1 0
BITMAP
0180
0300
2300
7E00
1F80
4FC0
FC80
7E00
1F80
3100
3000
6000
ENDCHAR
STARTCHAR 0483
ENCODING 1155
SWIDTH 0 0
DWIDTH 0 0
BBX 6 3 -2 10
BITMAP
0C
FC
C0
ENDCHAR
STARTCHAR 0484
ENCODING 1156
SWIDTH 0 0
DWIDTH 0 0
BBX 6 3 -1 10
BITMAP
1C
E4
C4
ENDCHAR
STARTCHAR 0485
ENCODING 1157
SWIDTH 0 0
DWIDTH 0 0
BBX 2 4 1 8
BITMAP
C0
C0
80
C0
ENDCHAR
STARTCHAR 0486
ENCODING 1158
SWIDTH 0 0
DWIDTH 0 0
BBX 3 4 0 8
BITMAP
60
60
40
80
ENDCHAR
STARTCHAR 0487
ENCODING 1159
SWIDTH 0 0
DWIDTH 0 0
BBX 9 3 -2 11
BITMAP
3C00
4200
8180
ENDCHAR
STARTCHAR 0488
ENCODING 1160
SWIDTH 0 0
DWIDTH 0 0
BBX 18 15 -9 -3
BITMAP
00E000
012000
380700
480480
000000
000000
700380
900240
000000
000000
000000
380700
480480
00E000
012000
ENDCHAR
STARTCHAR 0489
ENCODING 1161
SWIDTH 0 0
DWIDTH 0 0
BBX 16 17 -8 -3
BITMAP
0080
0100
2180
2007
300C
1000
0000
0000
A006
6005
0000
0008
300C
E004
0184
0080
0100
ENDCHAR
STARTCHAR 048A
ENCODING 1162
SWIDTH 720 0
DWIDTH 12 0
BBX 12 18 1 -3
BITMAP
0440
0380
0000
1830
3060
30E0
31E0
33E0
67C0
6EC0
7CC0
78C0
70C0
E1E0
C1C0
01C0
0180
0300
ENDCHAR
STARTCHAR 048B
ENCODING 1163
SWIDTH 600 0
DWIDTH 10 0
BBX 9 15 1 -3
BITMAP
1100
0E00
0000
6180
6300
6300
6300
C300
C700
C700
FF80
7700
0300
0600
0C00
ENDCHAR
STARTCHAR 048C
ENCODING 1164
SWIDTH 720 0
DWIDTH 12 0
BBX 11 12 1 0
BITMAP
3800
3000
7800
3000
3F80
7FC0
60E0
6060
6060
60E0
FFC0
FF80
ENDCHAR
STARTCHAR 048D
ENCODING 1165
SWIDTH 600 0
DWIDTH 10 0
BBX 9 12 1 0
BITMAP
1800
7800
3000
3000
3000
6000
6000
6000
7F00
6180
C180
FF00
ENDCHAR
STARTCHAR 048E
ENCODING 1166
SWIDTH 660 0
DWIDTH 11 0
BBX 11 12 1 0
BITMAP
3FC0
3FE0
3060
3060
3160
63C0
7FC0
7FC0
6080
6000
C000
C000
ENDCHAR
STARTCHAR 048F
ENCODING 1167
SWIDTH 600 0
DWIDTH 10 0
BBX 10 12 0 -3
BITMAP
3780
3FC0
38C0
30C0
30C0
73C0
7780
7F80
6F80
6100
C000
C000
ENDCHAR
STARTCHAR 0490
ENCODING 1168
SWIDTH 600 0
DWIDTH 10 0
BBX 10 15 1 0
BITMAP
00C0
00C0
00C0
3FC0
3FC0
3000
6000
6000
6000
6000
6000
6000
C000
C000
C000
ENDCHAR
STARTCHAR 0491
ENCODING 1169
SWIDTH 480 0
DWIDTH 8 0
BBX 8 12 1 0
BITMAP
03
03
03
7E
7E
60
60
60
60
C0
C0
C0
ENDCHAR
STARTCHAR 0492
ENCODING 1170
SWIDTH 600 0
DWIDTH 10 0
BBX 11 12 1 0
BITMAP
3FE0
3FE0
3000
3000
3000
FC00
FC00
6000
6000
6000
C000
C000
ENDCHAR
STARTCHAR 0493
ENCODING 1171
SWIDTH 480 0
DWIDTH 8 0
BBX 8 9 1 0
BITMAP
3F
3F
60
F8
F8
60
60
C0
C0
ENDCHAR
STARTCHAR 0494
ENCODING 1172
SWIDTH 660 0
DWIDTH 11 0
BBX 10 15 1 -3
BITMAP
3FC0
3FC0
3000
3000
3F80
7FC0
60C0
60C0
60C0
60C0
C1C0
C180
0380
FF00
7C00
ENDCHAR
STARTCHAR 0495
ENCODING 1173
SWIDTH 600 0
DWIDTH 10 0
BBX 9 12 1 -3
BITMAP
3F00
3F00
6000
6000
7F00
7F80
6180
C180
C180
0300
FF00
7C00
ENDCHAR
STARTCHAR 0496
ENCODING 1174
SWIDTH 960 0
DWIDTH 16 0
BBX 17 15 0 -3
BITMAP
38E380
38C700
0CCC00
0CCC00
0CD800
07F000
0FF000
199800
399800
318C00
630C00
E30C00
000C00
000C00
001C00
ENDCHAR
STARTCHAR 0497
ENCODING 1175
SWIDTH 780 0
DWIDTH 13 0
BBX 14 12 0 -3
BITMAP
398C
399C
1B30
1FF0
1FE0
1B70
3330
6638
E638
0018
0030
0030
ENDCHAR
STARTCHAR 0498
ENCODING 1176
SWIDTH 660 0
DWIDTH 11 0
BBX 10 15 1 -3
BITMAP
0F00
1F80
38C0
30C0
01C0
0F80
0F00
0180
4180
E380
7F00
3E00
0C00
0C00
7800
ENDCHAR
STARTCHAR 0499
ENCODING 1177
SWIDTH 540 0
DWIDTH 9 0
BBX 8 12 0 -3
BITMAP
1E
3F
63
1E
1E
03
C3
FF
7E
18
18
F0
ENDCHAR
STARTCHAR 049A
ENCODING 1178
SWIDTH 600 0
DWIDTH 10 0
BBX 11 15 1 -3
BITMAP
18E0
31E0
3180
3300
3700
7E00
7E00
6600
6300
6300
C380
C380
0380
0300
0300
ENDCHAR
STARTCHAR 049B
ENCODING 1179
SWIDTH 540 0
DWIDTH 9 0
BBX 9 12 1 -3
BITMAP
3180
3380
6600
7E00
7C00
6E00
6600
C780
C700
0300
0700
0600
ENDCHAR
STARTCHAR 049C
ENCODING 1180
SWIDTH 600 0
DWIDTH 10 0
BBX 10 12 1 0
BITMAP
18C0
35C0
3580
3700
3600
7E00
7C00
6E00
6E00
6E00
CB00
C300
ENDCHAR
STARTCHAR 049D
ENCODING 1181
SWIDTH 540 0
DWIDTH 9 0
BBX 9 9 1 0
BITMAP
6380
6F80
6E00
7C00
7C00
7C00
D600
D600
C600
ENDCHAR
STARTCHAR 049E
ENCODING 1182
SWIDTH 600 0
DWIDTH 10 0
BBX 10 12 1 0
BITMAP
31C0
33C0
7F00
3700
3600
7C00
7C00
6E00
6600
6600
C600
C300
ENDCHAR
STARTCHAR 049F
ENCODING 1183
SWIDTH 540 0
DWIDTH 9 0
BBX 8 12 1 0
BITMAP
38
78
30
33
33
66
6C
78
6C
6C
C6
C6
ENDCHAR
STARTCHAR 04A0
ENCODING 1184
SWIDTH 780 0
DWIDTH 13 0
BBX 12 12 2 0
BITMAP
FC30
F870
18C0
18C0
1980
3F00
3F00
3300
3300
3180
6180
60C0
ENDCHAR
STARTCHAR 04A1
ENCODING 1185
SWIDTH 600 0
DWIDTH 10 0
BBX 9 9 1 0
BITMAP
F980
F980
3300
3600
3C00
3600
3600
6300
6300
ENDCHAR
STARTCHAR 04A2
ENCODING 1186
SWIDTH 720 0
DWIDTH 12 0
BBX 11 15 1 -3
BITMAP
3060
3060
3060
3060
3060
7FC0
7FC0
60C0
60C0
60C0
C1E0
C1E0
0060
00C0
00C0
ENDCHAR
STARTCHAR 04A3
ENCODING 1187
SWIDTH 600 0
DWIDTH 10 0
BBX 9 12 1 -3
BITMAP
3180
3180
6300
7F00
7F00
6300
6300
C780
C780
0180
0300
0300
ENDCHAR
STARTCHAR 04A4
ENCODING 1188
SWIDTH 900 0
DWIDTH 15 0
BBX 15 12 1 0
BITMAP
307E
307E
3060
3060
3060
7FC0
7FC0
60C0
60C0
60C0
C180
C180
ENDCHAR
STARTCHAR 04A5
ENCODING 1189
SWIDTH 720 0
DWIDTH 12 0
BBX 11 9 1 0
BITMAP
31E0
31E0
6300
7F00
7F00
6300
6300
C600
C600
ENDCHAR
STARTCHAR 04A6
ENCODING 1190
SWIDTH 1140 0
DWIDTH 19 0
BBX 17 15 1 -3
BITMAP
1FF000
3FE000
306000
306000
307F00
60FF80
60C180
60C180
60C180
60C180
C18380
C18300
000700
01FE00
00F800
ENDCHAR
STARTCHAR 04A7
ENCODING 1191
SWIDTH 960 0
DWIDTH 16 0
BBX 15 12 1 -3
BITMAP
3FC0
3FC0
6180
6180
61FC
61FE
6186
C306
C306
000C
03FC
01F0
ENDCHAR
STARTCHAR 04A8
ENCODING 1192
SWIDTH 720 0
DWIDTH 12 0
BBX 10 12 2 0
BITMAP
1E00
3C00
7380
67C0
C6C0
CCC0
CCC0
CCC0
CD80
EF80
7FC0
3FC0
ENDCHAR
STARTCHAR 04A9
ENCODING 1193
SWIDTH 600 0
DWIDTH 10 0
BBX 9 9 1 0
BITMAP
1E00
3C00
6700
C780
CD80
CD80
EF00
FF80
3F80
ENDCHAR
STARTCHAR 04AA
ENCODING 1194
SWIDTH 720 0
DWIDTH 12 0
BBX 11 15 2 -3
BITMAP
0F80
3FC0
70E0
6060
E000
C000
C000
C0C0
C1C0
E380
7F00
3E00
0C00
0C00
7800
ENDCHAR
STARTCHAR 04AB
ENCODING 1195
SWIDTH 540 0
DWIDTH 9 0
BBX 9 12 1 -3
BITMAP
1F00
7F80
6180
E000
C000
C300
C700
7E00
7C00
1800
1800
F000
ENDCHAR
STARTCHAR 04AC
ENCODING 1196
SWIDTH 600 0
DWIDTH 10 0
BBX 9 15 2 -3
BITMAP
FF80
FF80
1800
1800
1800
3000
3000
3000
3000
3000
7800
7800
3800
3000
3000
ENDCHAR
STARTCHAR 04AD
ENCODING 1197
SWIDTH 900 0
DWIDTH 15 0
BBX 14 12 1 -3
BITMAP
3778
3FF8
7398
6318
6318
6318
6318
C63C
C63C
000C
0018
0018
ENDCHAR
STARTCHAR 04AE
ENCODING 1198
SWIDTH 540 0
DWIDTH 9 0
BBX 9 12 2 0
BITMAP
C380
E300
6600
6E00
6C00
3800
3800
3000
3000
3000
6000
6000
ENDCHAR
STARTCHAR 04AF
ENCODING 1199
SWIDTH 540 0
DWIDTH 9 0
BBX 9 12 1 -3
BITMAP
C180
C300
6300
6600
6E00
6C00
7800
3800
3000
3000
3000
6000
ENDCHAR
STARTCHAR 04B0
ENCODING 1200
SWIDTH 540 0
DWIDTH 9 0
BBX 10 12 1 0
BITMAP
60C0
7180
3380
3300
3600
3E00
FF00
FF00
1800
1800
3000
3000
ENDCHAR
STARTCHAR 04B1
ENCODING 1201
SWIDTH 540 0
DWIDTH 9 0
BBX 10 12 0 -3
BITMAP
60C0
6180
3180
3300
3700
3600
3C00
1C00
1800
FE00
FE00
3000
ENDCHAR
STARTCHAR 04B2
ENCODING 1202
SWIDTH 660 0
DWIDTH 11 0
BBX 14 15 -1 -3
BITMAP
1C1C
0C38
0E70
06E0
03C0
0380
0780
0FC0
1CC0
38E0
7070
E030
0060
0060
0060
ENDCHAR
STARTCHAR 04B3
ENCODING 1203
SWIDTH 540 0
DWIDTH 9 0
BBX 11 12 0 -3
BITMAP
30E0
19C0
1F80
0F00
0E00
1E00
3B00
7380
E180
0180
0300
0300
ENDCHAR
STARTCHAR 04B4
ENCODING 1204
SWIDTH 900 0
DWIDTH 15 0
BBX 13 15 2 -3
BITMAP
FF98
FF98
1818
1830
1830
3030
3030
3030
3060
3060
7FF0
7FF0
0030
0060
0060
ENDCHAR
STARTCHAR 04B5
ENCODING 1205
SWIDTH 660 0
DWIDTH 11 0
BBX 9 15 1 -3
BITMAP
1F00
1F00
0000
6180
6180
6180
6180
6180
C300
C700
FF80
7B80
0180
0180
0180
ENDCHAR
STARTCHAR 04B6
ENCODING 1206
SWIDTH 720 0
DWIDTH 12 0
BBX 11 15 2 -3
BITMAP
60E0
60C0
C0C0
C0C0
C0C0
E180
FF80
7F80
0180
0180
03C0
03C0
00C0
0180
0180
ENDCHAR
STARTCHAR 04B7
ENCODING 1207
SWIDTH 600 0
DWIDTH 10 0
BBX 8 12 2 -3
BITMAP
C3
C3
C6
C6
FE
7E
06
0F
0F
03
06
06
ENDCHAR
STARTCHAR 04B8
ENCODING 1208
SWIDTH 720 0
DWIDTH 12 0
BBX 11 12 2 0
BITMAP
6060
60C0
E0C0
C4C0
C4C0
E980
FF80
7F80
0980
1180
0300
0300
ENDCHAR
STARTCHAR 04B9
ENCODING 1209
SWIDTH 600 0
DWIDTH 10 0
BBX 8 9 2 0
BITMAP
C3
C3
D6
D6
FE
7E
26
2C
0C
ENDCHAR
STARTCHAR 04BA
ENCODING 1210
SWIDTH 720 0
DWIDTH 12 0
BBX 10 12 1 0
BITMAP
1800
3000
3000
3000
3F80
7FC0
60C0
60C0
60C0
60C0
C180
C180
ENDCHAR
STARTCHAR 04BB
ENCODING 1211
SWIDTH 600 0
DWIDTH 10 0
BBX 9 12 1 0
BITMAP
3000
3000
3000
6F00
7F80
7180
6180
6180
6180
C300
C300
C300
ENDCHAR
STARTCHAR 04BC
ENCODING 1212
SWIDTH 900 0
DWIDTH 15 0
BBX 15 12 0 0
BITMAP
01F8
07FC
0F0C
CC06
DC06
FFFE
7FFE
1800
180C
0C1C
0FF8
03E0
ENDCHAR
STARTCHAR 04BD
ENCODING 1213
SWIDTH 660 0
DWIDTH 11 0
BBX 11 9 0 0
BITMAP
03C0
0FE0
CC60
D860
FFE0
1800
1C60
0FC0
0780
ENDCHAR
STARTCHAR 04BE
ENCODING 1214
SWIDTH 900 0
DWIDTH 15 0
BBX 15 14 0 -2
BITMAP
01F8
07FC
0F0E
4C06
DC06
FFFE
7FFE
1800
180C
0C1C
0FF8
03E0
0180
0180
ENDCHAR
STARTCHAR 04BF
ENCODING 1215
SWIDTH 660 0
DWIDTH 11 0
BBX 11 11 0 -2
BITMAP
03C0
0FE0
CC60
D860
FFE0
1800
1C60
0FC0
07C0
0300
0300
ENDCHAR
STARTCHAR 04C0
ENCODING 1216
SWIDTH 300 0
DWIDTH 5 0
BBX 4 12 1 0
BITMAP
30
30
30
60
60
60
60
60
60
C0
C0
C0
ENDCHAR
STARTCHAR 04C1
ENCODING 1217
SWIDTH 960 0
DWIDTH 16 0
BBX 17 15 1 0
BITMAP
011000
00E000
000000
38C380
38C780
1CCE00
0D9C00
0D9800
07F000
0FF000
19B800
319800
731800
631800
C30C00
ENDCHAR
STARTCHAR 04C2
ENCODING 1218
SWIDTH 780 0
DWIDTH 13 0
BBX 14 12 0 0
BITMAP
0220
01C0
0000
399C
09B0
0DB0
0DA0
07C0
1B60
3B60
7330
E330
ENDCHAR
STARTCHAR 04C3
ENCODING 1219
SWIDTH 660 0
DWIDTH 11 0
BBX 11 15 1 -3
BITMAP
1860
30E0
3180
3180
3300
7F00
7FC0
61C0
60C0
60C0
C0C0
C180
0380
FF00
7C00
ENDCHAR
STARTCHAR 04C4
ENCODING 1220
SWIDTH 600 0
DWIDTH 10 0
BBX 9 12 1 -3
BITMAP
3300
3300
6600
6C00
7F00
6180
6180
C180
C380
0300
FE00
7C00
ENDCHAR
STARTCHAR 04C5
ENCODING 1221
SWIDTH 720 0
DWIDTH 12 0
BBX 13 15 0 -3
BITMAP
0FF8
1FF0
1830
1830
1830
1860
3060
3060
3060
3060
E0E0
E0E0
00C0
00C0
0180
ENDCHAR
STARTCHAR 04C6
ENCODING 1222
SWIDTH 660 0
DWIDTH 11 0
BBX 11 12 0 -3
BITMAP
1FE0
1FE0
18C0
18C0
30C0
30C0
30C0
F1C0
E1C0
0180
0180
0300
ENDCHAR
STARTCHAR 04C7
ENCODING 1223
SWIDTH 720 0
DWIDTH 12 0
BBX 11 15 1 -3
BITMAP
3060
3060
3060
3060
30E0
7FC0
7FC0
60C0
60C0
6180
C180
C180
0300
FF00
7C00
ENDCHAR
STARTCHAR 04C8
ENCODING 1224
SWIDTH 600 0
DWIDTH 10 0
BBX 9 12 1 -3
BITMAP
3180
3180
6300
7F00
7F00
6300
6700
C600
C600
0E00
FC00
7800
ENDCHAR
STARTCHAR 04C9
ENCODING 1225
SWIDTH 720 0
DWIDTH 12 0
BBX 11 15 1 -3
BITMAP
3060
3060
3060
3060
3060
7FC0
7FC0
60C0
60C0
60C0
C1C0
C1C0
0180
0180
0300
ENDCHAR
STARTCHAR 04CA
ENCODING 1226
SWIDTH 600 0
DWIDTH 10 0
BBX 9 12 1 -3
BITMAP
3180
3180
6300
7F00
7F00
6300
6300
C700
C700
0600
0600
0C00
ENDCHAR
STARTCHAR 04CB
ENCODING 1227
SWIDTH 720 0
DWIDTH 12 0
BBX 10 15 2 -3
BITMAP
60C0
60C0
C0C0
C180
C180
E180
FF80
7D80
0300
0300
0700
0700
0600
0C00
0C00
ENDCHAR
STARTCHAR 04CC
ENCODING 1228
SWIDTH 600 0
DWIDTH 10 0
BBX 7 12 2 -3
BITMAP
C6
C6
C6
C6
FE
7C
0C
1C
1C
10
30
30
ENDCHAR
STARTCHAR 04CD
ENCODING 1229
SWIDTH 840 0
DWIDTH 14 0
BBX 14 15 1 -3
BITMAP
3C3C
3C3C
3C78
3C78
3CD8
6CD8
6DB0
6DB0
6F30
6F30
CE70
CE70
0060
0060
00C0
ENDCHAR
STARTCHAR 04CE
ENCODING 1230
SWIDTH 780 0
DWIDTH 13 0
BBX 12 12 1 -3
BITMAP
38F0
38F0
79E0
79E0
7BE0
6F60
6F60
CEE0
CEE0
00C0
00C0
0180
ENDCHAR
STARTCHAR 04CF
ENCODING 1231
SWIDTH 240 0
DWIDTH 4 0
BBX 4 12 1 0
BITMAP
30
30
30
60
60
60
60
60
60
C0
C0
C0
ENDCHAR
STARTCHAR 04D0
ENCODING 1232
SWIDTH 720 0
DWIDTH 12 0
BBX 11 15 0 0
BITMAP
0220
01C0
0000
0180
0380
0380
06C0
0EC0
0CC0
18C0
1FC0
3FC0
7060
6060
C060
ENDCHAR
STARTCHAR 04D1
ENCODING 1233
SWIDTH 540 0
DWIDTH 9 0
BBX 8 12 1 0
BITMAP
11
0E
00
1E
3F
63
03
7F
C6
C6
FE
76
ENDCHAR
STARTCHAR 04D2
ENCODING 1234
SWIDTH 720 0
DWIDTH 12 0
BBX 11 15 0 0
BITMAP
0660
0660
0000
0180
0380
0380
06C0
0EC0
0CC0
18C0
1FC0
3FC0
7060
6060
C060
ENDCHAR
STARTCHAR 04D3
ENCODING 1235
SWIDTH 540 0
DWIDTH 9 0
BBX 8 12 1 0
BITMAP
33
33
00
1E
3F
63
03
7F
C6
C6
FE
76
ENDCHAR
STARTCHAR 04D4
ENCODING 1236
SWIDTH 1020 0
DWIDTH 17 0
BBX 17 12 0 0
BITMAP
01FF80
03FF80
036000
06C000
0CC000
0CFF00
18FF00
1FC000
3FC000
618000
61FF00
C1FF00
ENDCHAR
STARTCHAR 04D5
ENCODING 1237
SWIDTH 900 0
DWIDTH 15 0
BBX 14 9 1 0
BITMAP
1EF0
3FF8
630C
1FFC
7FFC
E300
C78C
FDF8
78F0
ENDCHAR
STARTCHAR 04D6
ENCODING 1238
SWIDTH 660 0
DWIDTH 11 0
BBX 11 15 1 0
BITMAP
0880
0700
0000
3FE0
3FE0
3000
6000
6000
7F80
7F80
6000
6000
C000
FF80
FF80
ENDCHAR
STARTCHAR 04D7
ENCODING 1239
SWIDTH 540 0
DWIDTH 9 0
BBX 8 12 1 0
BITMAP
22
1C
00
3E
7F
C3
FF
FF
C0
E3
7E
3C
ENDCHAR
STARTCHAR 04D8
ENCODING 1240
SWIDTH 780 0
DWIDTH 13 0
BBX 12 12 1 0
BITMAP
0F80
3FE0
7060
6030
0030
FFF0
FFF0
C070
C060
61E0
7FC0
1F00
ENDCHAR
STARTCHAR 04D9
ENCODING 1241
SWIDTH 540 0
DWIDTH 9 0
BBX 8 9 1 0
BITMAP
3C
7E
C7
03
FF
FF
C6
FE
7C
ENDCHAR
STARTCHAR 04DA
ENCODING 1242
SWIDTH 780 0
DWIDTH 13 0
BBX 12 15 1 0
BITMAP
0CC0
0CC0
0000
0F80
3FE0
7060
6030
0030
FFF0
FFF0
C070
C060
61E0
7FC0
1F00
ENDCHAR
STARTCHAR 04DB
ENCODING 1243
SWIDTH 540 0
DWIDTH 9 0
BBX 8 12 1 0
BITMAP
66
66
00
3C
7E
C7
03
FF
FF
C6
FE
7C
ENDCHAR
STARTCHAR 04DC
ENCODING 1244
SWIDTH 960 0
DWIDTH 16 0
BBX 17 15 1 0
BITMAP
033000
033000
000000
38C380
38C780
1CCE00
0D9C00
0D9800
07F000
0FF000
19B800
319800
731800
631800
C30C00
ENDCHAR
STARTCHAR 04DD
ENCODING 1245
SWIDTH 780 0
DWIDTH 13 0
BBX 14 12 0 0
BITMAP
0330
0330
0000
399C
09B0
0DB0
0DA0
07C0
1B60
3B60
7330
E330
ENDCHAR
STARTCHAR 04DE
ENCODING 1246
SWIDTH 660 0
DWIDTH 11 0
BBX 10 15 1 0
BITMAP
1980
1980
0000
0F00
1F80
38C0
10C0
01C0
0780
0F00
0180
4180
E380
7F00
3E00
ENDCHAR
STARTCHAR 04DF
ENCODING 1247
SWIDTH 540 0
DWIDTH 9 0
BBX 8 12 1 0
BITMAP
33
33
00
1E
3F
63
0C
0F
03
C3
7E
3C
ENDCHAR
STARTCHAR 04E0
ENCODING 1248
SWIDTH 600 0
DWIDTH 10 0
BBX 10 12 0 0
BITMAP
3FC0
3FC0
0180
0300
0700
0780
0180
0180
4180
E300
7F00
3C00
ENDCHAR
STARTCHAR 04E1
ENCODING 1249
SWIDTH 540 0
DWIDTH 9 0
BBX 9 12 0 -3
BITMAP
3F80
3F80
0300
0600
0E00
0F00
0300
0300
C300
C600
FE00
7800
ENDCHAR
STARTCHAR 04E2
ENCODING 1250
SWIDTH 720 0
DWIDTH 12 0
BBX 11 15 1 0
BITMAP
07C0
07C0
0000
3060
30E0
31E0
63C0
67C0
6EC0
7CC0
78C0
70C0
E180
C180
8180
ENDCHAR
STARTCHAR 04E3
ENCODING 1251
SWIDTH 600 0
DWIDTH 10 0
BBX 9 12 1 0
BITMAP
1F00
1F00
0000
6180
6180
6180
6180
6180
C300
C700
FF00
7B00
ENDCHAR
STARTCHAR 04E4
ENCODING 1252
SWIDTH 720 0
DWIDTH 12 0
BBX 11 15 1 0
BITMAP
0CC0
0CC0
0000
3060
30E0
31E0
63C0
67C0
6EC0
7CC0
78C0
70C0
E180
C180
8180
ENDCHAR
STARTCHAR 04E5
ENCODING 1253
SWIDTH 600 0
DWIDTH 10 0
BBX 9 12 1 0
BITMAP
1980
1980
0000
6180
6180
6180
6180
6180
C300
C700
FF00
7B00
ENDCHAR
STARTCHAR 04E6
ENCODING 1254
SWIDTH 780 0
DWIDTH 13 0
BBX 12 15 1 0
BITMAP
0CC0
0CC0
0000
0F80
1FE0
3860
6030
6030
C030
C030
C070
C060
61C0
7F80
1F00
ENDCHAR
STARTCHAR 04E7
ENCODING 1255
SWIDTH 600 0
DWIDTH 10 0
BBX 9 12 1 0
BITMAP
3300
3300
0000
1E00
7F00
6380
C180
C180
C180
E300
7F00
3C00
ENDCHAR
STARTCHAR 04E8
ENCODING 1256
SWIDTH 780 0
DWIDTH 13 0
BBX 12 12 1 0
BITMAP
0F80
1FE0
3860
6030
6030
FFF0
FFF0
C070
C060
E1C0
7F80
1F00
ENDCHAR
STARTCHAR 04E9
ENCODING 1257
SWIDTH 600 0
DWIDTH 10 0
BBX 9 9 1 0
BITMAP
1E00
7F00
6180
FF80
FF80
C380
E300
7F00
3C00
ENDCHAR
STARTCHAR 04EA
ENCODING 1258
SWIDTH 780 0
DWIDTH 13 0
BBX 12 15 1 0
BITMAP
0CC0
0CC0
0000
0F80
1FE0
3860
6030
6030
FFF0
FFF0
C070
C060
E1C0
7F80
1F00
ENDCHAR
STARTCHAR 04EB
ENCODING 1259
SWIDTH 600 0
DWIDTH 10 0
BBX 9 12 1 0
BITMAP
3300
3300
0000
1E00
7F00
6180
FF80
FF80
C380
E300
7F00
3C00
ENDCHAR
STARTCHAR 04EC
ENCODING 1260
SWIDTH 720 0
DWIDTH 12 0
BBX 11 15 1 0
BITMAP
1980
1980
0000
1F00
3FC0
70E0
2060
0060
0FE0
0FE0
4060
C0C0
61C0
7F80
3E00
ENDCHAR
STARTCHAR 04ED
ENCODING 1261
SWIDTH 540 0
DWIDTH 9 0
BBX 8 12 1 0
BITMAP
66
66
00
3C
7E
E3
03
0F
03
C6
FE
78
ENDCHAR
STARTCHAR 04EE
ENCODING 1262
SWIDTH 720 0
DWIDTH 12 0
BBX 11 15 2 0
BITMAP
0F80
0F80
0000
6060
60C0
3180
3380
3300
3600
3E00
1C00
1800
3000
F000
E000
ENDCHAR
STARTCHAR 04EF
ENCODING 1263
SWIDTH 540 0
DWIDTH 9 0
BBX 10 15 0 -3
BITMAP
0F80
0F80
0000
30C0
3180
3180
3300
3300
3600
3600
1C00
1C00
1800
F800
F000
ENDCHAR
STARTCHAR 04F0
ENCODING 1264
SWIDTH 720 0
DWIDTH 12 0
BBX 11 15 2 0
BITMAP
1980
1980
0000
6060
60C0
3180
3380
3300
3600
3E00
1C00
1800
3000
F000
E000
ENDCHAR
STARTCHAR 04F1
ENCODING 1265
SWIDTH 540 0
DWIDTH 9 0
BBX 10 15 0 -3
BITMAP
1980
1980
0000
30C0
3180
3180
3300
3300
3600
3600
1C00
1C00
1800
F800
F000
ENDCHAR
STARTCHAR 04F2
ENCODING 1266
SWIDTH 720 0
DWIDTH 12 0
BBX 11 15 2 0
BITMAP
0EE0
1DC0
0000
6060
60C0
3180
3380
3300
3600
3E00
1C00
1800
3000
F000
E000
ENDCHAR
STARTCHAR 04F3
ENCODING 1267
SWIDTH 540 0
DWIDTH 9 0
BBX 11 15 0 -3
BITMAP
0EE0
1DC0
0000
30C0
3180
3180
3300
3300
3600
3600
1C00
1C00
1800
F800
F000
ENDCHAR
STARTCHAR 04F4
ENCODING 1268
SWIDTH 720 0
DWIDTH 12 0
BBX 10 15 2 0
BITMAP
1980
1980
0000
60C0
60C0
60C0
C180
C180
E180
7F80
7D80
0180
0300
0300
0300
ENDCHAR
STARTCHAR 04F5
ENCODING 1269
SWIDTH 600 0
DWIDTH 10 0
BBX 7 12 2 0
BITMAP
66
66
00
C6
C6
C6
C6
FE
7E
0C
0C
0C
ENDCHAR
STARTCHAR 04F6
ENCODING 1270
SWIDTH 600 0
DWIDTH 10 0
BBX 10 15 1 -3
BITMAP
1FC0
3FC0
3000
3000
3000
6000
6000
6000
6000
6000
F000
F000
3000
6000
6000
ENDCHAR
STARTCHAR 04F7
ENCODING 1271
SWIDTH 540 0
DWIDTH 9 0
BBX 8 12 1 -3
BITMAP
1E
3F
63
0F
7C
F0
C7
FF
7F
03
06
06
ENDCHAR
STARTCHAR 04F8
ENCODING 1272
SWIDTH 1020 0
DWIDTH 17 0
BBX 16 15 1 0
BITMAP
0330
0330
0000
3003
3003
3003
6006
6006
7FC6
7FE6
6066
6066
C0EC
FFCC
FF8C
ENDCHAR
STARTCHAR 04F9
ENCODING 1273
SWIDTH 900 0
DWIDTH 15 0
BBX 13 12 1 0
BITMAP
0660
0660
0000
6018
6018
6018
7F18
7F98
6198
C1B0
FF30
FE30
ENDCHAR
STARTCHAR 04FA
ENCODING 1274
SWIDTH 600 0
DWIDTH 10 0
BBX 11 15 0 -3
BITMAP
1FE0
1FE0
1800
1800
1800
FE00
3000
3000
3000
3000
7800
7000
3000
3000
E000
ENDCHAR
STARTCHAR 04FB
ENCODING 1275
SWIDTH 480 0
DWIDTH 8 0
BBX 9 12 0 -3
BITMAP
1F80
1F80
3000
3000
FC00
3000
3000
7800
7000
3000
3000
E000
ENDCHAR
STARTCHAR 04FC
ENCODING 1276
SWIDTH 660 0
DWIDTH 11 0
BBX 14 15 -1 -3
BITMAP
381C
1838
0C70
0CE0
07C0
0780
0700
0F80
1D80
38C0
70E0
E060
0060
00E0
01C0
ENDCHAR
STARTCHAR 04FD
ENCODING 1277
SWIDTH 540 0
DWIDTH 9 0
BBX 10 12 0 -3
BITMAP
31C0
1B80
1B00
0E00
0C00
1E00
3600
7300
E300
0300
0700
0E00
ENDCHAR
STARTCHAR 04FE
ENCODING 1278
SWIDTH 660 0
DWIDTH 11 0
BBX 14 12 -1 0
BITMAP
301C
1838
1C70
0CE0
07C0
0780
3FE0
0F00
1D80
39C0
70C0
E060
ENDCHAR
STARTCHAR 04FF
ENCODING 1279
SWIDTH 540 0
DWIDTH 9 0
BBX 10 9 0 0
BITMAP
31C0
1B80
1B00
0E00
3F00
1C00
3600
7600
E300
ENDCHAR
STARTCHAR 0500
ENCODING 1280
SWIDTH 660 0
DWIDTH 11 0
BBX 10 12 1 0
BITMAP
00C0
00C0
00C0
0180
0180
3F80
7F80
E180
C300
C300
FF00
7F00
ENDCHAR
STARTCHAR 0501
ENCODING 1281
SWIDTH 540 0
DWIDTH 9 0
BBX 9 12 1 0
BITMAP
0180
0180
0180
3B00
7F00
6700
C300
C300
C700
C600
FE00
7600
ENDCHAR
STARTCHAR 0502
ENCODING 1282
SWIDTH 1020 0
DWIDTH 17 0
BBX 16 12 1 0
BITMAP
0060
00C0
00C0
00C0
00C0
3FC3
7F83
E186
C186
C38E
FFFC
7CF8
ENDCHAR
STARTCHAR 0503
ENCODING 1283
SWIDTH 960 0
DWIDTH 16 0
BBX 14 12 1 0
BITMAP
00E0
00C0
00C0
1EC0
7FC0
6380
C180
C18C
C18C
E39C
FFF8
78F0
ENDCHAR
STARTCHAR 0504
ENCODING 1284
SWIDTH 1020 0
DWIDTH 17 0
BBX 15 12 2 0
BITMAP
3E00
7F00
E180
C180
0380
1F06
1E06
030C
030C
031C
03F8
01F0
ENDCHAR
STARTCHAR 0505
ENCODING 1285
SWIDTH 840 0
DWIDTH 14 0
BBX 11 9 2 0
BITMAP
7800
7C00
CC00
0C00
3860
3C60
0CE0
0FC0
0780
ENDCHAR
STARTCHAR 0506
ENCODING 1286
SWIDTH 660 0
DWIDTH 11 0
BBX 9 15 2 -3
BITMAP
3C00
7E00
E300
C300
0300
1E00
1E00
0700
0300
0300
0780
0780
0180
0300
0300
ENDCHAR
STARTCHAR 0507
ENCODING 1287
SWIDTH 540 0
DWIDTH 9 0
BBX 7 12 2 -3
BITMAP
78
7C
CC
0C
38
0C
0C
1E
1E
06
0C
0C
ENDCHAR
STARTCHAR 0508
ENCODING 1288
SWIDTH 1020 0
DWIDTH 17 0
BBX 17 12 0 0
BITMAP
0FF000
0FF000
186000
186000
186180
186300
18C300
30C300
30C300
30C600
E0FE00
E07C00
ENDCHAR
STARTCHAR 0509
ENCODING 1289
SWIDTH 960 0
DWIDTH 16 0
BBX 15 9 0 0
BITMAP
1FC0
1FC0
18C0
19C6
3186
3186
318C
F1FC
E0F8
ENDCHAR
STARTCHAR 050A
ENCODING 1290
SWIDTH 1080 0
DWIDTH 18 0
BBX 17 12 1 0
BITMAP
303000
303000
306000
306000
306000
7FE180
7FE300
60C300
60C300
60C700
C0FE00
C07C00
ENDCHAR
STARTCHAR 050B
ENCODING 1291
SWIDTH 960 0
DWIDTH 16 0
BBX 14 9 1 0
BITMAP
3180
3180
6180
7F8C
7F0C
630C
6318
C3F8
C1F0
ENDCHAR
STARTCHAR 050C
ENCODING 1292
SWIDTH 780 0
DWIDTH 13 0
BBX 11 12 2 0
BITMAP
0F80
3FC0
70E0
6060
E000
C000
C3E0
C3E0
C040
E1C0
7F80
3E00
ENDCHAR
STARTCHAR 050D
ENCODING 1293
SWIDTH 600 0
DWIDTH 10 0
BBX 9 9 1 0
BITMAP
1F00
3F80
7180
C000
C780
C780
E300
FF00
3C00
ENDCHAR
STARTCHAR 050E
ENCODING 1294
SWIDTH 780 0
DWIDTH 13 0
BBX 11 12 2 0
BITMAP
FF80
FF80
1800
1800
1800
1860
30C0
30C0
30C0
31C0
3F80
1F00
ENDCHAR
STARTCHAR 050F
ENCODING 1295
SWIDTH 1200 0
DWIDTH 20 0
BBX 19 9 1 0
BITMAP
373800
3FFC00
738C00
630C00
631860
6318C0
6318C0
C61F80
C60F00
ENDCHAR
STARTCHAR 0510
ENCODING 1296
SWIDTH 660 0
DWIDTH 11 0
BBX 10 12 1 0
BITMAP
0F80
1FC0
38C0
30C0
3000
1C00
7C00
E000
C100
C380
FF00
7E00
ENDCHAR
STARTCHAR 0511
ENCODING 1297
SWIDTH 480 0
DWIDTH 8 0
BBX 8 9 1 0
BITMAP
3E
7F
60
38
78
C0
C4
FE
7C
ENDCHAR
STARTCHAR 0512
ENCODING 1298
SWIDTH 720 0
DWIDTH 12 0
BBX 13 15 0 -3
BITMAP
0FF8
0FF0
1830
1830
1830
1860
1860
3060
3060
30E0
E0C0
E0C0
00C0
0380
0380
ENDCHAR
STARTCHAR 0513
ENCODING 1299
SWIDTH 660 0
DWIDTH 11 0
BBX 11 12 0 -3
BITMAP
1FE0
1FE0
18C0
18C0
30C0
30C0
3180
F180
E180
0180
0700
0700
ENDCHAR
STARTCHAR 0514
ENCODING 1300
SWIDTH 1020 0
DWIDTH 17 0
BBX 20 12 -1 0
BITMAP
07C070
07E0E0
0C61C0
0C3380
0C3F00
0C1E00
181C00
183C00
187600
38E700
F1C300
F38180
ENDCHAR
STARTCHAR 0515
ENCODING 1301
SWIDTH 900 0
DWIDTH 15 0
BBX 16 9 0 0
BITMAP
1F87
1FCE
18DC
1878
3070
30F0
31F8
F398
E70C
ENDCHAR
STARTCHAR 0516
ENCODING 1302
SWIDTH 840 0
DWIDTH 14 0
BBX 13 12 1 0
BITMAP
3F18
3FB0
31E0
3180
3380
7F80
7EC0
60C0
60E0
6060
C060
C030
ENDCHAR
STARTCHAR 0517
ENCODING 1303
SWIDTH 840 0
DWIDTH 14 0
BBX 14 12 0 -3
BITMAP
378C
3FD8
38F0
30E0
30C0
70E0
71E0
7F30
6E38
6000
C000
C000
ENDCHAR
STARTCHAR 0518
ENCODING 1304
SWIDTH 1020 0
DWIDTH 17 0
BBX 18 12 -1 0
BITMAP
07FFC0
0FFFC0
1C3000
183000
183000
1FFF80
0FFF80
0E6000
186000
386000
70FF80
E0FF80
ENDCHAR
STARTCHAR 0519
ENCODING 1305
SWIDTH 900 0
DWIDTH 15 0
BBX 16 9 -1 0
BITMAP
0FFC
1FFE
30E3
30C3
3FFF
1FFF
18C0
707F
E03E
ENDCHAR
STARTCHAR 051A
ENCODING 1306
SWIDTH 780 0
DWIDTH 13 0
BBX 12 13 1 -1
BITMAP
0F80
1FE0
3870
6030
6030
C030
C030
C260
C7E0
63C0
7FC0
1EE0
0040
ENDCHAR
STARTCHAR 051B
ENCODING 1307
SWIDTH 540 0
DWIDTH 9 0
BBX 9 12 1 -3
BITMAP
3D80
7F80
6380
C300
C300
C300
E700
7F00
3B00
0600
0600
0600
ENDCHAR
STARTCHAR 051C
ENCODING 1308
SWIDTH 960 0
DWIDTH 16 0
BBX 15 12 2 0
BITMAP
C386
C38C
C78C
C798
CD98
CDB0
D9B0
D9E0
F1E0
F1C0
E1C0
E180
ENDCHAR
STARTCHAR 051D
ENCODING 1309
SWIDTH 780 0
DWIDTH 13 0
BBX 13 9 1 0
BITMAP
C318
C730
C730
CF60
6B60
7BC0
7380
7380
6300
ENDCHAR
STARTCHAR 051E
ENCODING 1310
SWIDTH 720 0
DWIDTH 12 0
BBX 11 12 1 0
BITMAP
3160
33C0
3180
37C0
3E80
7C00
7E00
7700
6300
6380
C180
C0C0
ENDCHAR
STARTCHAR 051F
ENCODING 1311
SWIDTH 600 0
DWIDTH 10 0
BBX 9 9 1 0
BITMAP
3580
3700
6F00
7D00
7800
7C00
6C00
C600
C700
ENDCHAR
STARTCHAR 0520
ENCODING 1312
SWIDTH 1080 0
DWIDTH 18 0
BBX 18 15 -1 -3
BITMAP
07F800
07F000
0C3000
0C3000
0C3F80
0C7FC0
1860C0
1860C0
1860C0
3860C0
F0C180
E0C180
000180
000F00
000F00
ENDCHAR
STARTCHAR 0521
ENCODING 1313
SWIDTH 900 0
DWIDTH 15 0
BBX 15 12 0 -3
BITMAP
1FE0
1FE0
18C0
18FC
30FE
30CE
30C6
F18C
E18C
000C
007C
0078
ENDCHAR
STARTCHAR 0522
ENCODING 1314
SWIDTH 1140 0
DWIDTH 19 0
BBX 17 15 1 -3
BITMAP
306000
306000
306000
306000
307F00
7FFF80
7FC180
60C180
60C180
60C380
C18300
C18300
000300
001E00
001E00
ENDCHAR
STARTCHAR 0523
ENCODING 1315
SWIDTH 900 0
DWIDTH 15 0
BBX 14 12 1 -3
BITMAP
30C0
30C0
6180
7FF8
7FFC
619C
618C
C318
C318
0018
00F8
00F0
ENDCHAR
STARTCHAR 0524
ENCODING 1316
SWIDTH 720 0
DWIDTH 12 0
BBX 12 15 1 -3
BITMAP
1FF0
3FE0
3060
3060
3060
60C0
60C0
60C0
60C0
60C0
C1E0
C1E0
0060
00C0
00C0
ENDCHAR
STARTCHAR 0525
ENCODING 1317
SWIDTH 600 0
DWIDTH 10 0
BBX 9 12 1 -3
BITMAP
3F80
3F80
6300
6300
6300
6300
6300
C780
C780
0180
0300
0300
ENDCHAR
STARTCHAR 0526
ENCODING 1318
SWIDTH 720 0
DWIDTH 12 0
BBX 11 15 1 -3
BITMAP
1800
3000
3000
3000
3F80
7FC0
60C0
60C0
60C0
60C0
C1E0
C1E0
0060
00C0
00C0
ENDCHAR
STARTCHAR 0527
ENCODING 1319
SWIDTH 600 0
DWIDTH 10 0
BBX 9 15 1 -3
BITMAP
3000
3000
3000
3700
3F00
7300
6300
6300
6300
6300
C780
C780
0180
0300
0300
ENDCHAR
STARTCHAR 0528
ENCODING 1320
SWIDTH 720 0
DWIDTH 12 0
BBX 15 15 -2 -3
BITMAP
070E
060E
060C
060C
0E0C
0FFC
0FFC
0C18
1C18
1C18
1C38
1838
3800
F800
F000
ENDCHAR
STARTCHAR 0529
ENCODING 1321
SWIDTH 600 0
DWIDTH 10 0
BBX 12 12 -2 -3
BITMAP
0E30
0C30
0C30
0FF0
1FF0
1C60
1860
1860
18E0
3800
F000
F000
ENDCHAR
STARTCHAR 052A
ENCODING 1322
SWIDTH 1320 0
DWIDTH 22 0
BBX 24 15 -1 -3
BITMAP
07F987
07F98E
06339C
0E33B8
0C7370
0C7FF0
1C7FF0
1867B8
186718
38E61C
7FF60C
7FEE0E
C06000
C06000
C06000
ENDCHAR
STARTCHAR 052B
ENCODING 1323
SWIDTH 1140 0
DWIDTH 19 0
BBX 19 12 1 0
BITMAP
0F0000
0F8000
018000
1ECCE0
3FCCE0
71DD80
E19980
E1FE00
C39B00
E33980
7F3980
3C3180
ENDCHAR
STARTCHAR 052C
ENCODING 1324
SWIDTH 720 0
DWIDTH 12 0
BBX 14 15 -1 -3
BITMAP
061C
0E3C
0E7C
0CFC
0DD8
0FB8
0FF8
0FF8
1C30
3830
7FF8
FFF8
C018
C030
C030
ENDCHAR
STARTCHAR 052D
ENCODING 1325
SWIDTH 660 0
DWIDTH 11 0
BBX 12 12 -1 -3
BITMAP
0E70
0CF0
0FF0
0F60
0FE0
1FE0
30E0
7FE0
7FE0
C060
C060
C060
ENDCHAR
STARTCHAR 052E
ENCODING 1326
SWIDTH 720 0
DWIDTH 12 0
BBX 12 15 0 -3
BITMAP
0FF0
0FF0
0C70
1C70
1C60
1860
1860
38E0
38E0
30C0
F0E0
E1E0
0060
0060
00C0
ENDCHAR
STARTCHAR 052F
ENCODING 1327
SWIDTH 660 0
DWIDTH 11 0
BBX 11 12 0 -3
BITMAP
1FE0
1FC0
18C0
18C0
31C0
31C0
3180
F1C0
E1C0
00C0
0080
0180
ENDCHAR
STARTCHAR 0531
ENCODING 1329
SWIDTH 780 0
DWIDTH 13 0
BBX 11 12 2 0
BITMAP
7060
60E0
60E0
E0C0
E0C0
E1C0
C1C0
C5C0
C780
E780
FFC0
7C80
ENDCHAR
STARTCHAR 0532
ENCODING 1330
SWIDTH 720 0
DWIDTH 12 0
BBX 11 12 1 0
BITMAP
0F80
1FC0
38E0
3060
7060
70E0
6000
7FE0
FFC0
E000
C000
C000
ENDCHAR
STARTCHAR 0533
ENCODING 1331
SWIDTH 780 0
DWIDTH 13 0
BBX 11 12 2 0
BITMAP
1F00
7F80
E1C0
E1C0
C1C0
C180
E180
FFE0
3FE0
0300
0300
0300
ENDCHAR
STARTCHAR 0534
ENCODING 1332
SWIDTH 780 0
DWIDTH 13 0
BBX 11 12 2 0
BITMAP
1F00
7F80
E180
E180
C180
C180
0180
03E0
03E0
0300
0300
0700
ENDCHAR
STARTCHAR 0535
ENCODING 1333
SWIDTH 720 0
DWIDTH 12 0
BBX 11 12 2 0
BITMAP
7000
6000
6000
FFE0
FFC0
C000
C180
C180
C380
E300
FF00
7C00
ENDCHAR
STARTCHAR 0536
ENCODING 1334
SWIDTH 720 0
DWIDTH 12 0
BBX 11 12 1 0
BITMAP
0F80
1FC0
38E0
7060
7060
00E0
00C0
01C0
0380
E700
FFC0
FFC0
ENDCHAR
STARTCHAR 0537
ENCODING 1335
SWIDTH 660 0
DWIDTH 11 0
BBX 11 12 1 0
BITMAP
3800
3000
3000
3FE0
7FC0
7000
6000
6000
6000
E000
FF00
FF00
ENDCHAR
STARTCHAR 0538
ENCODING 1336
SWIDTH 720 0
DWIDTH 12 0
BBX 11 12 1 0
BITMAP
0F80
1FC0
38E0
3060
7060
70E0
6000
6000
E000
E000
FFC0
FFC0
ENDCHAR
STARTCHAR 0539
ENCODING 1337
SWIDTH 960 0
DWIDTH 16 0
BBX 15 12 1 0
BITMAP
07E0
1FF8
3C38
301C
701C
73FE
67FE
6638
EE38
EE30
C7F0
C3E0
ENDCHAR
STARTCHAR 053A
ENCODING 1338
SWIDTH 780 0
DWIDTH 13 0
BBX 13 12 1 0
BITMAP
0060
0060
00E0
1FF8
7FF8
70C0
E0C0
E1C0
E1C0
E380
7F00
3E00
ENDCHAR
STARTCHAR 053B
ENCODING 1339
SWIDTH 720 0
DWIDTH 12 0
BBX 10 12 1 0
BITMAP
3800
3800
3000
3F80
7FC0
70C0
70C0
60C0
60C0
E000
E000
C000
ENDCHAR
STARTCHAR 053C
ENCODING 1340
SWIDTH 600 0
DWIDTH 10 0
BBX 9 12 1 0
BITMAP
3800
3800
3000
3000
7000
7000
6000
6000
6000
E000
FF80
FF00
ENDCHAR
STARTCHAR 053D
ENCODING 1341
SWIDTH 960 0
DWIDTH 16 0
BBX 15 12 1 0
BITMAP
3800
3000
3000
3F86
7F8E
730E
630E
670C
671C
E71C
E3F8
C1F0
ENDCHAR
STARTCHAR 053E
ENCODING 1342
SWIDTH 780 0
DWIDTH 13 0
BBX 12 12 2 0
BITMAP
63F0
6FF0
FE10
FF80
61C0
E0C0
C0E0
C0C0
C1C0
E3C0
FF80
3E00
ENDCHAR
STARTCHAR 053F
ENCODING 1343
SWIDTH 720 0
DWIDTH 12 0
BBX 10 12 2 0
BITMAP
6000
6000
E000
E1C0
E1C0
C1C0
E380
7F80
3F80
0380
0380
0300
ENDCHAR
STARTCHAR 0540
ENCODING 1344
SWIDTH 660 0
DWIDTH 11 0
BBX 10 12 1 0
BITMAP
3F00
3F80
01C0
01C0
0380
FF00
FF80
0380
0380
0380
0300
0300
ENDCHAR
STARTCHAR 0541
ENCODING 1345
SWIDTH 720 0
DWIDTH 12 0
BBX 11 12 1 0
BITMAP
0F80
1FE0
38E0
7060
7060
0060
00E0
7CC0
FF80
C380
FFC0
7C80
ENDCHAR
STARTCHAR 0542
ENCODING 1346
SWIDTH 780 0
DWIDTH 13 0
BBX 10 12 2 0
BITMAP
1F00
7F80
6180
E180
C180
C180
0180
0380
0380
0300
03C0
07C0
ENDCHAR
STARTCHAR 0543
ENCODING 1347
SWIDTH 780 0
DWIDTH 13 0
BBX 12 12 1 0
BITMAP
01F0
3FF0
3F00
1F80
39C0
70E0
70E0
60E0
E0E0
E0C0
FFC0
FFC0
ENDCHAR
STARTCHAR 0544
ENCODING 1348
SWIDTH 780 0
DWIDTH 13 0
BBX 13 12 2 0
BITMAP
70F8
60F8
60C0
E0C0
E0C0
E1C0
C1C0
C180
C380
C380
FF00
7E00
ENDCHAR
STARTCHAR 0545
ENCODING 1349
SWIDTH 780 0
DWIDTH 13 0
BBX 11 12 1 0
BITMAP
0FC0
1FE0
1860
3860
00E0
7FC0
7FC0
00E0
E0E0
60E0
7FC0
3F00
ENDCHAR
STARTCHAR 0546
ENCODING 1350
SWIDTH 720 0
DWIDTH 12 0
BBX 10 12 2 0
BITMAP
F000
F000
7000
7000
7000
6000
60C0
E1C0
E1C0
E380
7F80
3E00
ENDCHAR
STARTCHAR 0547
ENCODING 1351
SWIDTH 720 0
DWIDTH 12 0
BBX 11 12 1 0
BITMAP
1E00
3F80
07E0
1FE0
3840
7000
6000
E0E0
E0C0
71C0
7F80
3E00
ENDCHAR
STARTCHAR 0548
ENCODING 1352
SWIDTH 720 0
DWIDTH 12 0
BBX 11 12 1 0
BITMAP
0F80
1FC0
38E0
3060
7060
70E0
60E0
60C0
E0C0
E1C0
C1C0
C1C0
ENDCHAR
STARTCHAR 0549
ENCODING 1353
SWIDTH 720 0
DWIDTH 12 0
BBX 10 13 2 -1
BITMAP
1F00
3F80
7BC0
E1C0
E1C0
C1C0
0180
0380
4700
7E00
7C00
1C00
0400
ENDCHAR
STARTCHAR 054A
ENCODING 1354
SWIDTH 840 0
DWIDTH 14 0
BBX 12 12 2 0
BITMAP
1FC0
7FF0
E770
E630
C630
0E70
0E70
0E70
0060
0060
00E0
00E0
ENDCHAR
STARTCHAR 054B
ENCODING 1355
SWIDTH 780 0
DWIDTH 13 0
BBX 12 12 1 0
BITMAP
0FC0
1FE0
3870
3070
7070
7C70
7F60
03E0
03C0
E780
FFE0
FFC0
ENDCHAR
STARTCHAR 054C
ENCODING 1356
SWIDTH 780 0
DWIDTH 13 0
BBX 12 12 1 0
BITMAP
0F80
1FE0
38E0
3060
7060
70E0
60E0
60F0
E0F0
E1C0
E1C0
C1C0
ENDCHAR
STARTCHAR 054D
ENCODING 1357
SWIDTH 720 0
DWIDTH 12 0
BBX 11 12 2 0
BITMAP
70E0
60E0
60C0
E0C0
E0C0
E1C0
C1C0
C180
C180
C380
FF00
7E00
ENDCHAR
STARTCHAR 054E
ENCODING 1358
SWIDTH 780 0
DWIDTH 13 0
BBX 10 12 2 0
BITMAP
00C0
00C0
01C0
C1C0
C1C0
C180
E380
FF80
7F80
0300
03C0
03C0
ENDCHAR
STARTCHAR 054F
ENCODING 1359
SWIDTH 720 0
DWIDTH 12 0
BBX 10 12 1 0
BITMAP
1F80
3FC0
30C0
30C0
3800
3E00
0F80
03C0
C1C0
E180
7F80
3E00
ENDCHAR
STARTCHAR 0550
ENCODING 1360
SWIDTH 720 0
DWIDTH 12 0
BBX 11 12 1 0
BITMAP
0F80
1FC0
38E0
3060
7060
70E0
6000
6000
E000
E000
E000
C000
ENDCHAR
STARTCHAR 0551
ENCODING 1361
SWIDTH 780 0
DWIDTH 13 0
BBX 11 12 1 0
BITMAP
0FC0
1FE0
3860
3860
18E0
7FC0
7FC0
00E0
E0E0
60E0
7FC0
3F00
ENDCHAR
STARTCHAR 0552
ENCODING 1362
SWIDTH 540 0
DWIDTH 9 0
BBX 9 12 1 0
BITMAP
3800
3000
3000
3F80
7F80
7000
6000
6000
6000
E000
E000
C000
ENDCHAR
STARTCHAR 0553
ENCODING 1363
SWIDTH 900 0
DWIDTH 15 0
BBX 13 12 2 0
BITMAP
0300
1FE0
3FF0
7770
E738
C638
C630
C670
EEF0
FFE0
3F80
0C00
ENDCHAR
STARTCHAR 0554
ENCODING 1364
SWIDTH 780 0
DWIDTH 13 0
BBX 13 12 0 0
BITMAP
03E0
0FF0
1E38
1C38
1838
1C70
3FF0
3FC0
3800
FFF0
FFF0
7000
ENDCHAR
STARTCHAR 0555
ENCODING 1365
SWIDTH 780 0
DWIDTH 13 0
BBX 12 12 1 0
BITMAP
07C0
1FE0
3870
7030
7030
6030
E030
E070
6060
70E0
3FC0
1F00
ENDCHAR
STARTCHAR 0556
ENCODING 1366
SWIDTH 840 0
DWIDTH 14 0
BBX 13 12 1 0
BITMAP
0F80
1F80
3380
3FE0
0FF0
0338
0738
E738
E630
E670
7FE0
3F80
ENDCHAR
STARTCHAR 0559
ENCODING 1369
SWIDTH 300 0
DWIDTH 5 0
BBX 3 5 2 7
BITMAP
60
60
C0
40
40
ENDCHAR
STARTCHAR 055A
ENCODING 1370
SWIDTH 240 0
DWIDTH 4 0
BBX 3 5 0 7
BITMAP
60
60
20
20
C0
ENDCHAR
STARTCHAR 055B
ENCODING 1371
SWIDTH 180 0
DWIDTH 3 0
BBX 3 3 1 10
BITMAP
60
C0
80
ENDCHAR
STARTCHAR 055C
ENCODING 1372
SWIDTH 240 0
DWIDTH 4 0
BBX 4 3 1 10
BITMAP
10
E0
80
ENDCHAR
STARTCHAR 055D
ENCODING 1373
SWIDTH 300 0
DWIDTH 5 0
BBX 3 4 3 9
BITMAP
C0
60
60
20
ENDCHAR
STARTCHAR 055E
ENCODING 1374
SWIDTH 300 0
DWIDTH 5 0
BBX 4 4 1 9
BITMAP
70
50
B0
80
ENDCHAR
STARTCHAR 055F
ENCODING 1375
SWIDTH 540 0
DWIDTH 9 0
BBX 8 3 3 12
BITMAP
C0
FF
FF
ENDCHAR
STARTCHAR 0561
ENCODING 1377
SWIDTH 900 0
DWIDTH 15 0
BBX 14 9 1 0
BITMAP
718C
738C
639C
631C
6318
E718
E738
FFF8
73B0
ENDCHAR
STARTCHAR 0562
ENCODING 1378
SWIDTH 600 0
DWIDTH 10 0
BBX 10 12 0 -3
BITMAP
3F80
3FC0
38C0
30C0
31C0
7000
7000
7F80
7F80
6000
E000
C000
ENDCHAR
STARTCHAR 0563
ENCODING 1379
SWIDTH 660 0
DWIDTH 11 0
BBX 10 12 1 -3
BITMAP
3DC0
7F80
6380
E180
C380
C380
E700
FFC0
7FC0
0700
0600
0600
ENDCHAR
STARTCHAR 0564
ENCODING 1380
SWIDTH 660 0
DWIDTH 11 0
BBX 10 12 1 -3
BITMAP
7700
7F80
7180
6180
6380
E300
E300
C3C0
C7C0
0700
0600
0600
ENDCHAR
STARTCHAR 0565
ENCODING 1381
SWIDTH 600 0
DWIDTH 10 0
BBX 10 12 1 0
BITMAP
3000
3000
3000
7FC0
7FC0
6000
6000
6380
E300
E700
FF00
7300
ENDCHAR
STARTCHAR 0566
ENCODING 1382
SWIDTH 660 0
DWIDTH 11 0
BBX 9 12 1 -3
BITMAP
3D80
7F80
6380
E380
C380
C300
E700
FF00
7F00
0700
0780
0780
ENDCHAR
STARTCHAR 0567
ENCODING 1383
SWIDTH 600 0
DWIDTH 10 0
BBX 10 12 1 0
BITMAP
3800
3000
3000
3FC0
7F80
6000
6000
6000
E000
E000
FE00
FE00
ENDCHAR
STARTCHAR 0568
ENCODING 1384
SWIDTH 600 0
DWIDTH 10 0
BBX 10 12 0 -3
BITMAP
3B80
3FC0
38C0
30C0
31C0
7180
7180
6180
6380
6000
FF80
FF00
ENDCHAR
STARTCHAR 0569
ENCODING 1385
SWIDTH 780 0
DWIDTH 13 0
BBX 14 12 0 -3
BITMAP
3FE0
3FF0
3838
33FC
37F8
7630
6670
67E0
63C0
E000
E000
C000
ENDCHAR
STARTCHAR 056A
ENCODING 1386
SWIDTH 660 0
DWIDTH 11 0
BBX 12 12 1 0
BITMAP
00C0
00C0
01C0
1FF0
7FE0
7180
E180
C380
C380
E700
7E00
3C00
ENDCHAR
STARTCHAR 056B
ENCODING 1387
SWIDTH 600 0
DWIDTH 10 0
BBX 10 15 0 -3
BITMAP
1C00
1800
1800
1B80
3FC0
38C0
30C0
31C0
7180
7180
6180
6380
6000
E000
E000
ENDCHAR
STARTCHAR 056C
ENCODING 1388
SWIDTH 300 0
DWIDTH 5 0
BBX 5 12 0 -3
BITMAP
38
38
30
30
30
70
70
60
60
60
F8
F0
ENDCHAR
STARTCHAR 056D
ENCODING 1389
SWIDTH 900 0
DWIDTH 15 0
BBX 15 15 0 -3
BITMAP
1C00
1800
1800
1B86
3FC6
39CE
318E
318C
718C
739C
63EC
61DC
6000
E000
C000
ENDCHAR
STARTCHAR 056E
ENCODING 1390
SWIDTH 600 0
DWIDTH 10 0
BBX 10 12 1 0
BITMAP
1C00
3800
3C00
1FC0
7FC0
7380
E380
C380
C380
E700
7E00
3C00
ENDCHAR
STARTCHAR 056F
ENCODING 1391
SWIDTH 600 0
DWIDTH 10 0
BBX 9 15 1 -3
BITMAP
3800
3000
3000
7180
7180
6180
6380
6380
E300
E700
FF00
7700
0700
0600
0600
ENDCHAR
STARTCHAR 0570
ENCODING 1392
SWIDTH 600 0
DWIDTH 10 0
BBX 9 12 1 0
BITMAP
3800
3000
3000
3700
7F80
7180
6180
6380
E300
E300
C300
C700
ENDCHAR
STARTCHAR 0571
ENCODING 1393
SWIDTH 600 0
DWIDTH 10 0
BBX 8 12 1 0
BITMAP
0E
0C
0C
0E
1E
37
63
E3
C3
C7
FF
77
ENDCHAR
STARTCHAR 0572
ENCODING 1394
SWIDTH 600 0
DWIDTH 10 0
BBX 9 12 1 -3
BITMAP
7700
7F80
7180
6180
6380
E300
E300
C300
C700
0700
0780
0780
ENDCHAR
STARTCHAR 0573
ENCODING 1395
SWIDTH 600 0
DWIDTH 10 0
BBX 10 12 1 0
BITMAP
01C0
07C0
1E00
7C00
7F00
7700
6380
E380
E300
E700
FB00
7300
ENDCHAR
STARTCHAR 0574
ENCODING 1396
SWIDTH 600 0
DWIDTH 10 0
BBX 12 12 1 0
BITMAP
00F0
00F0
01C0
71C0
7180
6180
6380
6380
E300
E700
FF00
7300
ENDCHAR
STARTCHAR 0575
ENCODING 1397
SWIDTH 300 0
DWIDTH 5 0
BBX 7 12 -2 -3
BITMAP
0E
0E
0C
0C
0C
1C
1C
18
18
38
F0
F0
ENDCHAR
STARTCHAR 0576
ENCODING 1398
SWIDTH 600 0
DWIDTH 10 0
BBX 9 12 1 0
BITMAP
7000
F000
3000
7180
7180
6180
6380
6380
E300
E700
FF00
7300
ENDCHAR
STARTCHAR 0577
ENCODING 1399
SWIDTH 540 0
DWIDTH 9 0
BBX 10 12 -1 -3
BITMAP
0F00
1F80
39C0
01C0
0180
0380
0700
1E00
3800
6000
FF00
7F00
ENDCHAR
STARTCHAR 0578
ENCODING 1400
SWIDTH 600 0
DWIDTH 10 0
BBX 9 9 1 0
BITMAP
7700
7F80
7180
6180
6380
E300
E300
C300
C700
ENDCHAR
STARTCHAR 0579
ENCODING 1401
SWIDTH 420 0
DWIDTH 7 0
BBX 8 12 -1 -3
BITMAP
1C
18
18
18
1E
0F
0E
1C
70
60
FE
7C
ENDCHAR
STARTCHAR 057A
ENCODING 1402
SWIDTH 900 0
DWIDTH 15 0
BBX 14 12 1 -3
BITMAP
718C
738C
639C
631C
6318
E718
E738
FFF8
73B8
0030
0030
0070
ENDCHAR
STARTCHAR 057B
ENCODING 1403
SWIDTH 600 0
DWIDTH 10 0
BBX 10 12 0 -3
BITMAP
0F00
3F80
31C0
3180
3180
3B00
1700
3C00
3800
6000
FF00
FE00
ENDCHAR
STARTCHAR 057C
ENCODING 1404
SWIDTH 600 0
DWIDTH 10 0
BBX 9 9 1 0
BITMAP
7700
7F80
7180
6180
6300
E300
E600
CF80
CF00
ENDCHAR
STARTCHAR 057D
ENCODING 1405
SWIDTH 600 0
DWIDTH 10 0
BBX 9 9 1 0
BITMAP
7180
7180
6180
6380
6380
E300
E700
FF00
7300
ENDCHAR
STARTCHAR 057E
ENCODING 1406
SWIDTH 600 0
DWIDTH 10 0
BBX 10 15 1 -3
BITMAP
00C0
00C0
01C0
7180
7180
6180
6380
6380
E300
E700
FF00
7700
0600
0780
0780
ENDCHAR
STARTCHAR 057F
ENCODING 1407
SWIDTH 900 0
DWIDTH 15 0
BBX 14 9 1 0
BITMAP
71B8
73FC
639C
639C
6318
E718
E718
FF38
7638
ENDCHAR
STARTCHAR 0580
ENCODING 1408
SWIDTH 600 0
DWIDTH 10 0
BBX 10 12 0 -3
BITMAP
3B80
3FC0
38C0
30C0
31C0
7180
7180
6180
6380
6000
E000
E000
ENDCHAR
STARTCHAR 0581
ENCODING 1409
SWIDTH 600 0
DWIDTH 10 0
BBX 9 12 1 -3
BITMAP
3D80
7F80
6380
E380
C380
C300
E700
FF00
7F00
0600
FE00
FC00
ENDCHAR
STARTCHAR 0582
ENCODING 1410
SWIDTH 420 0
DWIDTH 7 0
BBX 6 9 1 0
BITMAP
70
70
60
60
60
E0
E0
FC
FC
ENDCHAR
STARTCHAR 0583
ENCODING 1411
SWIDTH 900 0
DWIDTH 15 0
BBX 14 15 1 -3
BITMAP
01C0
01C0
0180
71B8
73FC
639C
639C
6318
E718
E718
FF38
7638
0600
0E00
0E00
ENDCHAR
STARTCHAR 0584
ENCODING 1412
SWIDTH 600 0
DWIDTH 10 0
BBX 11 12 -1 -3
BITMAP
1DC0
1FE0
1C60
1860
1860
38E0
3FC0
3780
3000
FFC0
FFC0
6000
ENDCHAR
STARTCHAR 0585
ENCODING 1413
SWIDTH 600 0
DWIDTH 10 0
BBX 9 9 1 0
BITMAP
1E00
7F00
7380
E180
C180
C380
E300
7F00
3C00
ENDCHAR
STARTCHAR 0586
ENCODING 1414
SWIDTH 840 0
DWIDTH 14 0
BBX 13 15 1 -3
BITMAP
0F80
1F80
3B80
3FE0
1FF0
0338
0738
C738
C638
E670
FFE0
3FC0
0C00
0C00
0C00
ENDCHAR
STARTCHAR 0587
ENCODING 1415
SWIDTH 780 0
DWIDTH 13 0
BBX 12 12 1 0
BITMAP
3000
3000
3000
7180
7180
6180
6380
6380
E300
E700
FFF0
73F0
ENDCHAR
STARTCHAR 0589
ENCODING 1417
SWIDTH 300 0
DWIDTH 5 0
BBX 3 9 1 0
BITMAP
60
60
00
00
00
00
00
C0
C0
ENDCHAR
STARTCHAR 058A
ENCODING 1418
SWIDTH 420 0
DWIDTH 7 0
BBX 6 3 1 3
BITMAP
40
FC
F8
ENDCHAR
STARTCHAR 058D
ENCODING 1421
SWIDTH 1020 0
DWIDTH 17 0
BBX 15 15 1 -3
BITMAP
0380
1CF0
2908
5A04
5AFC
CA86
CFF2
A78A
9FE6
C3A6
66B4
5894
2128
1E70
07C0
ENDCHAR
STARTCHAR 058E
ENCODING 1422
SWIDTH 1020 0
DWIDTH 17 0
BBX 15 15 1 -3
BITMAP
0380
1E70
2128
40B4
7E94
C2A6
9FE6
B3CA
CFF2
CB86
5ACC
5A34
2908
1CF0
07C0
ENDCHAR
STARTCHAR 058F
ENCODING 1423
SWIDTH 780 0
DWIDTH 13 0
BBX 10 12 2 0
BITMAP
1F00
7F80
6180
E1C0
C1C0
C180
0180
1FC0
0380
1FC0
0300
0700
ENDCHAR
STARTCHAR 0591
ENCODING 1425
SWIDTH 0 0
DWIDTH 0 0
BBX 3 4 -3 -4
BITMAP
20
60
A0
A0
ENDCHAR
STARTCHAR 0592
ENCODING 1426
SWIDTH 0 0
DWIDTH 0 0
BBX 3 3 0 10
BITMAP
40
A0
A0
ENDCHAR
STARTCHAR 0593
ENCODING 1427
SWIDTH 0 0
DWIDTH 0 0
BBX 3 4 0 9
BITMAP
20
60
40
80
ENDCHAR
STARTCHAR 0594
ENCODING 1428
SWIDTH 0 0
DWIDTH 0 0
BBX 1 3 1 10
BITMAP
80
80
80
ENDCHAR
STARTCHAR 0595
ENCODING 1429
SWIDTH 0 0
DWIDTH 0 0
BBX 3 4 0 9
BITMAP
60
A0
A0
80
ENDCHAR
STARTCHAR 0596
ENCODING 1430
SWIDTH 0 0
DWIDTH 0 0
BBX 2 4 -2 -4
BITMAP
80
80
80
40
ENDCHAR
STARTCHAR 0597
ENCODING 1431
SWIDTH 0 0
DWIDTH 0 0
BBX 2 2 1 10
BITMAP
C0
80
ENDCHAR
STARTCHAR 0598
ENCODING 1432
SWIDTH 0 0
DWIDTH 0 0
BBX 5 3 -1 10
BITMAP
40
A8
18
ENDCHAR
STARTCHAR 0599
ENCODING 1433
SWIDTH 0 0
DWIDTH 0 0
BBX 2 4 -1 9
BITMAP
80
40
40
40
ENDCHAR
STARTCHAR 059A
ENCODING 1434
SWIDTH 0 0
DWIDTH 0 0
BBX 3 4 0 -4
BITMAP
60
80
80
40
ENDCHAR
STARTCHAR 059B
ENCODING 1435
SWIDTH 0 0
DWIDTH 0 0
BBX 4 4 -3 -4
BITMAP
50
60
20
C0
ENDCHAR
STARTCHAR 059C
ENCODING 1436
SWIDTH 0 0
DWIDTH 0 0
BBX 3 4 0 9
BITMAP
20
40
80
80
ENDCHAR
STARTCHAR 059D
ENCODING 1437
SWIDTH 0 0
DWIDTH 0 0
BBX 4 4 2 9
BITMAP
30
40
80
80
ENDCHAR
STARTCHAR 059E
ENCODING 1438
SWIDTH 0 0
DWIDTH 0 0
BBX 5 4 -1 9
BITMAP
28
50
A0
A0
ENDCHAR
STARTCHAR 059F
ENCODING 1439
SWIDTH 0 0
DWIDTH 0 0
BBX 7 4 -2 9
BITMAP
42
AE
C6
20
ENDCHAR
STARTCHAR 05A0
ENCODING 1440
SWIDTH 0 0
DWIDTH 0 0
BBX 3 3 0 9
BITMAP
20
E0
60
ENDCHAR
STARTCHAR 05A1
ENCODING 1441
SWIDTH 0 0
DWIDTH 0 0
BBX 3 4 0 9
BITMAP
40
A0
C0
80
ENDCHAR
STARTCHAR 05A2
ENCODING 1442
SWIDTH 0 0
DWIDTH 0 0
BBX 4 4 -3 -4
BITMAP
50
90
60
40
ENDCHAR
STARTCHAR 05A3
ENCODING 1443
SWIDTH 0 0
DWIDTH 0 0
BBX 3 3 -3 -3
BITMAP
20
20
E0
ENDCHAR
STARTCHAR 05A4
ENCODING 1444
SWIDTH 0 0
DWIDTH 0 0
BBX 2 4 -2 -4
BITMAP
40
80
80
40
ENDCHAR
STARTCHAR 05A5
ENCODING 1445
SWIDTH 0 0
DWIDTH 0 0
BBX 4 4 -3 -4
BITMAP
10
20
20
C0
ENDCHAR
STARTCHAR 05A6
ENCODING 1446
SWIDTH 0 0
DWIDTH 0 0
BBX 4 4 -3 -4
BITMAP
10
50
50
A0
ENDCHAR
STARTCHAR 05A7
ENCODING 1447
SWIDTH 0 0
DWIDTH 0 0
BBX 2 3 -2 -3
BITMAP
C0
40
80
ENDCHAR
STARTCHAR 05A8
ENCODING 1448
SWIDTH 0 0
DWIDTH 0 0
BBX 2 4 1 9
BITMAP
80
40
40
40
ENDCHAR
STARTCHAR 05A9
ENCODING 1449
SWIDTH 0 0
DWIDTH 0 0
BBX 3 4 0 9
BITMAP
40
A0
C0
20
ENDCHAR
STARTCHAR 05AA
ENCODING 1450
SWIDTH 0 0
DWIDTH 0 0
BBX 4 4 -3 -4
BITMAP
50
90
60
40
ENDCHAR
STARTCHAR 05AB
ENCODING 1451
SWIDTH 0 0
DWIDTH 0 0
BBX 2 4 1 9
BITMAP
40
80
80
40
ENDCHAR
STARTCHAR 05AC
ENCODING 1452
SWIDTH 0 0
DWIDTH 0 0
BBX 3 4 0 9
BITMAP
20
20
20
E0
ENDCHAR
STARTCHAR 05AD
ENCODING 1453
SWIDTH 0 0
DWIDTH 0 0
BBX 2 4 0 -4
BITMAP
80
80
80
40
ENDCHAR
STARTCHAR 05AE
ENCODING 1454
SWIDTH 0 0
DWIDTH 0 0
BBX 5 3 -3 10
BITMAP
40
A8
98
ENDCHAR
STARTCHAR 05AF
ENCODING 1455
SWIDTH 0 0
DWIDTH 0 0
BBX 2 3 1 10
BITMAP
40
C0
80
ENDCHAR
STARTCHAR 05B0
ENCODING 1456
SWIDTH 0 0
DWIDTH 0 0
BBX 1 3 -1 -3
BITMAP
80
80
80
ENDCHAR
STARTCHAR 05B1
ENCODING 1457
SWIDTH 0 0
DWIDTH 0 0
BBX 5 4 -1 -4
BITMAP
08
A8
48
40
ENDCHAR
STARTCHAR 05B2
ENCODING 1458
SWIDTH 0 0
DWIDTH 0 0
BBX 5 4 -1 -4
BITMAP
E8
08
18
10
ENDCHAR
STARTCHAR 05B3
ENCODING 1459
SWIDTH 0 0
DWIDTH 0 0
BBX 5 4 -1 -4
BITMAP
E8
48
58
10
ENDCHAR
STARTCHAR 05B4
ENCODING 1460
SWIDTH 0 0
DWIDTH 0 0
BBX 1 1 -1 -1
BITMAP
80
ENDCHAR
STARTCHAR 05B5
ENCODING 1461
SWIDTH 0 0
DWIDTH 0 0
BBX 4 1 -1 -1
BITMAP
B0
ENDCHAR
STARTCHAR 05B6
ENCODING 1462
SWIDTH 0 0
DWIDTH 0 0
BBX 4 3 -1 -3
BITMAP
B0
40
40
ENDCHAR
STARTCHAR 05B7
ENCODING 1463
SWIDTH 0 0
DWIDTH 0 0
BBX 4 1 -1 -1
BITMAP
F0
ENDCHAR
STARTCHAR 05B8
ENCODING 1464
SWIDTH 0 0
DWIDTH 0 0
BBX 4 3 -1 -3
BITMAP
F0
40
40
ENDCHAR
STARTCHAR 05B9
ENCODING 1465
SWIDTH 0 0
DWIDTH 0 0
BBX 1 2 1 9
BITMAP
80
80
ENDCHAR
STARTCHAR 05BA
ENCODING 1466
SWIDTH 0 0
DWIDTH 0 0
BBX 1 2 1 9
BITMAP
80
80
ENDCHAR
STARTCHAR 05BB
ENCODING 1467
SWIDTH 0 0
DWIDTH 0 0
BBX 5 3 -1 -3
BITMAP
A0
28
08
ENDCHAR
STARTCHAR 05BC
ENCODING 1468
SWIDTH 0 0
DWIDTH 0 0
BBX 2 1 2 5
BITMAP
C0
ENDCHAR
STARTCHAR 05BD
ENCODING 1469
SWIDTH 0 0
DWIDTH 0 0
BBX 2 4 -2 -4
BITMAP
40
80
80
80
ENDCHAR
STARTCHAR 05BE
ENCODING 1470
SWIDTH 480 0
DWIDTH 8 0
BBX 6 2 2 7
BITMAP
FC
FC
ENDCHAR
STARTCHAR 05BF
ENCODING 1471
SWIDTH 0 0
DWIDTH 0 0
BBX 3 1 0 10
BITMAP
E0
ENDCHAR
STARTCHAR 05C0
ENCODING 1472
SWIDTH 300 0
DWIDTH 5 0
BBX 4 13 1 -2
BITMAP
30
30
30
30
30
60
60
60
60
60
C0
C0
C0
ENDCHAR
STARTCHAR 05C1
ENCODING 1473
SWIDTH 0 0
DWIDTH 0 0
BBX 1 1 8 9
BITMAP
80
ENDCHAR
STARTCHAR 05C2
ENCODING 1474
SWIDTH 0 0
DWIDTH 0 0
BBX 1 1 0 9
BITMAP
80
ENDCHAR
STARTCHAR 05C3
ENCODING 1475
SWIDTH 360 0
DWIDTH 6 0
BBX 3 9 2 0
BITMAP
60
60
00
00
00
00
00
C0
C0
ENDCHAR
STARTCHAR 05C4
ENCODING 1476
SWIDTH 0 0
DWIDTH 0 0
BBX 1 1 1 10
BITMAP
80
ENDCHAR
STARTCHAR 05C5
ENCODING 1477
SWIDTH 0 0
DWIDTH 0 0
BBX 2 2 -2 -2
BITMAP
40
C0
ENDCHAR
STARTCHAR 05C6
ENCODING 1478
SWIDTH 420 0
DWIDTH 7 0
BBX 7 9 0 0
BITMAP
1E
3E
70
60
60
60
60
FC
FC
ENDCHAR
STARTCHAR 05C7
ENCODING 1479
SWIDTH 0 0
DWIDTH 0 0
BBX 4 4 -1 -4
BITMAP
F0
40
40
40
ENDCHAR
STARTCHAR 05D0
ENCODING 1488
SWIDTH 600 0
DWIDTH 10 0
BBX 11 9 0 0
BITMAP
3060
1860
0CC0
1CC0
3780
6300
6300
C180
C0C0
ENDCHAR
STARTCHAR 05D1
ENCODING 1489
SWIDTH 600 0
DWIDTH 10 0
BBX 10 9 0 0
BITMAP
3E00
3F00
0380
0180
0180
0300
0300
FFC0
FFC0
ENDCHAR
STARTCHAR 05D2
ENCODING 1490
SWIDTH 480 0
DWIDTH 8 0
BBX 7 9 0 0
BITMAP
1C
1E
06
06
0C
1C
3C
6C
CC
ENDCHAR
STARTCHAR 05D3
ENCODING 1491
SWIDTH 540 0
DWIDTH 9 0
BBX 9 9 1 0
BITMAP
FF80
FF80
0C00
0C00
0C00
0C00
1800
1800
1800
ENDCHAR
STARTCHAR 05D4
ENCODING 1492
SWIDTH 600 0
DWIDTH 10 0
BBX 8 9 1 0
BITMAP
3E
7F
03
03
63
63
C6
C6
C6
ENDCHAR
STARTCHAR 05D5
ENCODING 1493
SWIDTH 300 0
DWIDTH 5 0
BBX 4 9 1 0
BITMAP
30
30
60
60
60
60
60
C0
C0
ENDCHAR
STARTCHAR 05D6
ENCODING 1494
SWIDTH 420 0
DWIDTH 7 0
BBX 6 9 2 0
BITMAP
FC
FC
20
60
60
40
C0
C0
C0
ENDCHAR
STARTCHAR 05D7
ENCODING 1495
SWIDTH 600 0
DWIDTH 10 0
BBX 9 9 1 0
BITMAP
3F00
7F80
6180
6180
6180
6180
C300
C300
C300
ENDCHAR
STARTCHAR 05D8
ENCODING 1496
SWIDTH 660 0
DWIDTH 11 0
BBX 9 9 2 0
BITMAP
6700
6F80
6980
C180
C180
C300
C300
FE00
7C00
ENDCHAR
STARTCHAR 05D9
ENCODING 1497
SWIDTH 300 0
DWIDTH 5 0
BBX 3 5 2 4
BITMAP
60
60
60
C0
C0
ENDCHAR
STARTCHAR 05DA
ENCODING 1498
SWIDTH 540 0
DWIDTH 9 0
BBX 6 12 2 -3
BITMAP
F8
FC
0C
0C
0C
18
18
18
18
18
30
30
ENDCHAR
STARTCHAR 05DB
ENCODING 1499
SWIDTH 480 0
DWIDTH 8 0
BBX 8 9 0 0
BITMAP
3C
3E
07
03
03
07
0E
FC
F8
ENDCHAR
STARTCHAR 05DC
ENCODING 1500
SWIDTH 480 0
DWIDTH 8 0
BBX 6 12 2 0
BITMAP
60
60
60
FC
FC
0C
0C
0C
18
38
30
30
ENDCHAR
STARTCHAR 05DD
ENCODING 1501
SWIDTH 600 0
DWIDTH 10 0
BBX 9 9 1 0
BITMAP
3F00
7F80
6180
6180
6180
6180
C300
FF00
FF00
ENDCHAR
STARTCHAR 05DE
ENCODING 1502
SWIDTH 660 0
DWIDTH 11 0
BBX 10 9 1 0
BITMAP
6700
7F80
38C0
38C0
30C0
7180
6180
6F80
CF80
ENDCHAR
STARTCHAR 05DF
ENCODING 1503
SWIDTH 300 0
DWIDTH 5 0
BBX 5 12 0 -3
BITMAP
18
18
30
30
30
30
60
60
60
60
60
C0
ENDCHAR
STARTCHAR 05E0
ENCODING 1504
SWIDTH 420 0
DWIDTH 7 0
BBX 7 9 0 0
BITMAP
3C
3E
06
06
06
0C
0C
FC
FC
ENDCHAR
STARTCHAR 05E1
ENCODING 1505
SWIDTH 600 0
DWIDTH 10 0
BBX 9 9 1 0
BITMAP
1E00
3F00
6180
E180
C180
C380
C300
7E00
3C00
ENDCHAR
STARTCHAR 05E2
ENCODING 1506
SWIDTH 540 0
DWIDTH 9 0
BBX 10 10 0 -1
BITMAP
18C0
18C0
1980
1980
1980
1980
1B00
1E00
FC00
E000
ENDCHAR
STARTCHAR 05E3
ENCODING 1507
SWIDTH 600 0
DWIDTH 10 0
BBX 8 12 1 -3
BITMAP
7E
7F
C3
C3
E3
67
06
06
06
06
0C
0C
ENDCHAR
STARTCHAR 05E4
ENCODING 1508
SWIDTH 600 0
DWIDTH 10 0
BBX 10 9 0 0
BITMAP
1F00
3F80
31C0
30C0
3CC0
1D80
0380
FF00
FC00
ENDCHAR
STARTCHAR 05E5
ENCODING 1509
SWIDTH 480 0
DWIDTH 8 0
BBX 7 12 2 -3
BITMAP
C6
E6
6C
6C
78
30
60
60
60
60
C0
C0
ENDCHAR
STARTCHAR 05E6
ENCODING 1510
SWIDTH 540 0
DWIDTH 9 0
BBX 10 9 0 0
BITMAP
30C0
18C0
1980
0D80
0F00
0600
0600
FF00
FF00
ENDCHAR
STARTCHAR 05E7
ENCODING 1511
SWIDTH 600 0
DWIDTH 10 0
BBX 11 12 0 -3
BITMAP
1FE0
3FE0
00C0
00C0
30C0
3380
6300
6600
6600
6000
C000
C000
ENDCHAR
STARTCHAR 05E8
ENCODING 1512
SWIDTH 540 0
DWIDTH 9 0
BBX 7 9 1 0
BITMAP
F8
FC
0E
06
06
06
0C
0C
0C
ENDCHAR
STARTCHAR 05E9
ENCODING 1513
SWIDTH 720 0
DWIDTH 12 0
BBX 12 9 1 0
BITMAP
6630
E670
CC60
CC60
D8E0
F0C0
C1C0
7F80
3E00
ENDCHAR
STARTCHAR 05EA
ENCODING 1514
SWIDTH 660 0
DWIDTH 11 0
BBX 11 9 0 0
BITMAP
3FC0
3FE0
0C60
0C60
1860
1860
18C0
F8C0
F0C0
ENDCHAR
STARTCHAR 05F0
ENCODING 1520
SWIDTH 540 0
DWIDTH 9 0
BBX 8 9 1 0
BITMAP
33
33
66
66
66
66
66
CC
CC
ENDCHAR
STARTCHAR 05F1
ENCODING 1521
SWIDTH 540 0
DWIDTH 9 0
BBX 7 9 2 0
BITMAP
66
66
6C
CC
CC
0C
0C
18
18
ENDCHAR
STARTCHAR 05F2
ENCODING 1522
SWIDTH 540 0
DWIDTH 9 0
BBX 7 5 2 4
BITMAP
66
66
66
CC
CC
ENDCHAR
STARTCHAR 05F3
ENCODING 1523
SWIDTH 300 0
DWIDTH 5 0
BBX 4 4 2 5
BITMAP
30
60
60
C0
ENDCHAR
STARTCHAR 05F4
ENCODING 1524
SWIDTH 540 0
DWIDTH 9 0
BBX 8 4 2 5
BITMAP
33
66
66
CC
ENDCHAR
STARTCHAR 1D00
ENCODING 7424
SWIDTH 600 0
DWIDTH 10 0
BBX 10 9 0 0
BITMAP
0700
0780
0D80
1980
1980
3F80
31C0
60C0
C0C0
ENDCHAR
STARTCHAR 1D01
ENCODING 7425
SWIDTH 780 0
DWIDTH 13 0
BBX 13 9 0 0
BITMAP
07F8
07F8
0D80
1DF0
19F0
3F80
3F80
63F0
C3F0
ENDCHAR
STARTCHAR 1D02
ENCODING 7426
SWIDTH 900 0
DWIDTH 15 0
BBX 14 9 1 0
BITMAP
3C78
7EFC
C78C
039C
FFF0
C300
C718
7FF0
7DE0
ENDCHAR
STARTCHAR 1D03
ENCODING 7427
SWIDTH 660 0
DWIDTH 11 0
BBX 10 9 1 0
BITMAP
3F00
3180
6180
6380
FFC0
6180
6180
C180
FE00
ENDCHAR
STARTCHAR 1D04
ENCODING 7428
SWIDTH 540 0
DWIDTH 9 0
BBX 8 9 1 0
BITMAP
1E
7F
63
C0
C0
C0
C3
7E
3C
ENDCHAR
STARTCHAR 1D05
ENCODING 7429
SWIDTH 600 0
DWIDTH 10 0
BBX 9 9 1 0
BITMAP
3E00
3F00
6380
6180
6180
6180
6300
FF00
FC00
ENDCHAR
STARTCHAR 1D06
ENCODING 7430
SWIDTH 600 0
DWIDTH 10 0
BBX 9 9 1 0
BITMAP
3E00
3F00
6380
6180
F980
6180
6300
FF00
FC00
ENDCHAR
STARTCHAR 1D07
ENCODING 7431
SWIDTH 480 0
DWIDTH 8 0
BBX 7 9 1 0
BITMAP
3E
3E
60
7C
7C
60
60
FC
FC
ENDCHAR
STARTCHAR 1D08
ENCODING 7432
SWIDTH 540 0
DWIDTH 9 0
BBX 8 9 1 0
BITMAP
1E
3F
63
0C
0F
03
C3
7E
3C
ENDCHAR
STARTCHAR 1D09
ENCODING 7433
SWIDTH 300 0
DWIDTH 5 0
BBX 4 12 0 -3
BITMAP
30
30
30
30
30
60
60
60
60
00
C0
C0
ENDCHAR
STARTCHAR 1D0A
ENCODING 7434
SWIDTH 540 0
DWIDTH 9 0
BBX 8 9 1 0
BITMAP
03
03
03
03
06
06
C6
FC
78
ENDCHAR
STARTCHAR 1D0B
ENCODING 7435
SWIDTH 600 0
DWIDTH 10 0
BBX 9 9 1 0
BITMAP
6380
6700
6E00
7C00
7C00
6E00
C600
C700
C380
ENDCHAR
STARTCHAR 1D0C
ENCODING 7436
SWIDTH 480 0
DWIDTH 8 0
BBX 7 9 0 0
BITMAP
18
18
34
3C
78
F0
B0
7E
7E
ENDCHAR
STARTCHAR 1D0D
ENCODING 7437
SWIDTH 720 0
DWIDTH 12 0
BBX 11 9 1 0
BITMAP
7860
78E0
68E0
6960
6B60
6A60
CEC0
CCC0
CCC0
ENDCHAR
STARTCHAR 1D0E
ENCODING 7438
SWIDTH 600 0
DWIDTH 10 0
BBX 9 9 1 0
BITMAP
3380
3380
6700
6F00
7F00
7B00
7300
E600
C600
ENDCHAR
STARTCHAR 1D0F
ENCODING 7439
SWIDTH 600 0
DWIDTH 10 0
BBX 9 9 1 0
BITMAP
1E00
7F00
6380
C180
C180
C180
E300
7F00
3C00
ENDCHAR
STARTCHAR 1D10
ENCODING 7440
SWIDTH 540 0
DWIDTH 9 0
BBX 8 9 1 0
BITMAP
1E
3F
73
63
03
03
C6
FE
78
ENDCHAR
STARTCHAR 1D11
ENCODING 7441
SWIDTH 600 0
DWIDTH 10 0
BBX 8 9 1 0
BITMAP
3C
7E
C7
C3
C3
C3
63
7E
3C
ENDCHAR
STARTCHAR 1D12
ENCODING 7442
SWIDTH 540 0
DWIDTH 9 0
BBX 8 9 1 0
BITMAP
78
7E
C6
C3
C3
E3
73
37
06
ENDCHAR
STARTCHAR 1D13
ENCODING 7443
SWIDTH 600 0
DWIDTH 10 0
BBX 10 9 0 0
BITMAP
DE00
7F00
7380
6980
6D80
6580
3380
3F80
1EC0
ENDCHAR
STARTCHAR 1D14
ENCODING 7444
SWIDTH 960 0
DWIDTH 16 0
BBX 15 9 1 0
BITMAP
3CF8
7FFC
C78E
0306
FF06
C306
C78C
FFFC
7CF0
ENDCHAR
STARTCHAR 1D15
ENCODING 7445
SWIDTH 600 0
DWIDTH 10 0
BBX 10 9 1 0
BITMAP
60C0
7180
3F00
3F00
6180
C180
C380
FF00
7E00
ENDCHAR
STARTCHAR 1D16
ENCODING 7446
SWIDTH 600 0
DWIDTH 10 0
BBX 9 5 1 4
BITMAP
1E00
7F00
6380
E180
C180
ENDCHAR
STARTCHAR 1D17
ENCODING 7447
SWIDTH 600 0
DWIDTH 10 0
BBX 9 5 1 0
BITMAP
C180
C380
E300
7F00
3C00
ENDCHAR
STARTCHAR 1D18
ENCODING 7448
SWIDTH 600 0
DWIDTH 10 0
BBX 9 9 1 0
BITMAP
3F00
3F80
6180
6180
7F00
7E00
6000
C000
C000
ENDCHAR
STARTCHAR 1D19
ENCODING 7449
SWIDTH 600 0
DWIDTH 10 0
BBX 8 9 1 0
BITMAP
3F
7F
63
63
7F
3F
66
C6
C6
ENDCHAR
STARTCHAR 1D1A
ENCODING 7450
SWIDTH 600 0
DWIDTH 10 0
BBX 9 9 1 0
BITMAP
6380
3300
3300
3F00
7F00
C600
C600
FE00
7E00
ENDCHAR
STARTCHAR 1D1B
ENCODING 7451
SWIDTH 480 0
DWIDTH 8 0
BBX 7 9 1 0
BITMAP
FE
FE
30
30
30
30
30
60
60
ENDCHAR
STARTCHAR 1D1C
ENCODING 7452
SWIDTH 600 0
DWIDTH 10 0
BBX 9 9 1 0
BITMAP
6180
6180
6180
6180
C300
C300
C300
FE00
3C00
ENDCHAR
STARTCHAR 1D1D
ENCODING 7453
SWIDTH 600 0
DWIDTH 10 0
BBX 9 9 1 0
BITMAP
C000
FE00
3F80
0380
0100
0180
E180
FF80
1F00
ENDCHAR
STARTCHAR 1D1E
ENCODING 7454
SWIDTH 720 0
DWIDTH 12 0
BBX 12 9 0 0
BITMAP
1800
1FC0
C7F0
C070
0020
C030
DC30
1FF0
03E0
ENDCHAR
STARTCHAR 1D1F
ENCODING 7455
SWIDTH 600 0
DWIDTH 10 0
BBX 9 14 1 -2
BITMAP
C000
FE00
3F80
0380
0100
0180
E180
FF80
1F00
0300
0180
F180
FF80
1F00
ENDCHAR
STARTCHAR 1D20
ENCODING 7456
SWIDTH 540 0
DWIDTH 9 0
BBX 8 9 2 0
BITMAP
C3
C6
C6
CC
DC
58
70
70
60
ENDCHAR
STARTCHAR 1D21
ENCODING 7457
SWIDTH 780 0
DWIDTH 13 0
BBX 13 9 1 0
BITMAP
C318
C730
C730
CF60
6B60
7BC0
7380
7380
6300
ENDCHAR
STARTCHAR 1D22
ENCODING 7458
SWIDTH 540 0
DWIDTH 9 0
BBX 8 9 1 0
BITMAP
7F
7F
06
0C
18
30
60
FE
FE
ENDCHAR
STARTCHAR 1D23
ENCODING 7459
SWIDTH 540 0
DWIDTH 9 0
BBX 9 9 0 0
BITMAP
7F80
7F80
0700
0E00
0F00
0300
C300
7F00
3C00
ENDCHAR
STARTCHAR 1D24
ENCODING 7460
SWIDTH 480 0
DWIDTH 8 0
BBX 7 9 1 0
BITMAP
1C
3E
66
06
3C
70
CC
F8
70
ENDCHAR
STARTCHAR 1D25
ENCODING 7461
SWIDTH 600 0
DWIDTH 10 0
BBX 10 9 0 0
BITMAP
0780
0FC0
1FC0
1FC0
0F80
0F00
9F40
FFC0
7380
ENDCHAR
STARTCHAR 1D26
ENCODING 7462
SWIDTH 480 0
DWIDTH 8 0
BBX 8 9 1 0
BITMAP
3F
3F
60
60
60
60
60
C0
C0
ENDCHAR
STARTCHAR 1D27
ENCODING 7463
SWIDTH 540 0
DWIDTH 9 0
BBX 9 9 0 0
BITMAP
0600
0E00
0E00
1B00
3B00
3300
7300
6180
C180
ENDCHAR
STARTCHAR 1D28
ENCODING 7464
SWIDTH 600 0
DWIDTH 10 0
BBX 9 9 1 0
BITMAP
7F80
7F80
6180
6180
6180
6180
C300
C300
C300
ENDCHAR
STARTCHAR 1D29
ENCODING 7465
SWIDTH 600 0
DWIDTH 10 0
BBX 9 9 1 0
BITMAP
3F00
3F80
6180
6180
7F00
7E00
6000
C000
C000
ENDCHAR
STARTCHAR 1D2A
ENCODING 7466
SWIDTH 780 0
DWIDTH 13 0
BBX 11 9 2 0
BITMAP
E660
C6C0
CCC0
CCC0
EDC0
FF80
3F00
1800
1800
ENDCHAR
STARTCHAR 1D2B
ENCODING 7467
SWIDTH 660 0
DWIDTH 11 0
BBX 11 9 0 0
BITMAP
1FE0
1FE0
1860
1860
1860
1860
30C0
F0C0
E0C0
ENDCHAR
STARTCHAR 1D2C
ENCODING 7468
SWIDTH 540 0
DWIDTH 9 0
BBX 8 8 1 4
BITMAP
0E
0F
1B
3B
33
7F
7F
C3
ENDCHAR
STARTCHAR 1D2D
ENCODING 7469
SWIDTH 720 0
DWIDTH 12 0
BBX 12 8 1 4
BITMAP
0FF0
0FF0
1B00
1BE0
33E0
7F00
7FE0
C7E0
ENDCHAR
STARTCHAR 1D2E
ENCODING 7470
SWIDTH 480 0
DWIDTH 8 0
BBX 7 8 1 4
BITMAP
3C
7E
66
7C
7E
66
FE
FC
ENDCHAR
STARTCHAR 1D2F
ENCODING 7471
SWIDTH 480 0
DWIDTH 8 0
BBX 9 8 0 4
BITMAP
1E00
3F00
3300
FF80
FF80
3300
7F00
7E00
ENDCHAR
STARTCHAR 1D30
ENCODING 7472
SWIDTH 540 0
DWIDTH 9 0
BBX 8 8 1 4
BITMAP
3E
7F
63
63
63
67
FE
FC
ENDCHAR
STARTCHAR 1D31
ENCODING 7473
SWIDTH 480 0
DWIDTH 8 0
BBX 7 8 1 4
BITMAP
3E
7E
60
7C
7C
60
FC
FC
ENDCHAR
STARTCHAR 1D32
ENCODING 7474
SWIDTH 480 0
DWIDTH 8 0
BBX 9 8 1 4
BITMAP
7F80
7F00
0300
7F00
7E00
0600
FE00
FE00
ENDCHAR
STARTCHAR 1D33
ENCODING 7475
SWIDTH 540 0
DWIDTH 9 0
BBX 8 8 2 4
BITMAP
3E
7F
60
CF
CE
C6
FE
7C
ENDCHAR
STARTCHAR 1D34
ENCODING 7476
SWIDTH 480 0
DWIDTH 8 0
BBX 9 8 1 4
BITMAP
3180
6300
7F00
7F00
6300
6300
C600
C600
ENDCHAR
STARTCHAR 1D35
ENCODING 7477
SWIDTH 240 0
DWIDTH 4 0
BBX 4 8 1 4
BITMAP
30
60
60
60
60
60
C0
C0
ENDCHAR
STARTCHAR 1D36
ENCODING 7478
SWIDTH 360 0
DWIDTH 6 0
BBX 7 8 0 4
BITMAP
06
06
06
0C
0C
CC
FC
78
ENDCHAR
STARTCHAR 1D37
ENCODING 7479
SWIDTH 540 0
DWIDTH 9 0
BBX 8 8 1 4
BITMAP
33
66
6C
7C
7C
66
C6
C3
ENDCHAR
STARTCHAR 1D38
ENCODING 7480
SWIDTH 420 0
DWIDTH 7 0
BBX 6 8 1 4
BITMAP
30
60
60
60
60
60
FC
FC
ENDCHAR
STARTCHAR 1D39
ENCODING 7481
SWIDTH 600 0
DWIDTH 10 0
BBX 11 8 1 4
BITMAP
31E0
71E0
73C0
73C0
7EC0
7EC0
DD80
CD80
ENDCHAR
STARTCHAR 1D3A
ENCODING 7482
SWIDTH 480 0
DWIDTH 8 0
BBX 9 8 0 4
BITMAP
3180
7980
7980
7B00
6F00
6F00
CF00
C700
ENDCHAR
STARTCHAR 1D3B
ENCODING 7483
SWIDTH 480 0
DWIDTH 8 0
BBX 9 8 1 4
BITMAP
3180
6300
6700
6F00
7B00
7300
E600
C600
ENDCHAR
STARTCHAR 1D3C
ENCODING 7484
SWIDTH 540 0
DWIDTH 9 0
BBX 7 8 2 4
BITMAP
3C
7E
E6
C6
C6
CE
FC
78
ENDCHAR
STARTCHAR 1D3D
ENCODING 7485
SWIDTH 480 0
DWIDTH 8 0
BBX 7 8 2 4
BITMAP
66
66
7C
7C
CC
CC
F8
70
ENDCHAR
STARTCHAR 1D3E
ENCODING 7486
SWIDTH 480 0
DWIDTH 8 0
BBX 8 8 1 4
BITMAP
3E
7F
63
63
7E
7C
C0
C0
ENDCHAR
STARTCHAR 1D3F
ENCODING 7487
SWIDTH 540 0
DWIDTH 9 0
BBX 8 8 1 4
BITMAP
3E
7F
63
7F
7E
6C
C6
C6
ENDCHAR
STARTCHAR 1D40
ENCODING 7488
SWIDTH 420 0
DWIDTH 7 0
BBX 7 8 2 4
BITMAP
FE
FE
30
30
30
30
60
60
ENDCHAR
STARTCHAR 1D41
ENCODING 7489
SWIDTH 480 0
DWIDTH 8 0
BBX 7 8 2 4
BITMAP
66
66
66
CC
CC
CC
F8
70
ENDCHAR
STARTCHAR 1D42
ENCODING 7490
SWIDTH 660 0
DWIDTH 11 0
BBX 11 8 2 4
BITMAP
CE60
CEC0
DAC0
DAC0
D380
F380
E380
6300
ENDCHAR
STARTCHAR 1D43
ENCODING 7491
SWIDTH 420 0
DWIDTH 7 0
BBX 6 6 1 4
BITMAP
3C
7C
0C
7C
CC
FC
ENDCHAR
STARTCHAR 1D44
ENCODING 7492
SWIDTH 420 0
DWIDTH 7 0
BBX 6 6 2 4
BITMAP
7C
7C
CC
F8
C0
F8
ENDCHAR
STARTCHAR 1D45
ENCODING 7493
SWIDTH 420 0
DWIDTH 7 0
BBX 7 6 1 4
BITMAP
7E
7E
C6
CC
FC
7C
ENDCHAR
STARTCHAR 1D46
ENCODING 7494
SWIDTH 600 0
DWIDTH 10 0
BBX 12 6 1 4
BITMAP
7CE0
FFF0
0730
FFE0
C600
7BE0
ENDCHAR
STARTCHAR 1D47
ENCODING 7495
SWIDTH 420 0
DWIDTH 7 0
BBX 7 8 1 4
BITMAP
30
60
7C
7E
66
66
FC
DC
ENDCHAR
STARTCHAR 1D48
ENCODING 7496
SWIDTH 420 0
DWIDTH 7 0
BBX 8 8 1 4
BITMAP
03
06
7E
7E
C6
CE
FC
7C
ENDCHAR
STARTCHAR 1D49
ENCODING 7497
SWIDTH 420 0
DWIDTH 7 0
BBX 7 6 1 4
BITMAP
3C
46
FE
C0
FE
7C
ENDCHAR
STARTCHAR 1D4A
ENCODING 7498
SWIDTH 420 0
DWIDTH 7 0
BBX 7 6 1 4
BITMAP
7C
FE
06
FE
C4
78
ENDCHAR
STARTCHAR 1D4B
ENCODING 7499
SWIDTH 300 0
DWIDTH 5 0
BBX 5 6 1 4
BITMAP
78
60
70
C0
F0
70
ENDCHAR
STARTCHAR 1D4C
ENCODING 7500
SWIDTH 300 0
DWIDTH 5 0
BBX 6 6 0 4
BITMAP
FC
0C
38
0C
FC
78
ENDCHAR
STARTCHAR 1D4D
ENCODING 7501
SWIDTH 420 0
DWIDTH 7 0
BBX 7 9 1 1
BITMAP
7E
7E
C6
CE
FC
7C
0C
CC
78
ENDCHAR
STARTCHAR 1D4E
ENCODING 7502
SWIDTH 180 0
DWIDTH 3 0
BBX 4 8 0 2
BITMAP
30
60
60
60
60
60
00
C0
ENDCHAR
STARTCHAR 1D4F
ENCODING 7503
SWIDTH 360 0
DWIDTH 6 0
BBX 6 8 1 4
BITMAP
30
60
6C
78
78
6C
CC
CC
ENDCHAR
STARTCHAR 1D50
ENCODING 7504
SWIDTH 600 0
DWIDTH 10 0
BBX 11 6 1 4
BITMAP
6EE0
7FE0
6660
6660
CCC0
CCC0
ENDCHAR
STARTCHAR 1D51
ENCODING 7505
SWIDTH 420 0
DWIDTH 7 0
BBX 7 8 1 2
BITMAP
6E
7E
66
66
CC
CC
0C
18
ENDCHAR
STARTCHAR 1D52
ENCODING 7506
SWIDTH 420 0
DWIDTH 7 0
BBX 7 6 1 4
BITMAP
3C
7E
C6
C6
FC
78
ENDCHAR
STARTCHAR 1D53
ENCODING 7507
SWIDTH 420 0
DWIDTH 7 0
BBX 7 6 1 4
BITMAP
7C
FE
06
06
FC
78
ENDCHAR
STARTCHAR 1D54
ENCODING 7508
SWIDTH 420 0
DWIDTH 7 0
BBX 7 4 1 6
BITMAP
3C
7E
E6
C6
ENDCHAR
STARTCHAR 1D55
ENCODING 7509
SWIDTH 420 0
DWIDTH 7 0
BBX 7 4 1 4
BITMAP
C6
CE
FC
78
ENDCHAR
STARTCHAR 1D56
ENCODING 7510
SWIDTH 420 0
DWIDTH 7 0
BBX 8 8 1 2
BITMAP
3E
7F
73
63
7E
7C
C0
C0
ENDCHAR
STARTCHAR 1D57
ENCODING 7511
SWIDTH 240 0
DWIDTH 4 0
BBX 4 8 1 4
BITMAP
10
60
F0
F0
60
C0
E0
E0
ENDCHAR
STARTCHAR 1D58
ENCODING 7512
SWIDTH 420 0
DWIDTH 7 0
BBX 7 6 1 4
BITMAP
66
66
C6
CE
FC
FC
ENDCHAR
STARTCHAR 1D59
ENCODING 7513
SWIDTH 420 0
DWIDTH 7 0
BBX 7 7 1 4
BITMAP
F0
FE
1E
06
E6
FE
1E
ENDCHAR
STARTCHAR 1D5A
ENCODING 7514
SWIDTH 600 0
DWIDTH 10 0
BBX 10 6 1 4
BITMAP
66C0
6CC0
CCC0
CD80
FF80
EF80
ENDCHAR
STARTCHAR 1D5B
ENCODING 7515
SWIDTH 420 0
DWIDTH 7 0
BBX 6 6 2 4
BITMAP
CC
D8
D8
F0
F0
E0
ENDCHAR
STARTCHAR 1D5C
ENCODING 7516
SWIDTH 420 0
DWIDTH 7 0
BBX 7 6 1 4
BITMAP
1E
3E
3C
18
FE
EE
ENDCHAR
STARTCHAR 1D5D
ENCODING 7517
SWIDTH 420 0
DWIDTH 7 0
BBX 8 10 1 2
BITMAP
1E
3F
33
7E
63
63
7F
7E
C0
C0
ENDCHAR
STARTCHAR 1D5E
ENCODING 7518
SWIDTH 420 0
DWIDTH 7 0
BBX 7 8 1 2
BITMAP
C6
6C
6C
78
70
70
60
60
ENDCHAR
STARTCHAR 1D5F
ENCODING 7519
SWIDTH 420 0
DWIDTH 7 0
BBX 7 8 1 4
BITMAP
7E
7E
30
7C
FE
C6
FE
78
ENDCHAR
STARTCHAR 1D60
ENCODING 7520
SWIDTH 480 0
DWIDTH 8 0
BBX 8 8 1 2
BITMAP
2E
EF
DB
DB
FE
7C
30
30
ENDCHAR
STARTCHAR 1D61
ENCODING 7521
SWIDTH 420 0
DWIDTH 7 0
BBX 8 8 0 2
BITMAP
33
36
1C
18
18
38
6C
CC
ENDCHAR
STARTCHAR 1D62
ENCODING 7522
SWIDTH 180 0
DWIDTH 3 0
BBX 4 8 0 -1
BITMAP
30
00
60
60
60
60
C0
C0
ENDCHAR
STARTCHAR 1D63
ENCODING 7523
SWIDTH 300 0
DWIDTH 5 0
BBX 6 6 0 -1
BITMAP
6C
78
60
60
C0
C0
ENDCHAR
STARTCHAR 1D64
ENCODING 7524
SWIDTH 420 0
DWIDTH 7 0
BBX 7 6 0 -1
BITMAP
66
66
C6
CE
FC
FC
ENDCHAR
STARTCHAR 1D65
ENCODING 7525
SWIDTH 420 0
DWIDTH 7 0
BBX 6 6 1 -1
BITMAP
CC
D8
D8
F0
F0
E0
ENDCHAR
STARTCHAR 1D66
ENCODING 7526
SWIDTH 420 0
DWIDTH 7 0
BBX 8 11 0 -3
BITMAP
1E
3F
33
33
6E
63
63
7F
7E
C0
C0
ENDCHAR
STARTCHAR 1D67
ENCODING 7527
SWIDTH 420 0
DWIDTH 7 0
BBX 7 8 0 -3
BITMAP
C6
6C
6C
78
70
70
60
60
ENDCHAR
STARTCHAR 1D68
ENCODING 7528
SWIDTH 420 0
DWIDTH 7 0
BBX 7 8 0 -3
BITMAP
3C
7E
46
C6
FC
B8
80
7C
ENDCHAR
STARTCHAR 1D69
ENCODING 7529
SWIDTH 480 0
DWIDTH 8 0
BBX 8 8 0 -3
BITMAP
2E
EF
DB
DB
FE
7C
30
30
ENDCHAR
STARTCHAR 1D6A
ENCODING 7530
SWIDTH 420 0
DWIDTH 7 0
BBX 8 8 -1 -3
BITMAP
33
36
1C
18
18
38
6C
CC
ENDCHAR
STARTCHAR 1D6B
ENCODING 7531
SWIDTH 960 0
DWIDTH 16 0
BBX 14 9 2 0
BITMAP
61F8
61FC
618C
630C
C3FC
C300
C78C
FDF8
78F0
ENDCHAR
STARTCHAR 1D6C
ENCODING 7532
SWIDTH 600 0
DWIDTH 10 0
BBX 9 12 1 0
BITMAP
3A00
5C00
3000
3700
3F80
3180
6180
6180
6180
7300
DF00
DE00
ENDCHAR
STARTCHAR 1D6D
ENCODING 7533
SWIDTH 600 0
DWIDTH 10 0
BBX 11 12 1 0
BITMAP
03A0
05C0
0180
3D80
7F80
6700
C300
C300
C300
C700
FE00
7600
ENDCHAR
STARTCHAR 1D6E
ENCODING 7534
SWIDTH 360 0
DWIDTH 6 0
BBX 7 12 0 0
BITMAP
0E
1E
18
3C
3C
30
30
74
B8
30
60
60
ENDCHAR
STARTCHAR 1D6F
ENCODING 7535
SWIDTH 900 0
DWIDTH 15 0
BBX 16 9 0 0
BITMAP
1BBC
1FFC
39CC
318C
3F8F
F1FC
318C
6318
6318
ENDCHAR
STARTCHAR 1D70
ENCODING 7536
SWIDTH 600 0
DWIDTH 10 0
BBX 12 9 0 0
BITMAP
1BC0
1FC0
38C0
30C0
3CF0
F3C0
30C0
6180
6180
ENDCHAR
STARTCHAR 1D71
ENCODING 7537
SWIDTH 600 0
DWIDTH 10 0
BBX 12 13 -2 -4
BITMAP
0DE0
0FF0
0E30
0C30
0C30
1C30
1C60
1FE0
1BC0
1800
7400
BC00
3000
ENDCHAR
STARTCHAR 1D72
ENCODING 7538
SWIDTH 420 0
DWIDTH 7 0
BBX 8 9 0 0
BITMAP
1B
1E
38
30
74
B8
30
60
60
ENDCHAR
STARTCHAR 1D73
ENCODING 7539
SWIDTH 420 0
DWIDTH 7 0
BBX 9 9 -1 0
BITMAP
0380
0F00
0C00
1800
7A00
9C00
1800
3000
3000
ENDCHAR
STARTCHAR 1D74
ENCODING 7540
SWIDTH 540 0
DWIDTH 9 0
BBX 9 9 0 0
BITMAP
1F00
7F80
6000
7880
9F00
0300
C300
7E00
3C00
ENDCHAR
STARTCHAR 1D75
ENCODING 7541
SWIDTH 360 0
DWIDTH 6 0
BBX 7 12 -1 0
BITMAP
04
0C
0C
3E
3E
18
18
74
BC
30
38
38
ENDCHAR
STARTCHAR 1D76
ENCODING 7542
SWIDTH 540 0
DWIDTH 9 0
BBX 10 9 0 0
BITMAP
3F80
3F80
0300
7E40
8F80
1800
3000
7F00
7F00
ENDCHAR
STARTCHAR 1D77
ENCODING 7543
SWIDTH 600 0
DWIDTH 10 0
BBX 10 12 0 -3
BITMAP
0F80
1FC0
38C0
3000
3F00
7F80
7180
6180
6180
6380
DF00
DE00
ENDCHAR
STARTCHAR 1D78
ENCODING 7544
SWIDTH 420 0
DWIDTH 7 0
BBX 7 6 1 4
BITMAP
66
66
7E
7E
CC
CC
ENDCHAR
STARTCHAR 1D79
ENCODING 7545
SWIDTH 540 0
DWIDTH 9 0
BBX 9 12 0 -3
BITMAP
3F80
3F80
0300
0600
1F00
7F80
6180
C180
C180
C300
FE00
7C00
ENDCHAR
STARTCHAR 1D7A
ENCODING 7546
SWIDTH 900 0
DWIDTH 15 0
BBX 14 13 0 -1
BITMAP
0988
1990
19A0
7DFC
7DFC
338C
330C
770C
6B0C
730C
7E18
7E18
8000
ENDCHAR
STARTCHAR 1D7B
ENCODING 7547
SWIDTH 300 0
DWIDTH 5 0
BBX 4 9 1 0
BITMAP
30
30
60
60
F0
60
60
C0
C0
ENDCHAR
STARTCHAR 1D7C
ENCODING 7548
SWIDTH 300 0
DWIDTH 5 0
BBX 4 9 1 0
BITMAP
30
30
60
60
F0
60
60
C0
C0
ENDCHAR
STARTCHAR 1D7D
ENCODING 7549
SWIDTH 600 0
DWIDTH 10 0
BBX 11 12 0 -3
BITMAP
3780
3F80
39C0
30C0
7FE0
70C0
7180
7F80
6E00
6000
C000
C000
ENDCHAR
STARTCHAR 1D7E
ENCODING 7550
SWIDTH 600 0
DWIDTH 10 0
BBX 11 9 0 0
BITMAP
30C0
30C0
30C0
60C0
FFE0
6180
6380
7F00
3E00
ENDCHAR
ENDFONT
